G04*
G04 #@! TF.GenerationSoftware,Altium Limited,Altium Designer,24.6.1 (21)*
G04*
G04 Layer_Color=65535*
%FSLAX44Y44*%
%MOMM*%
G71*
G04*
G04 #@! TF.SameCoordinates,48E0A80C-5936-4B5D-ADAE-7FFE2CBD9C5D*
G04*
G04*
G04 #@! TF.FilePolarity,Positive*
G04*
G01*
G75*
%ADD10C,0.2000*%
%ADD11C,0.2540*%
%ADD12C,0.2500*%
%ADD13C,0.3000*%
%ADD14C,0.1500*%
G36*
X-95710Y-117400D02*
X-89360D01*
Y-111050D01*
X-95710D01*
Y-117400D01*
D02*
G37*
D10*
X129500Y-196000D02*
G03*
X129500Y-196000I-1000J0D01*
G01*
X117500Y-89500D02*
G03*
X117500Y-89500I-1000J0D01*
G01*
X-123850Y-37290D02*
G03*
X-123850Y-37290I-1000J0D01*
G01*
X58650Y-114790D02*
G03*
X58650Y-114790I-1000J0D01*
G01*
X-50790Y-102140D02*
G03*
X-50790Y-102140I-1000J0D01*
G01*
X14500Y100000D02*
G03*
X14500Y100000I-1000J0D01*
G01*
X-96065Y-3935D02*
Y18985D01*
Y76015D02*
Y98935D01*
X-198935D02*
X-96065D01*
X-198935Y-3935D02*
Y18985D01*
Y76015D02*
Y98935D01*
Y-3935D02*
X-96065D01*
X-78500Y122750D02*
Y170750D01*
X-116500Y122750D02*
Y170750D01*
X-83000D02*
X-78500D01*
X-83000Y122750D02*
X-78500D01*
X-116500Y170750D02*
X-112000D01*
X-116500Y122750D02*
X-112000D01*
X-129000Y219000D02*
X-81000D01*
X-129000Y181000D02*
X-81000D01*
X-129000Y214500D02*
Y219000D01*
X-81000Y214500D02*
Y219000D01*
X-129000Y181000D02*
Y185500D01*
X-81000Y181000D02*
Y185500D01*
X-144500Y-149000D02*
X-129500D01*
X-144500Y-123000D02*
X-129500D01*
X-144500Y-149000D02*
Y-123000D01*
X-129500Y-149000D02*
Y-123000D01*
X-117500Y-86000D02*
X-102500D01*
X-117500Y-112000D02*
X-102500D01*
Y-86000D01*
X-117500Y-112000D02*
Y-86000D01*
X-64250Y-101000D02*
Y-86000D01*
X-90250Y-101000D02*
Y-86000D01*
Y-101000D02*
X-64250D01*
X-90250Y-86000D02*
X-64250D01*
X40000Y-179000D02*
X55000D01*
X40000Y-153000D02*
X55000D01*
X40000Y-179000D02*
Y-153000D01*
X55000Y-179000D02*
Y-153000D01*
X25000Y-138000D02*
X40000D01*
X25000Y-112000D02*
X40000D01*
X25000Y-138000D02*
Y-112000D01*
X40000Y-138000D02*
Y-112000D01*
X163000Y-184500D02*
Y-169500D01*
X137000Y-184500D02*
Y-169500D01*
Y-184500D02*
X163000D01*
X137000Y-169500D02*
X163000D01*
X-105000Y-150500D02*
Y-120500D01*
X-120500Y-150500D02*
Y-120500D01*
X-105000D01*
X-120500Y-150500D02*
X-105000D01*
X35250Y-182500D02*
Y-152500D01*
X19750Y-182500D02*
Y-152500D01*
X35250D01*
X19750Y-182500D02*
X35250D01*
X136250Y-151500D02*
X166250D01*
X136250Y-167000D02*
X166250D01*
X136250D02*
Y-151500D01*
X166250Y-167000D02*
Y-151500D01*
X89000Y-227750D02*
Y-197750D01*
X73500Y-227750D02*
Y-197750D01*
X89000D01*
X73500Y-227750D02*
X89000D01*
X121000D02*
Y-197750D01*
X105500Y-227750D02*
Y-197750D01*
X121000D01*
X105500Y-227750D02*
X121000D01*
X-175246Y-132998D02*
Y-123002D01*
X-170248D01*
X-168582Y-124668D01*
Y-128000D01*
X-170248Y-129666D01*
X-175246D01*
X-171914D02*
X-168582Y-132998D01*
X-165249D02*
X-161917D01*
X-163583D01*
Y-123002D01*
X-165249Y-124668D01*
X-156918D02*
X-155252Y-123002D01*
X-151920D01*
X-150254Y-124668D01*
Y-131332D01*
X-151920Y-132998D01*
X-155252D01*
X-156918Y-131332D01*
Y-124668D01*
X-212081Y-132248D02*
Y-122252D01*
X-207082D01*
X-205416Y-123918D01*
Y-127250D01*
X-207082Y-128916D01*
X-212081D01*
X-208748D02*
X-205416Y-132248D01*
X-202084Y-130582D02*
X-200418Y-132248D01*
X-197085D01*
X-195419Y-130582D01*
Y-123918D01*
X-197085Y-122252D01*
X-200418D01*
X-202084Y-123918D01*
Y-125584D01*
X-200418Y-127250D01*
X-195419D01*
X-207081Y-70498D02*
Y-60502D01*
X-202082D01*
X-200416Y-62168D01*
Y-65500D01*
X-202082Y-67166D01*
X-207081D01*
X-203748D02*
X-200416Y-70498D01*
X-197084Y-62168D02*
X-195418Y-60502D01*
X-192085D01*
X-190419Y-62168D01*
Y-63834D01*
X-192085Y-65500D01*
X-190419Y-67166D01*
Y-68832D01*
X-192085Y-70498D01*
X-195418D01*
X-197084Y-68832D01*
Y-67166D01*
X-195418Y-65500D01*
X-197084Y-63834D01*
Y-62168D01*
X-195418Y-65500D02*
X-192085D01*
X-15415Y238498D02*
X-8750D01*
X-12082D01*
Y228502D01*
X-5418D02*
X-2086D01*
X-3752D01*
Y238498D01*
X-5418Y236832D01*
X58586Y240748D02*
X65250Y230752D01*
Y240748D02*
X58586Y230752D01*
X68582D02*
X71915D01*
X70248D01*
Y240748D01*
X68582Y239082D01*
X-10913Y-68252D02*
Y-74916D01*
X-7581Y-78248D01*
X-4248Y-74916D01*
Y-68252D01*
X-916D02*
X5748D01*
X2416D01*
Y-78248D01*
X9081D02*
X12413D01*
X10747D01*
Y-68252D01*
X9081Y-69918D01*
X-35079Y-4502D02*
Y-11166D01*
X-31747Y-14498D01*
X-28414Y-11166D01*
Y-4502D01*
X-25082D02*
Y-14498D01*
X-20084D01*
X-18418Y-12832D01*
Y-6168D01*
X-20084Y-4502D01*
X-25082D01*
X-10087Y-14498D02*
Y-4502D01*
X-15086Y-9500D01*
X-8421D01*
X-109579Y113748D02*
Y107084D01*
X-106247Y103752D01*
X-102914Y107084D01*
Y113748D01*
X-99582D02*
Y103752D01*
X-94584D01*
X-92918Y105418D01*
Y112082D01*
X-94584Y113748D01*
X-99582D01*
X-89586Y112082D02*
X-87919Y113748D01*
X-84587D01*
X-82921Y112082D01*
Y110416D01*
X-84587Y108750D01*
X-86253D01*
X-84587D01*
X-82921Y107084D01*
Y105418D01*
X-84587Y103752D01*
X-87919D01*
X-89586Y105418D01*
X-107329Y233998D02*
Y227334D01*
X-103997Y224002D01*
X-100665Y227334D01*
Y233998D01*
X-97332D02*
Y224002D01*
X-92334D01*
X-90668Y225668D01*
Y232332D01*
X-92334Y233998D01*
X-97332D01*
X-80671Y224002D02*
X-87336D01*
X-80671Y230666D01*
Y232332D01*
X-82337Y233998D01*
X-85669D01*
X-87336Y232332D01*
X150587Y-80502D02*
Y-87166D01*
X153919Y-90498D01*
X157252Y-87166D01*
Y-80502D01*
X160584D02*
Y-90498D01*
X165582D01*
X167248Y-88832D01*
Y-82168D01*
X165582Y-80502D01*
X160584D01*
X170581Y-90498D02*
X173913D01*
X172247D01*
Y-80502D01*
X170581Y-82168D01*
X-152330Y-71248D02*
Y-61252D01*
X-147331D01*
X-145665Y-62918D01*
Y-66250D01*
X-147331Y-67916D01*
X-152330D01*
X-148998D02*
X-145665Y-71248D01*
X-142333D02*
X-139001D01*
X-140667D01*
Y-61252D01*
X-142333Y-62918D01*
X-134002Y-71248D02*
X-130670D01*
X-132336D01*
Y-61252D01*
X-134002Y-62918D01*
X-145831Y-165498D02*
Y-155502D01*
X-140832D01*
X-139166Y-157168D01*
Y-160500D01*
X-140832Y-162166D01*
X-145831D01*
X-142498D02*
X-139166Y-165498D01*
X-135834Y-155502D02*
X-129169D01*
Y-157168D01*
X-135834Y-163832D01*
Y-165498D01*
X-117581Y-81248D02*
Y-71252D01*
X-112582D01*
X-110916Y-72918D01*
Y-76250D01*
X-112582Y-77916D01*
X-117581D01*
X-114248D02*
X-110916Y-81248D01*
X-100919Y-71252D02*
X-104252Y-72918D01*
X-107584Y-76250D01*
Y-79582D01*
X-105918Y-81248D01*
X-102585D01*
X-100919Y-79582D01*
Y-77916D01*
X-102585Y-76250D01*
X-107584D01*
X-86331Y-82248D02*
Y-72252D01*
X-81332D01*
X-79666Y-73918D01*
Y-77250D01*
X-81332Y-78916D01*
X-86331D01*
X-82998D02*
X-79666Y-82248D01*
X-69669Y-72252D02*
X-76334D01*
Y-77250D01*
X-73002Y-75584D01*
X-71336D01*
X-69669Y-77250D01*
Y-80582D01*
X-71336Y-82248D01*
X-74668D01*
X-76334Y-80582D01*
X41669Y-196498D02*
Y-186502D01*
X46668D01*
X48334Y-188168D01*
Y-191500D01*
X46668Y-193166D01*
X41669D01*
X45002D02*
X48334Y-196498D01*
X56665D02*
Y-186502D01*
X51666Y-191500D01*
X58331D01*
X163419Y-67748D02*
Y-57752D01*
X168418D01*
X170084Y-59418D01*
Y-62750D01*
X168418Y-64416D01*
X163419D01*
X166752D02*
X170084Y-67748D01*
X173416Y-59418D02*
X175082Y-57752D01*
X178414D01*
X180081Y-59418D01*
Y-61084D01*
X178414Y-62750D01*
X176748D01*
X178414D01*
X180081Y-64416D01*
Y-66082D01*
X178414Y-67748D01*
X175082D01*
X173416Y-66082D01*
X25169Y-105748D02*
Y-95752D01*
X30168D01*
X31834Y-97418D01*
Y-100750D01*
X30168Y-102416D01*
X25169D01*
X28502D02*
X31834Y-105748D01*
X41831D02*
X35166D01*
X41831Y-99084D01*
Y-97418D01*
X40164Y-95752D01*
X36832D01*
X35166Y-97418D01*
X168836Y-179998D02*
Y-170002D01*
X173834D01*
X175500Y-171668D01*
Y-175000D01*
X173834Y-176666D01*
X168836D01*
X172168D02*
X175500Y-179998D01*
X178832D02*
X182164D01*
X180498D01*
Y-170002D01*
X178832Y-171668D01*
X-223414Y94998D02*
Y85002D01*
X-216750D01*
X-213418D02*
X-210086D01*
X-211752D01*
Y94998D01*
X-213418Y93332D01*
X-93829Y-155002D02*
Y-164998D01*
X-88831D01*
X-87164Y-163332D01*
Y-156668D01*
X-88831Y-155002D01*
X-93829D01*
X-83832Y-164998D02*
Y-158334D01*
X-80500Y-155002D01*
X-77168Y-158334D01*
Y-164998D01*
Y-160000D01*
X-83832D01*
X-73836Y-156668D02*
X-72169Y-155002D01*
X-68837D01*
X-67171Y-156668D01*
Y-158334D01*
X-68837Y-160000D01*
X-70503D01*
X-68837D01*
X-67171Y-161666D01*
Y-163332D01*
X-68837Y-164998D01*
X-72169D01*
X-73836Y-163332D01*
X-39579Y-87502D02*
Y-97498D01*
X-34581D01*
X-32915Y-95832D01*
Y-89168D01*
X-34581Y-87502D01*
X-39579D01*
X-29582Y-97498D02*
Y-90834D01*
X-26250Y-87502D01*
X-22918Y-90834D01*
Y-97498D01*
Y-92500D01*
X-29582D01*
X-12921Y-97498D02*
X-19585D01*
X-12921Y-90834D01*
Y-89168D01*
X-14587Y-87502D01*
X-17919D01*
X-19585Y-89168D01*
X86337Y-151752D02*
Y-161748D01*
X91335D01*
X93002Y-160082D01*
Y-153418D01*
X91335Y-151752D01*
X86337D01*
X96334Y-161748D02*
Y-155084D01*
X99666Y-151752D01*
X102998Y-155084D01*
Y-161748D01*
Y-156750D01*
X96334D01*
X106331Y-161748D02*
X109663D01*
X107997D01*
Y-151752D01*
X106331Y-153418D01*
X-207666Y121832D02*
X-209332Y123498D01*
X-212665D01*
X-214331Y121832D01*
Y115168D01*
X-212665Y113502D01*
X-209332D01*
X-207666Y115168D01*
X-204334Y123498D02*
X-197669D01*
Y121832D01*
X-204334Y115168D01*
Y113502D01*
X-113916Y-157168D02*
X-115582Y-155502D01*
X-118914D01*
X-120581Y-157168D01*
Y-163832D01*
X-118914Y-165498D01*
X-115582D01*
X-113916Y-163832D01*
X-103919Y-155502D02*
X-107252Y-157168D01*
X-110584Y-160500D01*
Y-163832D01*
X-108918Y-165498D01*
X-105585D01*
X-103919Y-163832D01*
Y-162166D01*
X-105585Y-160500D01*
X-110584D01*
X22084Y-188918D02*
X20418Y-187252D01*
X17085D01*
X15419Y-188918D01*
Y-195582D01*
X17085Y-197248D01*
X20418D01*
X22084Y-195582D01*
X32081Y-187252D02*
X25416D01*
Y-192250D01*
X28748Y-190584D01*
X30415D01*
X32081Y-192250D01*
Y-195582D01*
X30415Y-197248D01*
X27082D01*
X25416Y-195582D01*
X158334Y180832D02*
X156668Y182498D01*
X153336D01*
X151669Y180832D01*
Y174168D01*
X153336Y172502D01*
X156668D01*
X158334Y174168D01*
X166665Y172502D02*
Y182498D01*
X161666Y177500D01*
X168331D01*
X178584Y-155668D02*
X176918Y-154002D01*
X173585D01*
X171919Y-155668D01*
Y-162332D01*
X173585Y-163998D01*
X176918D01*
X178584Y-162332D01*
X181916Y-155668D02*
X183582Y-154002D01*
X186915D01*
X188581Y-155668D01*
Y-157334D01*
X186915Y-159000D01*
X185248D01*
X186915D01*
X188581Y-160666D01*
Y-162332D01*
X186915Y-163998D01*
X183582D01*
X181916Y-162332D01*
X58584Y-217668D02*
X56918Y-216002D01*
X53586D01*
X51919Y-217668D01*
Y-224332D01*
X53586Y-225998D01*
X56918D01*
X58584Y-224332D01*
X68581Y-225998D02*
X61916D01*
X68581Y-219334D01*
Y-217668D01*
X66915Y-216002D01*
X63582D01*
X61916Y-217668D01*
X131250Y-205668D02*
X129584Y-204002D01*
X126252D01*
X124586Y-205668D01*
Y-212332D01*
X126252Y-213998D01*
X129584D01*
X131250Y-212332D01*
X134582Y-213998D02*
X137914D01*
X136248D01*
Y-204002D01*
X134582Y-205668D01*
D11*
X-210750Y38300D02*
G03*
X-210750Y38300I-1250J0D01*
G01*
X249250Y12700D02*
G03*
X249250Y12700I-1250J0D01*
G01*
X7500Y65000D02*
Y165000D01*
Y215000D02*
Y225000D01*
X-72500D02*
X7500D01*
X-72500Y5000D02*
Y225000D01*
Y5000D02*
X7500D01*
Y15000D01*
X-74580Y-125975D02*
Y-118225D01*
Y-149225D02*
Y-141475D01*
X-87360Y-135725D02*
Y-131725D01*
X-85610Y-118225D02*
X-74580D01*
X-85360Y-149225D02*
X-74580D01*
D12*
X-80250Y177250D02*
G03*
X-80250Y177250I-1250J0D01*
G01*
X-134250Y216000D02*
G03*
X-134250Y216000I-1250J0D01*
G01*
D13*
X-62000Y205000D02*
G03*
X-62000Y205000I-1500J0D01*
G01*
X1000Y212000D02*
G03*
X1000Y212000I-1500J0D01*
G01*
D14*
X-120000Y145000D02*
G03*
X-120000Y145000I-40000J0D01*
G01*
X87250Y-164750D02*
X117750D01*
X87250Y-195250D02*
X117750D01*
X110640Y200000D02*
X116990D01*
X22000D02*
X29000D01*
X25550Y196500D02*
Y203500D01*
X19000Y226000D02*
X108100D01*
X121000Y212700D01*
Y187300D02*
Y212700D01*
X108100Y174000D02*
X121000Y187300D01*
X19000Y174000D02*
X108100D01*
X19000D02*
Y226000D01*
X31570Y-81200D02*
X93780D01*
X31570Y-13800D02*
X93780D01*
Y-81200D02*
Y-13800D01*
X-109225Y-14290D02*
Y-7790D01*
Y-66790D02*
Y-60290D01*
X-40475Y-14290D02*
Y-7790D01*
Y-66790D02*
Y-60290D01*
X-109225Y-66790D02*
X-40475D01*
X-109225Y-7790D02*
X-40475D01*
X73275Y-91790D02*
Y-85290D01*
Y-144290D02*
Y-137790D01*
X142025Y-91790D02*
Y-85290D01*
Y-144290D02*
Y-137790D01*
X73275Y-144290D02*
X142025D01*
X73275Y-85290D02*
X142025D01*
X-126200Y-40400D02*
Y-29600D01*
X-153800Y-40400D02*
Y-29600D01*
X-173000Y-103250D02*
Y-89750D01*
X-127000Y-103250D02*
Y-89750D01*
X-182250Y-103250D02*
Y-89750D01*
X-228250Y-103250D02*
Y-89750D01*
X-164500Y-41750D02*
Y-28250D01*
X-210500Y-41750D02*
Y-28250D01*
X138500Y-16350D02*
X201500D01*
X138500Y-53650D02*
X201500D01*
X-40500Y-145750D02*
X5500D01*
X-40500Y-104250D02*
X5500D01*
X-181590Y178020D02*
X-138410D01*
X25000Y132500D02*
X55000Y162500D01*
X25000Y93200D02*
Y132500D01*
X55000Y162500D02*
X195000D01*
X25000Y22500D02*
X55000Y-7500D01*
X195000D01*
X25000Y22500D02*
Y61800D01*
X195000Y93200D02*
Y162500D01*
Y-7500D02*
Y61800D01*
M02*
