M48
;Layer_Color=9474304
;FILE_FORMAT=4:4
METRIC,LZ
;TYPE=PLATED
T01F00S00C0.4000
T02F00S00C0.5000
T03F00S00C0.7500
T04F00S00C1.0000
T05F00S00C1.5000
T06F00S00C1.8000
T07F00S00C2.5000
%
T01
X-001Y-00235
X-0007
X-0004
X0002
X0005
X0008
X0020675Y-001385
X0022Y-001135
X00215Y-00025
X002Y00005
X00215Y00035
X00245
X00185
X00155
X00125
X00095
X00065
X00035
X0008Y00005
X0011
X0014
X0017
Y-00055
X00185Y-00085
X0017Y-00115
X00155Y-00145
X0013Y-0015
X001225Y-001625
X0011Y-00175
X0010775Y-0019175
X0009825Y-0018575
X00095Y-001525
X00065Y-00145
X000625Y-0016
X00065Y-00205
X00035
X00005
X-00055
X-0004Y-00175
X-0007
X-0013
X-0013725Y-000965
X-00178Y-0009475
X-00094Y-0010775
X-0007Y-00112629
X-00054942Y-00083005
X-0007Y-00055
X-00085Y-00025
X-0007Y00005
X-001
X-0013
X-0016
X-00145Y00035
X-0013Y00065
X-0016
X-00145Y00095
X-00115
X-0013Y00125
X-00123167Y00158833
X-00145Y00155
X-00175
X-0019Y00125
X-00055Y00095
X-0007Y00065
X-0001
X00005Y00095
X0001925Y0009825
X-0001Y00125
X-000485Y00155
X00095
X00125
X00155
X0017Y00125
X0014
X0011
X00125Y00095
X00095
X0011Y00065
Y-00055
X00125Y-00085
X0011825Y-001055
X0009725Y-001085
X0011825Y-0013325
X00142Y-0019225
X00019Y-00099
X00005Y-00085
Y-00025
X-0022325Y-0005725
X-0025Y-00055
X-002355Y-0009475
X-0025Y00005
X-0022Y00065
X-00235Y00095
X-0022Y00125
X-0016Y00185
X-00055Y00215
X-0001Y00245
X0002
X0005
X0008Y00185
X0011
X0017
T02
X-000625Y0004
Y0019
T03
X-0016Y001275
Y001625
T04
X0023Y-000127
Y000127
X-0023Y000129
Y000383
Y-000125
Y-000379
T05
X-000025Y0004
Y0019
T06
X00045Y002
X00095
T07
X-001Y-002
M30
