G04*
G04 #@! TF.GenerationSoftware,Altium Limited,Altium Designer,24.6.1 (21)*
G04*
G04 Layer_Color=8388736*
%FSLAX44Y44*%
%MOMM*%
G71*
G04*
G04 #@! TF.SameCoordinates,443EAC24-2B67-40C4-A726-1E40DA2AE343*
G04*
G04*
G04 #@! TF.FilePolarity,Negative*
G04*
G01*
G75*
%ADD26R,3.1750X4.9530*%
G04:AMPARAMS|DCode=32|XSize=1.46mm|YSize=0.34mm|CornerRadius=0.065mm|HoleSize=0mm|Usage=FLASHONLY|Rotation=180.000|XOffset=0mm|YOffset=0mm|HoleType=Round|Shape=RoundedRectangle|*
%AMROUNDEDRECTD32*
21,1,1.4600,0.2100,0,0,180.0*
21,1,1.3300,0.3400,0,0,180.0*
1,1,0.1300,-0.6650,0.1050*
1,1,0.1300,0.6650,0.1050*
1,1,0.1300,0.6650,-0.1050*
1,1,0.1300,-0.6650,-0.1050*
%
%ADD32ROUNDEDRECTD32*%
%ADD33R,6.2932X5.8332*%
%ADD34R,3.0332X1.1732*%
%ADD35R,2.2032X3.8032*%
%ADD36R,2.3032X2.4532*%
%ADD37R,2.4532X2.3032*%
%ADD38R,2.9732X1.3032*%
G04:AMPARAMS|DCode=39|XSize=1.1732mm|YSize=4.9332mm|CornerRadius=0.2229mm|HoleSize=0mm|Usage=FLASHONLY|Rotation=270.000|XOffset=0mm|YOffset=0mm|HoleType=Round|Shape=RoundedRectangle|*
%AMROUNDEDRECTD39*
21,1,1.1732,4.4875,0,0,270.0*
21,1,0.7275,4.9332,0,0,270.0*
1,1,0.4457,-2.2438,-0.3638*
1,1,0.4457,-2.2438,0.3638*
1,1,0.4457,2.2438,0.3638*
1,1,0.4457,2.2438,-0.3638*
%
%ADD39ROUNDEDRECTD39*%
%ADD40R,1.1532X1.0032*%
%ADD41R,1.0032X1.1532*%
G04:AMPARAMS|DCode=42|XSize=2.1032mm|YSize=3.5732mm|CornerRadius=0.1681mm|HoleSize=0mm|Usage=FLASHONLY|Rotation=180.000|XOffset=0mm|YOffset=0mm|HoleType=Round|Shape=RoundedRectangle|*
%AMROUNDEDRECTD42*
21,1,2.1032,3.2370,0,0,180.0*
21,1,1.7670,3.5732,0,0,180.0*
1,1,0.3362,-0.8835,1.6185*
1,1,0.3362,0.8835,1.6185*
1,1,0.3362,0.8835,-1.6185*
1,1,0.3362,-0.8835,-1.6185*
%
%ADD42ROUNDEDRECTD42*%
%ADD43R,0.9652X0.9652*%
G04:AMPARAMS|DCode=44|XSize=1.3032mm|YSize=1.1032mm|CornerRadius=0.2141mm|HoleSize=0mm|Usage=FLASHONLY|Rotation=0.000|XOffset=0mm|YOffset=0mm|HoleType=Round|Shape=RoundedRectangle|*
%AMROUNDEDRECTD44*
21,1,1.3032,0.6750,0,0,0.0*
21,1,0.8750,1.1032,0,0,0.0*
1,1,0.4282,0.4375,-0.3375*
1,1,0.4282,-0.4375,-0.3375*
1,1,0.4282,-0.4375,0.3375*
1,1,0.4282,0.4375,0.3375*
%
%ADD44ROUNDEDRECTD44*%
%ADD45R,1.2532X1.1032*%
%ADD46R,6.7032X2.7032*%
%ADD47R,1.1032X1.2532*%
%ADD48C,2.2032*%
%ADD49C,5.2032*%
%ADD50R,2.9032X2.9032*%
%ADD51C,2.9032*%
%ADD52C,2.7032*%
%ADD53C,1.3032*%
%ADD54R,1.2500X1.2500*%
%ADD55C,1.2500*%
D26*
X-102415Y47500D02*
D03*
X-192585D02*
D03*
D32*
X123900Y-190000D02*
D03*
Y-185000D02*
D03*
Y-180000D02*
D03*
Y-175000D02*
D03*
Y-170000D02*
D03*
X81100Y-190000D02*
D03*
Y-185000D02*
D03*
Y-180000D02*
D03*
Y-175000D02*
D03*
Y-170000D02*
D03*
D33*
X47400Y-47500D02*
D03*
D34*
X113900Y-24600D02*
D03*
Y-70400D02*
D03*
D35*
X-108850Y-37290D02*
D03*
X-40850D02*
D03*
X73650Y-114790D02*
D03*
X141650D02*
D03*
D36*
X-97500Y164000D02*
D03*
Y129500D02*
D03*
D37*
X-122250Y200000D02*
D03*
X-87750D02*
D03*
D38*
X-140000Y-20870D02*
D03*
Y-49130D02*
D03*
D39*
X-150000Y-111300D02*
D03*
Y-81700D02*
D03*
X-205250D02*
D03*
Y-111300D02*
D03*
X-187500Y-20200D02*
D03*
Y-49800D02*
D03*
D40*
X-137000Y-142500D02*
D03*
Y-129500D02*
D03*
X-110000Y-92500D02*
D03*
Y-105500D02*
D03*
X47500Y-172500D02*
D03*
Y-159500D02*
D03*
X32500Y-131500D02*
D03*
Y-118500D02*
D03*
D41*
X-70750Y-93500D02*
D03*
X-83750D02*
D03*
X156500Y-177000D02*
D03*
X143500D02*
D03*
D42*
X143400Y-35000D02*
D03*
X196600D02*
D03*
D43*
X-92360Y-143275D02*
D03*
Y-124225D02*
D03*
X-69500Y-133750D02*
D03*
D44*
X13000Y-112300D02*
D03*
Y-137700D02*
D03*
X-48000D02*
D03*
Y-112300D02*
D03*
D45*
X-112750Y-127500D02*
D03*
Y-143500D02*
D03*
X27500Y-159500D02*
D03*
Y-175500D02*
D03*
X81250Y-204750D02*
D03*
Y-220750D02*
D03*
X113250Y-204750D02*
D03*
Y-220750D02*
D03*
D46*
X47500Y77500D02*
D03*
X172500D02*
D03*
D47*
X143250Y-159250D02*
D03*
X159250D02*
D03*
D48*
X-230000Y38300D02*
D03*
Y12900D02*
D03*
Y-37900D02*
D03*
Y-12500D02*
D03*
X230000Y-12700D02*
D03*
Y12700D02*
D03*
D49*
X-100000Y-200000D02*
D03*
D50*
X45000Y200000D02*
D03*
D51*
X95000D02*
D03*
D52*
X-2500Y190000D02*
D03*
Y40000D02*
D03*
D53*
X-62500Y190000D02*
D03*
Y40000D02*
D03*
D54*
X-160000Y162500D02*
D03*
D55*
Y127500D02*
D03*
M02*
