G04*
G04 #@! TF.GenerationSoftware,Altium Limited,Altium Designer,24.6.1 (21)*
G04*
G04 Layer_Physical_Order=1*
G04 Layer_Color=255*
%FSLAX44Y44*%
%MOMM*%
G71*
G04*
G04 #@! TF.SameCoordinates,443EAC24-2B67-40C4-A726-1E40DA2AE343*
G04*
G04*
G04 #@! TF.FilePolarity,Positive*
G04*
G01*
G75*
%ADD10C,0.2000*%
%ADD12C,0.2500*%
%ADD13C,0.3000*%
G04:AMPARAMS|DCode=15|XSize=1.4mm|YSize=0.28mm|CornerRadius=0.035mm|HoleSize=0mm|Usage=FLASHONLY|Rotation=180.000|XOffset=0mm|YOffset=0mm|HoleType=Round|Shape=RoundedRectangle|*
%AMROUNDEDRECTD15*
21,1,1.4000,0.2100,0,0,180.0*
21,1,1.3300,0.2800,0,0,180.0*
1,1,0.0700,-0.6650,0.1050*
1,1,0.0700,0.6650,0.1050*
1,1,0.0700,0.6650,-0.1050*
1,1,0.0700,-0.6650,-0.1050*
%
%ADD15ROUNDEDRECTD15*%
%ADD16R,6.0900X5.6300*%
%ADD17R,2.8300X0.9700*%
%ADD18R,2.0000X3.6000*%
%ADD19R,2.1000X2.2500*%
%ADD20R,2.2500X2.1000*%
%ADD21R,2.7700X1.1000*%
G04:AMPARAMS|DCode=22|XSize=0.97mm|YSize=4.73mm|CornerRadius=0.1213mm|HoleSize=0mm|Usage=FLASHONLY|Rotation=270.000|XOffset=0mm|YOffset=0mm|HoleType=Round|Shape=RoundedRectangle|*
%AMROUNDEDRECTD22*
21,1,0.9700,4.4875,0,0,270.0*
21,1,0.7275,4.7300,0,0,270.0*
1,1,0.2425,-2.2438,-0.3638*
1,1,0.2425,-2.2438,0.3638*
1,1,0.2425,2.2438,0.3638*
1,1,0.2425,2.2438,-0.3638*
%
%ADD22ROUNDEDRECTD22*%
%ADD23R,0.9500X0.8000*%
%ADD24R,0.8000X0.9500*%
G04:AMPARAMS|DCode=25|XSize=1.9mm|YSize=3.37mm|CornerRadius=0.0665mm|HoleSize=0mm|Usage=FLASHONLY|Rotation=180.000|XOffset=0mm|YOffset=0mm|HoleType=Round|Shape=RoundedRectangle|*
%AMROUNDEDRECTD25*
21,1,1.9000,3.2370,0,0,180.0*
21,1,1.7670,3.3700,0,0,180.0*
1,1,0.1330,-0.8835,1.6185*
1,1,0.1330,0.8835,1.6185*
1,1,0.1330,0.8835,-1.6185*
1,1,0.1330,-0.8835,-1.6185*
%
%ADD25ROUNDEDRECTD25*%
%ADD26R,3.1750X4.9530*%
%ADD27R,0.7620X0.7620*%
G04:AMPARAMS|DCode=28|XSize=1.1mm|YSize=0.9mm|CornerRadius=0.1125mm|HoleSize=0mm|Usage=FLASHONLY|Rotation=0.000|XOffset=0mm|YOffset=0mm|HoleType=Round|Shape=RoundedRectangle|*
%AMROUNDEDRECTD28*
21,1,1.1000,0.6750,0,0,0.0*
21,1,0.8750,0.9000,0,0,0.0*
1,1,0.2250,0.4375,-0.3375*
1,1,0.2250,-0.4375,-0.3375*
1,1,0.2250,-0.4375,0.3375*
1,1,0.2250,0.4375,0.3375*
%
%ADD28ROUNDEDRECTD28*%
%ADD29R,1.0500X0.9000*%
%ADD30R,6.5000X2.5000*%
%ADD31R,0.9000X1.0500*%
%ADD54R,1.2500X1.2500*%
%ADD55C,1.2500*%
%ADD56C,1.5000*%
%ADD57C,0.5000*%
%ADD58C,2.0000*%
%ADD59C,5.0000*%
%ADD60R,2.7000X2.7000*%
%ADD61C,2.7000*%
%ADD62C,2.5000*%
%ADD63C,1.1000*%
%ADD64C,0.8000*%
G36*
X9748Y264788D02*
X25646Y263758D01*
X41452Y261773D01*
X57111Y258841D01*
X72564Y254971D01*
X87757Y250178D01*
X102633Y244479D01*
X117140Y237895D01*
X131224Y230449D01*
X144834Y222170D01*
X157921Y213086D01*
X170437Y203230D01*
X182338Y192640D01*
X193579Y181352D01*
X204121Y169408D01*
X213924Y156851D01*
X222954Y143726D01*
X231178Y130082D01*
X238565Y115968D01*
X245089Y101434D01*
X250726Y86534D01*
X255457Y71322D01*
X259263Y55853D01*
X262131Y40182D01*
X264050Y24368D01*
X265014Y8466D01*
X265017Y501D01*
X265017Y501D01*
X265030Y-7125D01*
X264183Y-22313D01*
X263850Y-24240D01*
X263850Y-24241D01*
X262305Y-35690D01*
X262219Y-36331D01*
X261938Y-37190D01*
X261097Y-38465D01*
X259900Y-39910D01*
X259899D01*
X259900Y-39910D01*
X258058Y-41312D01*
X255035Y-42312D01*
X243438Y-42216D01*
X243036Y-42228D01*
X242611Y-40239D01*
X244153Y-39601D01*
X248209Y-37115D01*
X251826Y-34025D01*
X254916Y-30408D01*
X257402Y-26352D01*
X259222Y-21957D01*
X260333Y-17331D01*
X260706Y-12588D01*
X260333Y-7846D01*
X260288Y-7660D01*
X260286Y-7604D01*
X259579Y-3363D01*
X259535Y-3218D01*
X259473Y-2588D01*
X258394Y968D01*
X258043Y2125D01*
X257675Y2813D01*
X257129Y4021D01*
X257128Y4022D01*
X256779Y4593D01*
X254823Y7785D01*
X251957Y11140D01*
X248601Y14006D01*
X245444Y15941D01*
X245137Y16157D01*
X241268Y18184D01*
X240002Y20375D01*
X237675Y22703D01*
X234825Y24348D01*
X231646Y25200D01*
X228354D01*
X225175Y24348D01*
X222325Y22703D01*
X219998Y20375D01*
X218352Y17525D01*
X217500Y14346D01*
Y11054D01*
X218352Y7875D01*
X219998Y5025D01*
X222325Y2697D01*
X225175Y1052D01*
X228354Y200D01*
X231646D01*
X231963Y285D01*
X234041Y-803D01*
X235763Y-1714D01*
X235763D01*
X237332Y-2813D01*
X237712Y-3105D01*
X238979Y-4757D01*
X239282Y-5488D01*
X239282Y-5488D01*
X239707Y-7027D01*
X240010Y-8653D01*
X240388Y-10921D01*
X240354Y-10927D01*
X240573Y-12588D01*
X240226Y-15224D01*
X239208Y-17680D01*
X237590Y-19789D01*
X235481Y-21407D01*
X234667Y-21745D01*
X232844Y-22387D01*
X232633Y-22429D01*
X232641Y-22469D01*
X232641Y-22469D01*
X230536Y-22894D01*
X230504Y-22873D01*
X230504Y-22873D01*
X228774Y-23397D01*
X228072Y-23610D01*
X227721Y-23656D01*
X226889Y-23969D01*
X225073Y-24735D01*
X223713Y-25299D01*
X219896Y-27638D01*
X216492Y-30545D01*
X213585Y-33949D01*
X211779Y-36895D01*
X211246Y-37766D01*
X211245Y-37768D01*
X210865Y-38662D01*
X210346Y-39633D01*
X210076Y-40523D01*
X209930Y-40808D01*
X164018Y-169934D01*
X163467Y-172509D01*
X163601Y-175138D01*
X163793Y-175732D01*
X163799Y-175857D01*
X164064Y-176910D01*
X164266Y-177829D01*
X164546Y-179524D01*
X164611Y-180192D01*
X164635Y-180795D01*
X164623Y-181300D01*
X164595Y-181563D01*
X157891Y-189487D01*
X143803Y-199652D01*
X124868D01*
X124103Y-197804D01*
X125518Y-196389D01*
X126347Y-195149D01*
X126584Y-193956D01*
X130550D01*
X131662Y-193735D01*
X132605Y-193105D01*
X133235Y-192162D01*
X133456Y-191050D01*
Y-188950D01*
X133250Y-187915D01*
X133253Y-187914D01*
X133357Y-187862D01*
X133636Y-187796D01*
X140719Y-184571D01*
X141555Y-184255D01*
X141573Y-184250D01*
X142905D01*
X142914Y-184253D01*
X142945Y-184250D01*
X150000D01*
Y-169750D01*
X143557D01*
X142422Y-167750D01*
X142870Y-167000D01*
X150250D01*
Y-151500D01*
X138076D01*
X136994Y-151500D01*
X136500Y-150856D01*
X136500Y-149144D01*
X136057Y-147491D01*
X135889Y-147201D01*
X135856Y-147070D01*
X135709Y-146761D01*
X135621Y-146541D01*
X135557Y-146341D01*
X135513Y-146160D01*
X135488Y-145997D01*
X135477Y-145848D01*
X135479Y-145710D01*
X135492Y-145577D01*
X135494Y-145566D01*
X138839Y-135457D01*
X138878Y-135366D01*
X138918Y-135290D01*
X154150D01*
Y-99955D01*
X158927Y-95177D01*
X159480Y-94351D01*
X159674Y-93375D01*
Y-35625D01*
X159480Y-34650D01*
X158927Y-33823D01*
X155462Y-30357D01*
Y-18815D01*
X155216Y-17580D01*
X154517Y-16533D01*
X153470Y-15834D01*
X152235Y-15588D01*
X140693D01*
X139302Y-14198D01*
X138476Y-13645D01*
X137500Y-13451D01*
X104000D01*
X103025Y-13645D01*
X102198Y-14198D01*
X99145Y-17250D01*
X97250D01*
Y-31950D01*
X99758D01*
X102408Y-36850D01*
X102414Y-36857D01*
X102417Y-36866D01*
X102731Y-37239D01*
X103042Y-37615D01*
X103051Y-37620D01*
X103057Y-37627D01*
X121680Y-52535D01*
X129580Y-60435D01*
X129255Y-62661D01*
X128734Y-63050D01*
X97250D01*
Y-77750D01*
X103653D01*
Y-162800D01*
X90022Y-176431D01*
X89311D01*
X89243Y-176429D01*
X89084Y-176414D01*
X88862Y-176265D01*
X87750Y-176044D01*
X74450D01*
X73338Y-176265D01*
X72395Y-176895D01*
X71765Y-177838D01*
X71544Y-178950D01*
Y-181050D01*
X71765Y-182162D01*
X71991Y-182500D01*
X71765Y-182838D01*
X71544Y-183950D01*
Y-186050D01*
X71765Y-187162D01*
X71991Y-187500D01*
X71765Y-187838D01*
X71544Y-188950D01*
Y-191050D01*
X71765Y-192162D01*
X72395Y-193105D01*
X73338Y-193735D01*
X74450Y-193956D01*
X77022D01*
Y-197750D01*
X73500D01*
Y-211750D01*
X86377D01*
X86469Y-211768D01*
X86562Y-211750D01*
X89000D01*
Y-210016D01*
X89310Y-209950D01*
X90347Y-209848D01*
X104314D01*
X104576Y-209866D01*
X105149Y-209942D01*
X105500Y-210016D01*
Y-211750D01*
X107937D01*
X108031Y-211768D01*
X108123Y-211750D01*
X118377D01*
X118469Y-211768D01*
X118562Y-211750D01*
X121000D01*
Y-210016D01*
X121310Y-209950D01*
X122347Y-209848D01*
X145513D01*
X147464Y-209460D01*
X148372Y-208853D01*
X148658Y-208722D01*
X164363Y-197390D01*
X164786Y-196935D01*
X165272Y-196549D01*
X173034Y-187374D01*
X173423Y-186672D01*
X173865Y-186002D01*
X173999Y-185672D01*
X174071Y-185559D01*
X174321Y-185243D01*
X174664Y-184873D01*
X175103Y-184458D01*
X175597Y-184040D01*
X177822Y-182465D01*
X178709Y-181919D01*
X178894Y-181747D01*
X180061Y-180991D01*
X181826Y-179037D01*
X183024Y-176692D01*
X228424Y-49010D01*
X229127Y-47192D01*
X229127Y-47192D01*
X229127Y-47192D01*
X230141Y-45563D01*
X230542Y-45040D01*
X230942Y-44941D01*
X232125Y-46709D01*
X231414Y-47675D01*
X230503Y-49694D01*
X219586Y-86504D01*
X219465Y-89491D01*
X220210Y-92417D01*
X221814Y-95021D01*
X236569Y-107817D01*
X237533Y-109270D01*
X238257Y-110970D01*
X238658Y-112803D01*
X238446Y-115116D01*
X237892Y-116461D01*
X237892Y-116461D01*
X237172Y-118278D01*
X234300Y-124105D01*
X226781Y-137373D01*
X218513Y-150188D01*
X209522Y-162507D01*
X199839Y-174288D01*
X189495Y-185494D01*
X178524Y-196088D01*
X166963Y-206034D01*
X154849Y-215299D01*
X142224Y-223853D01*
X129127Y-231668D01*
X115604Y-238717D01*
X101698Y-244979D01*
X87455Y-250431D01*
X72923Y-255055D01*
X58149Y-258838D01*
X43182Y-261765D01*
X28071Y-263828D01*
X12867Y-265020D01*
X-2380Y-265336D01*
X-10000Y-265056D01*
X-10000Y-20000D01*
X-37500Y7500D01*
Y75000D01*
X-30000Y82500D01*
Y263049D01*
X-28092Y263271D01*
X-22088Y263971D01*
X-6182Y264859D01*
X9748Y264788D01*
D02*
G37*
G36*
X109032Y-75240D02*
X108862Y-75300D01*
X108712Y-75399D01*
X108582Y-75539D01*
X108472Y-75719D01*
X108382Y-75939D01*
X108312Y-76199D01*
X108262Y-76500D01*
X108232Y-76839D01*
X108222Y-77220D01*
X106222D01*
X106212Y-76839D01*
X106182Y-76500D01*
X106132Y-76199D01*
X106062Y-75939D01*
X105972Y-75719D01*
X105862Y-75539D01*
X105732Y-75399D01*
X105582Y-75300D01*
X105412Y-75240D01*
X105222Y-75219D01*
X109222D01*
X109032Y-75240D01*
D02*
G37*
G36*
X-164500Y-48000D02*
Y-57500D01*
X-182000Y-75000D01*
Y-81000D01*
X-225250D01*
X-228500Y-77750D01*
X-211000Y-60250D01*
Y-47675D01*
X-209070Y-45832D01*
X-164500Y-48000D01*
D02*
G37*
G36*
X-101250Y-53250D02*
X-111000Y-63000D01*
Y-67500D01*
X-115500D01*
X-131250Y-83250D01*
X-172250D01*
Y-79000D01*
X-153250Y-60000D01*
Y-52000D01*
X-146000Y-44750D01*
X-131750D01*
X-117500Y-30500D01*
X-101250D01*
X-101250Y-53250D01*
D02*
G37*
G36*
X-108485Y-86106D02*
X-108440Y-86622D01*
X-108365Y-87076D01*
X-108260Y-87470D01*
X-108125Y-87803D01*
X-107960Y-88076D01*
X-107765Y-88288D01*
X-107540Y-88440D01*
X-107285Y-88531D01*
X-107000Y-88561D01*
X-113000D01*
X-112715Y-88531D01*
X-112460Y-88440D01*
X-112235Y-88288D01*
X-112040Y-88076D01*
X-111875Y-87803D01*
X-111740Y-87470D01*
X-111635Y-87076D01*
X-111560Y-86622D01*
X-111515Y-86106D01*
X-111500Y-85531D01*
X-108500D01*
X-108485Y-86106D01*
D02*
G37*
G36*
X-105279Y-90785D02*
X-105187Y-91040D01*
X-105035Y-91265D01*
X-104822Y-91460D01*
X-104550Y-91625D01*
X-104216Y-91760D01*
X-103823Y-91865D01*
X-103369Y-91940D01*
X-102855Y-91985D01*
X-102281Y-92000D01*
Y-95000D01*
X-102851Y-95015D01*
X-103361Y-95059D01*
X-103811Y-95132D01*
X-104200Y-95235D01*
X-104530Y-95367D01*
X-104801Y-95529D01*
X-105010Y-95720D01*
X-105161Y-95941D01*
X-105251Y-96190D01*
X-105281Y-96469D01*
X-105311Y-90500D01*
X-105279Y-90785D01*
D02*
G37*
G36*
X-66781D02*
X-66690Y-91040D01*
X-66538Y-91265D01*
X-66326Y-91460D01*
X-66053Y-91625D01*
X-65720Y-91760D01*
X-65326Y-91865D01*
X-64872Y-91940D01*
X-64356Y-91985D01*
X-63780Y-92000D01*
Y-95000D01*
X-64356Y-95015D01*
X-64872Y-95060D01*
X-65326Y-95135D01*
X-65720Y-95240D01*
X-66053Y-95375D01*
X-66326Y-95540D01*
X-66538Y-95735D01*
X-66690Y-95960D01*
X-66781Y-96215D01*
X-66811Y-96500D01*
Y-90500D01*
X-66781Y-90785D01*
D02*
G37*
G36*
X-87719Y-96500D02*
X-87750Y-96215D01*
X-87839Y-95960D01*
X-87990Y-95735D01*
X-88200Y-95540D01*
X-88469Y-95375D01*
X-88799Y-95240D01*
X-89190Y-95135D01*
X-89640Y-95060D01*
X-90149Y-95015D01*
X-90719Y-95000D01*
Y-92000D01*
X-90149Y-91985D01*
X-89640Y-91940D01*
X-89190Y-91865D01*
X-88799Y-91760D01*
X-88469Y-91625D01*
X-88200Y-91460D01*
X-87990Y-91265D01*
X-87839Y-91040D01*
X-87750Y-90785D01*
X-87719Y-90500D01*
Y-96500D01*
D02*
G37*
G36*
X157125Y-35625D02*
Y-93375D01*
X152000Y-98500D01*
X131750D01*
Y-82250D01*
X133500Y-79500D01*
X133250Y-60500D01*
X123383Y-50633D01*
X104650Y-35637D01*
X100250Y-27500D01*
X100250Y-19750D01*
X104000Y-16000D01*
X137500D01*
X157125Y-35625D01*
D02*
G37*
G36*
X-55940Y-102081D02*
X-56136Y-104072D01*
X-56791Y-104509D01*
X-58145Y-106535D01*
X-58620Y-108925D01*
Y-115167D01*
X-59244Y-115954D01*
X-59508Y-116185D01*
X-60450Y-116726D01*
X-61609Y-116573D01*
X-76321D01*
X-78017Y-116797D01*
X-79598Y-117452D01*
X-80956Y-118494D01*
X-81702Y-119240D01*
X-83550Y-118474D01*
Y-115415D01*
X-98629D01*
X-100250Y-114500D01*
X-100250Y-113796D01*
Y-100056D01*
X-92750D01*
Y-103250D01*
X-61750D01*
Y-100056D01*
X-57966D01*
X-55940Y-102081D01*
D02*
G37*
G36*
X-46485Y-105385D02*
X-46440Y-105900D01*
X-46365Y-106355D01*
X-46260Y-106749D01*
X-46125Y-107082D01*
X-45960Y-107355D01*
X-45765Y-107567D01*
X-45540Y-107718D01*
X-45285Y-107809D01*
X-45000Y-107839D01*
X-51000D01*
X-50715Y-107809D01*
X-50460Y-107718D01*
X-50235Y-107567D01*
X-50040Y-107355D01*
X-49875Y-107082D01*
X-49740Y-106749D01*
X-49635Y-106355D01*
X-49560Y-105900D01*
X-49515Y-105385D01*
X-49500Y-104809D01*
X-46500D01*
X-46485Y-105385D01*
D02*
G37*
G36*
X-110035Y-109500D02*
X-110290Y-109590D01*
X-110515Y-109740D01*
X-110710Y-109950D01*
X-110875Y-110219D01*
X-111010Y-110549D01*
X-111115Y-110940D01*
X-111190Y-111390D01*
X-111235Y-111899D01*
X-111250Y-112470D01*
X-114250D01*
X-114255Y-111899D01*
X-114367Y-110219D01*
X-114419Y-109950D01*
X-114480Y-109740D01*
X-114551Y-109590D01*
X-114630Y-109500D01*
X-114719Y-109469D01*
X-109750D01*
X-110035Y-109500D01*
D02*
G37*
G36*
X-111235Y-120601D02*
X-111190Y-121110D01*
X-111115Y-121560D01*
X-111010Y-121951D01*
X-110875Y-122281D01*
X-110710Y-122550D01*
X-110515Y-122760D01*
X-110290Y-122910D01*
X-110035Y-123000D01*
X-109750Y-123031D01*
X-115750D01*
X-115465Y-123000D01*
X-115210Y-122910D01*
X-114985Y-122760D01*
X-114790Y-122550D01*
X-114625Y-122281D01*
X-114490Y-121951D01*
X-114385Y-121560D01*
X-114310Y-121110D01*
X-114265Y-120601D01*
X-114250Y-120030D01*
X-111250D01*
X-111235Y-120601D01*
D02*
G37*
G36*
X-96109Y-127225D02*
X-96139Y-126940D01*
X-96230Y-126685D01*
X-96382Y-126460D01*
X-96594Y-126265D01*
X-96867Y-126100D01*
X-97200Y-125965D01*
X-97594Y-125860D01*
X-98048Y-125785D01*
X-98564Y-125740D01*
X-99139Y-125725D01*
Y-122725D01*
X-98564Y-122710D01*
X-98048Y-122665D01*
X-97594Y-122590D01*
X-97200Y-122485D01*
X-96867Y-122350D01*
X-96594Y-122185D01*
X-96382Y-121990D01*
X-96230Y-121765D01*
X-96139Y-121510D01*
X-96109Y-121225D01*
Y-127225D01*
D02*
G37*
G36*
X-107531Y-124785D02*
X-107440Y-125040D01*
X-107288Y-125265D01*
X-107076Y-125460D01*
X-106803Y-125625D01*
X-106470Y-125760D01*
X-106076Y-125865D01*
X-105622Y-125940D01*
X-105106Y-125985D01*
X-104530Y-126000D01*
Y-129000D01*
X-105106Y-129015D01*
X-105622Y-129060D01*
X-106076Y-129135D01*
X-106470Y-129240D01*
X-106803Y-129375D01*
X-107076Y-129540D01*
X-107288Y-129735D01*
X-107440Y-129960D01*
X-107531Y-130215D01*
X-107561Y-130500D01*
Y-124500D01*
X-107531Y-124785D01*
D02*
G37*
G36*
X-117970Y-131969D02*
X-117999Y-131785D01*
X-118090Y-131621D01*
X-118239Y-131475D01*
X-118449Y-131349D01*
X-118720Y-131242D01*
X-119050Y-131155D01*
X-119439Y-131087D01*
X-119889Y-131039D01*
X-120969Y-131000D01*
Y-128000D01*
X-120395Y-127985D01*
X-119881Y-127940D01*
X-119427Y-127865D01*
X-119034Y-127760D01*
X-118701Y-127625D01*
X-118428Y-127460D01*
X-118215Y-127265D01*
X-118063Y-127040D01*
X-117971Y-126785D01*
X-117939Y-126500D01*
X-117970Y-131969D01*
D02*
G37*
G36*
X-132281Y-126785D02*
X-132190Y-127040D01*
X-132038Y-127265D01*
X-131826Y-127460D01*
X-131553Y-127625D01*
X-131220Y-127760D01*
X-130826Y-127865D01*
X-130372Y-127940D01*
X-129856Y-127985D01*
X-129281Y-128000D01*
Y-131000D01*
X-129856Y-131015D01*
X-130372Y-131060D01*
X-130826Y-131135D01*
X-131220Y-131240D01*
X-131553Y-131375D01*
X-131826Y-131540D01*
X-132038Y-131735D01*
X-132190Y-131960D01*
X-132281Y-132215D01*
X-132311Y-132500D01*
Y-126500D01*
X-132281Y-126785D01*
D02*
G37*
G36*
X138080Y-132783D02*
X137832Y-132854D01*
X137596Y-132973D01*
X137369Y-133139D01*
X137154Y-133353D01*
X136949Y-133614D01*
X136755Y-133923D01*
X136571Y-134278D01*
X136398Y-134682D01*
X136236Y-135133D01*
X133603D01*
X133738Y-134682D01*
X133833Y-134278D01*
X133884Y-133923D01*
X133894Y-133614D01*
X133862Y-133353D01*
X133788Y-133139D01*
X133672Y-132973D01*
X133514Y-132854D01*
X133313Y-132783D01*
X133071Y-132760D01*
X138338D01*
X138080Y-132783D01*
D02*
G37*
G36*
X-86459Y-139495D02*
X-87056Y-140113D01*
X-87996Y-141220D01*
X-88338Y-141709D01*
X-88596Y-142155D01*
X-88769Y-142557D01*
X-88856Y-142917D01*
X-88859Y-143234D01*
X-88778Y-143507D01*
X-88611Y-143738D01*
X-92823Y-139526D01*
X-92592Y-139693D01*
X-92319Y-139774D01*
X-92002Y-139771D01*
X-91643Y-139684D01*
X-91240Y-139511D01*
X-90794Y-139253D01*
X-90305Y-138911D01*
X-89773Y-138483D01*
X-88581Y-137374D01*
X-86459Y-139495D01*
D02*
G37*
G36*
X-96109Y-146275D02*
X-96139Y-145990D01*
X-96230Y-145735D01*
X-96382Y-145510D01*
X-96594Y-145315D01*
X-96867Y-145150D01*
X-97200Y-145015D01*
X-97594Y-144910D01*
X-98048Y-144835D01*
X-98564Y-144790D01*
X-99139Y-144775D01*
Y-141775D01*
X-98564Y-141760D01*
X-98048Y-141715D01*
X-97594Y-141640D01*
X-97200Y-141535D01*
X-96867Y-141400D01*
X-96594Y-141235D01*
X-96382Y-141040D01*
X-96230Y-140815D01*
X-96139Y-140560D01*
X-96109Y-140275D01*
Y-146275D01*
D02*
G37*
G36*
X-107531Y-140560D02*
X-107440Y-140815D01*
X-107288Y-141040D01*
X-107076Y-141235D01*
X-106803Y-141400D01*
X-106470Y-141535D01*
X-106076Y-141640D01*
X-105622Y-141715D01*
X-105106Y-141760D01*
X-104530Y-141775D01*
Y-144775D01*
X-105106Y-144790D01*
X-105622Y-144835D01*
X-106076Y-144910D01*
X-106470Y-145015D01*
X-106803Y-145150D01*
X-107076Y-145315D01*
X-107288Y-145510D01*
X-107440Y-145735D01*
X-107531Y-145990D01*
X-107561Y-146275D01*
Y-140275D01*
X-107531Y-140560D01*
D02*
G37*
G36*
X-42500Y259777D02*
X-42500Y90000D01*
X-50000Y82500D01*
Y0D01*
X-22499Y-27501D01*
X-22499Y-262280D01*
X-24499Y-264114D01*
X-30677Y-263580D01*
X-46912Y-261156D01*
X-62966Y-257735D01*
X-78778Y-253327D01*
X-94288Y-247951D01*
X-109436Y-241626D01*
X-124164Y-234378D01*
X-138415Y-226233D01*
X-149378Y-219034D01*
X-149298Y-217608D01*
X-148970Y-216909D01*
X-148693Y-216854D01*
X-148341Y-216618D01*
X-147945Y-216469D01*
X-147522Y-216071D01*
X-147039Y-215749D01*
X-142895Y-211605D01*
X-141790Y-209951D01*
X-141402Y-208000D01*
Y-151500D01*
X-141652Y-150243D01*
Y-138500D01*
X-127250D01*
Y-136056D01*
X-123000D01*
Y-153000D01*
X-102500D01*
Y-153000D01*
X-101170Y-152085D01*
X-83550D01*
Y-143924D01*
X-83533Y-143841D01*
X-83276Y-143538D01*
X-82793Y-143038D01*
X-82688Y-142874D01*
X-75929Y-136116D01*
X-74887Y-134758D01*
X-74232Y-133177D01*
X-74009Y-131480D01*
Y-130090D01*
X-73605Y-129685D01*
X-64324D01*
X-58620Y-135390D01*
Y-141075D01*
X-58145Y-143465D01*
X-56791Y-145491D01*
X-54765Y-146845D01*
X-52375Y-147320D01*
X-43625D01*
X-41235Y-146845D01*
X-39209Y-145491D01*
X-37855Y-143465D01*
X-37380Y-141075D01*
Y-134325D01*
X-37855Y-131935D01*
X-39209Y-129909D01*
X-41235Y-128555D01*
X-43625Y-128080D01*
X-47386D01*
X-51546Y-123920D01*
X-50718Y-121920D01*
X-43625D01*
X-41235Y-121445D01*
X-39209Y-120091D01*
X-37855Y-118065D01*
X-37380Y-115675D01*
Y-108925D01*
X-37855Y-106535D01*
X-39209Y-104509D01*
X-41235Y-103155D01*
X-41444Y-103114D01*
Y-100750D01*
X-41667Y-99053D01*
X-42322Y-97472D01*
X-43364Y-96114D01*
X-50614Y-88864D01*
X-51972Y-87822D01*
X-53553Y-87167D01*
X-55250Y-86944D01*
X-61750D01*
Y-83750D01*
X-92750D01*
Y-86944D01*
X-100250D01*
Y-83500D01*
X-103444D01*
Y-62653D01*
X-101080Y-60290D01*
X-93850D01*
Y-14290D01*
X-123850D01*
Y-29640D01*
X-132840Y-38630D01*
X-158850D01*
Y-40678D01*
X-159754Y-41202D01*
X-160850Y-41505D01*
X-162638Y-40311D01*
X-165063Y-39828D01*
X-209937D01*
X-212362Y-40311D01*
X-214417Y-41684D01*
X-215790Y-43738D01*
X-216272Y-46163D01*
Y-53438D01*
X-216098Y-54311D01*
Y-58138D01*
X-230288Y-72328D01*
X-232167Y-73583D01*
X-233540Y-75638D01*
X-234022Y-78063D01*
Y-85337D01*
X-233540Y-87761D01*
X-232167Y-89817D01*
X-230112Y-91190D01*
X-227687Y-91672D01*
X-182812D01*
X-180389Y-91190D01*
X-178334Y-89817D01*
X-176916D01*
X-174862Y-91190D01*
X-172437Y-91672D01*
X-127563D01*
X-125139Y-91190D01*
X-123083Y-89817D01*
X-121750Y-87821D01*
X-121591Y-87785D01*
X-119750Y-88153D01*
Y-101500D01*
Y-104847D01*
X-121591Y-105215D01*
X-121750Y-105179D01*
X-123083Y-103183D01*
X-125139Y-101811D01*
X-127563Y-101328D01*
X-144712D01*
X-145645Y-100395D01*
X-147299Y-99290D01*
X-149250Y-98902D01*
X-225000D01*
X-226951Y-99290D01*
X-228605Y-100395D01*
X-229997Y-101788D01*
X-230112Y-101811D01*
X-232167Y-103183D01*
X-233540Y-105239D01*
X-233697Y-106030D01*
X-233710Y-106049D01*
X-234098Y-108000D01*
Y-119967D01*
X-236098Y-120472D01*
X-237024Y-118756D01*
X-243915Y-103857D01*
X-249872Y-88561D01*
X-254872Y-72926D01*
X-258896Y-57012D01*
X-261929Y-40880D01*
X-263959Y-24591D01*
X-264979Y-8207D01*
X-264982Y0D01*
X-264966Y7778D01*
X-264024Y23304D01*
X-262174Y38749D01*
X-259423Y54059D01*
X-255780Y69181D01*
X-251257Y84064D01*
X-245870Y98657D01*
X-239637Y112909D01*
X-232581Y126771D01*
X-224724Y140197D01*
X-216095Y153139D01*
X-206722Y165553D01*
X-196639Y177397D01*
X-185879Y188630D01*
X-174479Y199214D01*
X-162479Y209111D01*
X-149920Y218289D01*
X-136845Y226715D01*
X-123298Y234361D01*
X-109327Y241201D01*
X-94980Y247210D01*
X-80305Y252368D01*
X-65353Y256658D01*
X-50175Y260065D01*
X-44024Y261072D01*
X-42500Y259777D01*
D02*
G37*
G36*
X133134Y-144507D02*
X133035Y-144855D01*
X132968Y-145207D01*
X132931Y-145563D01*
X132927Y-145924D01*
X132953Y-146288D01*
X133011Y-146656D01*
X133100Y-147028D01*
X133221Y-147404D01*
X133372Y-147784D01*
X133556Y-148168D01*
X128239Y-146409D01*
X128615Y-146210D01*
X128963Y-145995D01*
X129284Y-145765D01*
X129578Y-145520D01*
X129844Y-145259D01*
X130082Y-144983D01*
X130293Y-144691D01*
X130477Y-144383D01*
X130632Y-144060D01*
X130761Y-143722D01*
X133134Y-144507D01*
D02*
G37*
G36*
X130320Y-79750D02*
X129600Y-80882D01*
X129519Y-81089D01*
X129395Y-81275D01*
X129341Y-81548D01*
X129240Y-81809D01*
X129244Y-82031D01*
X129201Y-82250D01*
Y-94290D01*
X129150D01*
Y-135290D01*
X129150D01*
X130309Y-136894D01*
X128234Y-143164D01*
X128230Y-143174D01*
X128161Y-143289D01*
X128080Y-143401D01*
X127983Y-143514D01*
X127865Y-143630D01*
X127723Y-143749D01*
X127552Y-143871D01*
X127350Y-143995D01*
X127047Y-144155D01*
X126861Y-144307D01*
X126009Y-144799D01*
X124799Y-146009D01*
X123943Y-147491D01*
X123500Y-149144D01*
Y-150856D01*
X123943Y-152509D01*
X124799Y-153991D01*
X125243Y-154435D01*
X124207Y-156228D01*
X123356Y-156000D01*
X121644D01*
X119991Y-156443D01*
X118509Y-157299D01*
X117299Y-158509D01*
X116443Y-159991D01*
X116000Y-161644D01*
Y-163356D01*
X116228Y-164208D01*
X116138Y-166265D01*
X115195Y-166895D01*
X114565Y-167838D01*
X114344Y-168950D01*
Y-171050D01*
X114565Y-172162D01*
X114791Y-172500D01*
X114565Y-172838D01*
X114344Y-173950D01*
Y-176050D01*
X114565Y-177162D01*
X115195Y-178105D01*
X116138Y-178735D01*
X117250Y-178956D01*
X129242D01*
X130065Y-180956D01*
X129976Y-181044D01*
X117250D01*
X116138Y-181265D01*
X115195Y-181895D01*
X114565Y-182838D01*
X114344Y-183950D01*
Y-186050D01*
X114565Y-187162D01*
X114791Y-187500D01*
X114565Y-187838D01*
X114344Y-188950D01*
Y-191050D01*
X114565Y-192162D01*
X115195Y-193105D01*
X115584Y-195508D01*
X114546Y-196546D01*
X113742Y-197750D01*
X108123D01*
X108031Y-197731D01*
X107937Y-197750D01*
X105500D01*
Y-199484D01*
X105190Y-199550D01*
X104153Y-199652D01*
X90186D01*
X89924Y-199634D01*
X89351Y-199559D01*
X89000Y-199484D01*
Y-197750D01*
X86562D01*
X86470Y-197731D01*
X85178Y-196328D01*
Y-193956D01*
X87750D01*
X88862Y-193735D01*
X89805Y-193105D01*
X90435Y-192162D01*
X90656Y-191050D01*
Y-188950D01*
X90435Y-187838D01*
X90209Y-187500D01*
X90435Y-187162D01*
X90656Y-186050D01*
Y-183950D01*
X90969Y-183569D01*
X91500D01*
X92866Y-183297D01*
X94023Y-182523D01*
X109745Y-166802D01*
X110519Y-165644D01*
X110790Y-164278D01*
Y-77750D01*
X129222D01*
X130320Y-79750D01*
D02*
G37*
G36*
X141502Y-164439D02*
X141359Y-164314D01*
X141199Y-164256D01*
X141020Y-164264D01*
X140824Y-164337D01*
X140610Y-164477D01*
X140379Y-164684D01*
X140129Y-164956D01*
X139862Y-165295D01*
X139577Y-165699D01*
X139274Y-166170D01*
X137728Y-164867D01*
X138053Y-164323D01*
X138559Y-163358D01*
X138739Y-162937D01*
X138871Y-162557D01*
X138956Y-162217D01*
X138992Y-161918D01*
X138980Y-161660D01*
X138919Y-161443D01*
X138811Y-161266D01*
X141502Y-164439D01*
D02*
G37*
G36*
X125543Y-165150D02*
X125342Y-165506D01*
X125172Y-165862D01*
X125034Y-166219D01*
X124927Y-166576D01*
X124851Y-166933D01*
X124808Y-167291D01*
X124803Y-167416D01*
X124952Y-167739D01*
X125117Y-168013D01*
X125298Y-168237D01*
X125495Y-168411D01*
X125708Y-168535D01*
X125938Y-168610D01*
X126183Y-168635D01*
X123422D01*
X122409Y-168824D01*
X122365Y-168635D01*
X121096D01*
X121334Y-168610D01*
X121538Y-168535D01*
X121706Y-168411D01*
X121839Y-168237D01*
X121938Y-168013D01*
X122002Y-167739D01*
X122008Y-167673D01*
X121906Y-167483D01*
X121707Y-167177D01*
X121479Y-166882D01*
X121221Y-166600D01*
X120934Y-166329D01*
X120618Y-166070D01*
X120272Y-165822D01*
X125777Y-164794D01*
X125543Y-165150D01*
D02*
G37*
G36*
X132806Y-175343D02*
X132443Y-175478D01*
X131020Y-176101D01*
X130909Y-176175D01*
X130834Y-176239D01*
X130794Y-176294D01*
X130550Y-173604D01*
X130607Y-173613D01*
X130698Y-173607D01*
X130822Y-173586D01*
X130979Y-173549D01*
X131650Y-173347D01*
X132621Y-173008D01*
X132806Y-175343D01*
D02*
G37*
G36*
X88038Y-178761D02*
X88118Y-178811D01*
X88235Y-178856D01*
X88389Y-178894D01*
X88581Y-178926D01*
X89075Y-178974D01*
X89719Y-178997D01*
X90096Y-179000D01*
Y-181000D01*
X89719Y-181003D01*
X88581Y-181074D01*
X88389Y-181106D01*
X88235Y-181144D01*
X88118Y-181189D01*
X88038Y-181239D01*
X87994Y-181294D01*
Y-178706D01*
X88038Y-178761D01*
D02*
G37*
G36*
X143197Y-181719D02*
X142990Y-181605D01*
X142734Y-181535D01*
X142431Y-181508D01*
X142080Y-181525D01*
X141680Y-181586D01*
X141233Y-181691D01*
X140738Y-181839D01*
X139603Y-182268D01*
X138964Y-182548D01*
X137710Y-180921D01*
X138221Y-180678D01*
X139024Y-180225D01*
X139315Y-180015D01*
X139534Y-179816D01*
X139679Y-179629D01*
X139752Y-179454D01*
X139751Y-179289D01*
X139677Y-179136D01*
X139530Y-178994D01*
X143197Y-181719D01*
D02*
G37*
G36*
X132575Y-185457D02*
X132235Y-185551D01*
X131230Y-185893D01*
X131069Y-185971D01*
X130943Y-186045D01*
X130853Y-186116D01*
X130799Y-186183D01*
X130781Y-186247D01*
X130794Y-183705D01*
X130816Y-183735D01*
X130855Y-183756D01*
X130909Y-183770D01*
X130979Y-183775D01*
X131066Y-183773D01*
X131168Y-183762D01*
X131287Y-183743D01*
X131573Y-183682D01*
X131740Y-183640D01*
X132575Y-185457D01*
D02*
G37*
G36*
X177371Y-179749D02*
X176416Y-180338D01*
X174035Y-182023D01*
X173403Y-182557D01*
X172852Y-183078D01*
X172383Y-183585D01*
X171994Y-184078D01*
X171686Y-184557D01*
X171458Y-185023D01*
X166827Y-183140D01*
X166989Y-182648D01*
X167103Y-182090D01*
X167169Y-181465D01*
X167186Y-180774D01*
X167154Y-180017D01*
X167075Y-179193D01*
X166770Y-177347D01*
X166545Y-176325D01*
X166272Y-175236D01*
X177371Y-179749D01*
D02*
G37*
G36*
X82615Y-186180D02*
X82631Y-186365D01*
X84100D01*
X83815Y-186396D01*
X83560Y-186486D01*
X83335Y-186638D01*
X83140Y-186850D01*
X82975Y-187123D01*
X82840Y-187456D01*
X82828Y-187500D01*
X82840Y-187544D01*
X82975Y-187877D01*
X83140Y-188150D01*
X83335Y-188362D01*
X83560Y-188513D01*
X83815Y-188604D01*
X84100Y-188635D01*
X82631D01*
X82615Y-188820D01*
X82600Y-189396D01*
X79600D01*
X79585Y-188820D01*
X79569Y-188635D01*
X78100D01*
X78385Y-188604D01*
X78640Y-188513D01*
X78865Y-188362D01*
X79060Y-188150D01*
X79225Y-187877D01*
X79360Y-187544D01*
X79372Y-187500D01*
X79360Y-187456D01*
X79225Y-187123D01*
X79060Y-186850D01*
X78865Y-186638D01*
X78640Y-186486D01*
X78385Y-186396D01*
X78100Y-186365D01*
X79569D01*
X79585Y-186180D01*
X79600Y-185604D01*
X82600D01*
X82615Y-186180D01*
D02*
G37*
G36*
X124907Y-191388D02*
X124730Y-191458D01*
X124574Y-191574D01*
X124439Y-191737D01*
X124324Y-191945D01*
X124231Y-192201D01*
X124158Y-192502D01*
X124106Y-192850D01*
X124075Y-193245D01*
X124065Y-193685D01*
X121565D01*
X121554Y-193245D01*
X121523Y-192850D01*
X121471Y-192502D01*
X121398Y-192201D01*
X121305Y-191945D01*
X121190Y-191737D01*
X121055Y-191574D01*
X120899Y-191458D01*
X120722Y-191388D01*
X120525Y-191365D01*
X125104D01*
X124907Y-191388D01*
D02*
G37*
G36*
X83815Y-191396D02*
X83560Y-191487D01*
X83335Y-191638D01*
X83140Y-191850D01*
X82975Y-192123D01*
X82840Y-192456D01*
X82735Y-192850D01*
X82660Y-193305D01*
X82615Y-193820D01*
X82600Y-194396D01*
X79600D01*
X79585Y-193820D01*
X79540Y-193305D01*
X79465Y-192850D01*
X79360Y-192456D01*
X79225Y-192123D01*
X79060Y-191850D01*
X78865Y-191638D01*
X78640Y-191487D01*
X78385Y-191396D01*
X78100Y-191365D01*
X84100D01*
X83815Y-191396D01*
D02*
G37*
G36*
X82615Y-197850D02*
X82660Y-198361D01*
X82735Y-198811D01*
X82840Y-199200D01*
X82975Y-199531D01*
X83140Y-199800D01*
X83335Y-200011D01*
X83560Y-200161D01*
X83815Y-200250D01*
X84100Y-200280D01*
X78100D01*
X78385Y-200250D01*
X78640Y-200161D01*
X78865Y-200011D01*
X79060Y-199800D01*
X79225Y-199531D01*
X79360Y-199200D01*
X79465Y-198811D01*
X79540Y-198361D01*
X79585Y-197850D01*
X79600Y-197281D01*
X82600D01*
X82615Y-197850D01*
D02*
G37*
G36*
X118134Y-202384D02*
X117850Y-202679D01*
X117360Y-203253D01*
X117155Y-203532D01*
X116976Y-203805D01*
X116823Y-204074D01*
X116697Y-204337D01*
X116597Y-204595D01*
X116523Y-204847D01*
X116476Y-205095D01*
X113655Y-202274D01*
X113903Y-202227D01*
X114155Y-202153D01*
X114413Y-202053D01*
X114676Y-201927D01*
X114945Y-201774D01*
X115218Y-201595D01*
X115497Y-201390D01*
X116071Y-200900D01*
X116366Y-200616D01*
X118134Y-202384D01*
D02*
G37*
G36*
X118519Y-200655D02*
X118670Y-200989D01*
X118919Y-201285D01*
X119270Y-201541D01*
X119719Y-201758D01*
X120269Y-201935D01*
X120920Y-202073D01*
X121670Y-202171D01*
X122520Y-202230D01*
X123469Y-202250D01*
Y-207250D01*
X122520Y-207270D01*
X120920Y-207427D01*
X120269Y-207565D01*
X119719Y-207742D01*
X119270Y-207959D01*
X118919Y-208215D01*
X118670Y-208510D01*
X118519Y-208845D01*
X118469Y-209219D01*
Y-200280D01*
X118519Y-200655D01*
D02*
G37*
G36*
X108031Y-209219D02*
X107980Y-208845D01*
X107830Y-208510D01*
X107580Y-208215D01*
X107231Y-207959D01*
X106781Y-207742D01*
X106230Y-207565D01*
X105581Y-207427D01*
X104831Y-207329D01*
X103981Y-207270D01*
X103031Y-207250D01*
Y-202250D01*
X103981Y-202230D01*
X105581Y-202073D01*
X106230Y-201935D01*
X106781Y-201758D01*
X107231Y-201541D01*
X107580Y-201285D01*
X107830Y-200989D01*
X107980Y-200655D01*
X108031Y-200280D01*
Y-209219D01*
D02*
G37*
G36*
X86519Y-200655D02*
X86670Y-200989D01*
X86919Y-201285D01*
X87269Y-201541D01*
X87719Y-201758D01*
X88270Y-201935D01*
X88919Y-202073D01*
X89670Y-202171D01*
X90520Y-202230D01*
X91469Y-202250D01*
Y-207250D01*
X90520Y-207270D01*
X88919Y-207427D01*
X88270Y-207565D01*
X87719Y-207742D01*
X87269Y-207959D01*
X86919Y-208215D01*
X86670Y-208510D01*
X86519Y-208845D01*
X86469Y-209219D01*
Y-200280D01*
X86519Y-200655D01*
D02*
G37*
G36*
X-146500Y-106750D02*
Y-120500D01*
X-146750D01*
Y-138500D01*
Y-151500D01*
X-146500D01*
Y-208000D01*
X-150644Y-212144D01*
X-151536Y-211507D01*
X-159880Y-205395D01*
X-169217Y-197712D01*
X-179404Y-188459D01*
X-183500Y-184500D01*
X-191362Y-176306D01*
X-201235Y-164857D01*
X-206000Y-159000D01*
X-210538Y-152778D01*
X-214734Y-146931D01*
X-219816Y-139073D01*
X-222476Y-135029D01*
X-224825Y-130804D01*
X-229000Y-123294D01*
Y-108000D01*
X-225000Y-104000D01*
X-149250D01*
X-146500Y-106750D01*
D02*
G37*
%LPC*%
G36*
X51750Y224799D02*
X-5250D01*
X-6226Y224605D01*
X-7052Y224052D01*
X-19302Y211802D01*
X-19855Y210975D01*
X-20049Y210000D01*
Y173250D01*
X-19855Y172275D01*
X-19302Y171448D01*
X12701Y139444D01*
Y92500D01*
X12500D01*
Y62500D01*
X82500D01*
Y92500D01*
X82049D01*
Y164250D01*
X81855Y165226D01*
X81302Y166052D01*
X69049Y178306D01*
Y207500D01*
X68855Y208475D01*
X68302Y209302D01*
X53552Y224052D01*
X52726Y224605D01*
X51750Y224799D01*
D02*
G37*
G36*
X-9250Y56799D02*
X-9722Y56705D01*
X-10194Y56618D01*
X-10208Y56608D01*
X-10225Y56605D01*
X-10625Y56338D01*
X-11028Y56076D01*
X-11038Y56062D01*
X-11052Y56052D01*
X-19552Y47552D01*
X-20105Y46726D01*
X-20299Y45750D01*
Y12750D01*
X-20105Y11774D01*
X-19552Y10948D01*
X10701Y-19306D01*
Y-62000D01*
X10895Y-62976D01*
X11448Y-63802D01*
X14450Y-66805D01*
Y-78150D01*
X25795D01*
X33948Y-86302D01*
X33948Y-86302D01*
X48701Y-101056D01*
Y-119000D01*
X48895Y-119976D01*
X49448Y-120802D01*
X61150Y-132505D01*
Y-135290D01*
X86150D01*
Y-129705D01*
X90802Y-125052D01*
X91355Y-124226D01*
X91549Y-123250D01*
Y-66250D01*
X91355Y-65275D01*
X90802Y-64448D01*
X80350Y-53995D01*
Y-16850D01*
X67955D01*
X25799Y25306D01*
Y36750D01*
X25605Y37725D01*
X25052Y38552D01*
X7755Y55850D01*
X7356Y56117D01*
X6959Y56389D01*
X6942Y56393D01*
X6928Y56402D01*
X6457Y56496D01*
X5987Y56596D01*
X-9216Y56799D01*
X-9233Y56796D01*
X-9250Y56799D01*
D02*
G37*
G36*
X19856Y-92500D02*
X18144D01*
X16491Y-92943D01*
X15009Y-93799D01*
X13799Y-95009D01*
X12943Y-96491D01*
X12500Y-98144D01*
Y-98258D01*
X12263Y-98528D01*
X9395Y-101395D01*
X8290Y-103049D01*
X7902Y-105000D01*
Y-105373D01*
X7211Y-105510D01*
X6011Y-106312D01*
X5210Y-107511D01*
X4929Y-108925D01*
Y-115675D01*
X5210Y-117089D01*
X6011Y-118288D01*
X7211Y-119090D01*
X8625Y-119371D01*
X17375D01*
X18789Y-119090D01*
X19361Y-118708D01*
X19392Y-118698D01*
X19454Y-118646D01*
X19988Y-118288D01*
X20129Y-118079D01*
X20153Y-118058D01*
X20275Y-117906D01*
X20295Y-117888D01*
X20381Y-117831D01*
X20553Y-117747D01*
X20817Y-117650D01*
X21177Y-117555D01*
X21593Y-117477D01*
X22447Y-117398D01*
X23438D01*
X24085Y-118045D01*
X24354Y-118324D01*
X25140Y-119242D01*
X25250Y-119389D01*
X25250Y-125000D01*
X25250Y-127000D01*
Y-130144D01*
X16767Y-130628D01*
X16765Y-130629D01*
X8625D01*
X7211Y-130910D01*
X6011Y-131712D01*
X5210Y-132911D01*
X4929Y-134325D01*
Y-141075D01*
X5210Y-142489D01*
X6011Y-143688D01*
X7211Y-144490D01*
X8625Y-144771D01*
X17375D01*
X18789Y-144490D01*
X19988Y-143688D01*
X20790Y-142489D01*
X21071Y-141075D01*
Y-138552D01*
X25718Y-138287D01*
X27172Y-139660D01*
Y-152500D01*
X19750D01*
Y-166500D01*
X35250D01*
Y-163578D01*
X40250D01*
Y-166000D01*
X54750D01*
Y-164191D01*
X55908Y-163958D01*
X56706Y-163854D01*
X56838Y-163895D01*
X56976Y-163953D01*
X57123Y-164028D01*
X57281Y-164126D01*
X57450Y-164249D01*
X57632Y-164402D01*
X57879Y-164639D01*
X58067Y-164760D01*
X58509Y-165201D01*
X59991Y-166057D01*
X61644Y-166500D01*
X63356D01*
X65009Y-166057D01*
X66491Y-165201D01*
X67701Y-163991D01*
X68557Y-162509D01*
X69000Y-160856D01*
Y-159144D01*
X68557Y-157491D01*
X67701Y-156009D01*
X66491Y-154799D01*
X65009Y-153943D01*
X63356Y-153500D01*
X61644D01*
X59991Y-153943D01*
X58509Y-154799D01*
X58067Y-155240D01*
X57879Y-155361D01*
X57632Y-155598D01*
X57450Y-155751D01*
X57281Y-155874D01*
X57123Y-155972D01*
X56976Y-156048D01*
X56838Y-156104D01*
X56706Y-156146D01*
X55909Y-156041D01*
X54750Y-155809D01*
Y-153000D01*
X40250D01*
Y-155422D01*
X35328D01*
Y-138000D01*
X39750D01*
Y-127000D01*
X39750Y-125000D01*
X39750Y-123000D01*
Y-112000D01*
X32680D01*
X30803Y-110343D01*
X29155Y-108695D01*
X27501Y-107590D01*
X25550Y-107202D01*
X22896D01*
X22519Y-106783D01*
X22773Y-104327D01*
X22991Y-104201D01*
X24201Y-102991D01*
X25057Y-101509D01*
X25500Y-99856D01*
Y-98144D01*
X25057Y-96491D01*
X24201Y-95009D01*
X22991Y-93799D01*
X21509Y-92943D01*
X19856Y-92500D01*
D02*
G37*
G36*
X95856Y-146000D02*
X94144D01*
X92491Y-146443D01*
X91009Y-147299D01*
X89799Y-148509D01*
X88943Y-149991D01*
X88500Y-151644D01*
Y-152269D01*
X88452Y-152487D01*
X88445Y-152830D01*
X88424Y-153066D01*
X88392Y-153273D01*
X88349Y-153454D01*
X88299Y-153611D01*
X88242Y-153749D01*
X88178Y-153872D01*
X88106Y-153984D01*
X88099Y-153993D01*
X78396Y-163696D01*
X77568Y-164937D01*
X77347Y-166044D01*
X74450D01*
X73338Y-166265D01*
X72395Y-166895D01*
X71765Y-167838D01*
X71544Y-168950D01*
Y-171050D01*
X71765Y-172162D01*
X72395Y-173105D01*
X73338Y-173735D01*
X74450Y-173956D01*
X87750D01*
X88862Y-173735D01*
X89805Y-173105D01*
X90435Y-172162D01*
X90656Y-171050D01*
Y-168950D01*
X90435Y-167838D01*
X89805Y-166895D01*
X89227Y-166509D01*
X88766Y-164950D01*
X88711Y-164196D01*
X93507Y-159401D01*
X93516Y-159394D01*
X93628Y-159322D01*
X93751Y-159258D01*
X93889Y-159201D01*
X94046Y-159151D01*
X94227Y-159108D01*
X94434Y-159076D01*
X94670Y-159055D01*
X95013Y-159048D01*
X95231Y-159000D01*
X95856D01*
X97509Y-158557D01*
X98991Y-157701D01*
X100201Y-156491D01*
X101057Y-155009D01*
X101500Y-153356D01*
Y-151644D01*
X101057Y-149991D01*
X100201Y-148509D01*
X98991Y-147299D01*
X97509Y-146443D01*
X95856Y-146000D01*
D02*
G37*
%LPD*%
G36*
X66500Y207500D02*
Y177250D01*
X79500Y164250D01*
Y72750D01*
X25000D01*
X18500Y79250D01*
X15250Y87578D01*
Y140500D01*
X-17500Y173250D01*
Y210000D01*
X-5250Y222250D01*
X51750D01*
X66500Y207500D01*
D02*
G37*
G36*
X5953Y54047D02*
X23250Y36750D01*
Y24250D01*
X75750Y-28250D01*
Y-53000D01*
X89000Y-66250D01*
Y-123250D01*
X80500Y-131750D01*
X64000D01*
X51250Y-119000D01*
Y-100000D01*
X35750Y-84500D01*
X13250Y-62000D01*
Y-18250D01*
X-17750Y12750D01*
Y45750D01*
X-9250Y54250D01*
X5953Y54047D01*
D02*
G37*
G36*
X18960Y-103000D02*
X18863Y-103016D01*
X18742Y-103065D01*
X18595Y-103149D01*
X18423Y-103265D01*
X18226Y-103416D01*
X17756Y-103818D01*
X16863Y-104673D01*
X13327Y-101137D01*
X13646Y-100814D01*
X14734Y-99577D01*
X14851Y-99405D01*
X14935Y-99258D01*
X14984Y-99137D01*
X15000Y-99040D01*
X18960Y-103000D01*
D02*
G37*
G36*
X15503Y-105540D02*
X15611Y-107385D01*
X15651Y-107584D01*
X15698Y-107726D01*
X15750Y-107811D01*
X15809Y-107839D01*
X10191D01*
X10250Y-107811D01*
X10302Y-107726D01*
X10349Y-107584D01*
X10389Y-107385D01*
X10423Y-107130D01*
X10472Y-106448D01*
X10500Y-105000D01*
X15500D01*
X15503Y-105540D01*
D02*
G37*
G36*
X18418Y-108452D02*
X18733Y-108735D01*
X19110Y-108985D01*
X19550Y-109201D01*
X20052Y-109384D01*
X20615Y-109534D01*
X21241Y-109650D01*
X21929Y-109733D01*
X22679Y-109783D01*
X23491Y-109800D01*
Y-114800D01*
X22679Y-114817D01*
X21241Y-114950D01*
X20615Y-115066D01*
X20052Y-115216D01*
X19550Y-115399D01*
X19110Y-115615D01*
X18733Y-115865D01*
X18418Y-116148D01*
X18164Y-116464D01*
Y-108136D01*
X18418Y-108452D01*
D02*
G37*
G36*
X28545Y-111750D02*
X31306Y-114187D01*
X31646Y-114407D01*
X31915Y-114537D01*
X32114Y-114578D01*
X32241Y-114530D01*
X27780Y-118991D01*
X27828Y-118864D01*
X27787Y-118665D01*
X27657Y-118396D01*
X27437Y-118056D01*
X27128Y-117645D01*
X26242Y-116611D01*
X24245Y-114530D01*
X27780Y-110995D01*
X28545Y-111750D01*
D02*
G37*
G36*
X27780Y-135470D02*
X27751Y-135493D01*
X27664Y-135518D01*
X27519Y-135544D01*
X27053Y-135599D01*
X24871Y-135753D01*
X24785Y-132753D01*
X25358Y-132705D01*
X25871Y-132631D01*
X26324Y-132530D01*
X26717Y-132402D01*
X27049Y-132248D01*
X27322Y-132067D01*
X27534Y-131860D01*
X27687Y-131627D01*
X27779Y-131366D01*
X27811Y-131079D01*
X27780Y-135470D01*
D02*
G37*
G36*
X21486Y-135946D02*
X20870Y-135996D01*
X20324Y-136073D01*
X19848Y-136175D01*
X19441Y-136303D01*
X19104Y-136457D01*
X18836Y-136638D01*
X18638Y-136844D01*
X18509Y-137077D01*
X18450Y-137335D01*
X18461Y-137620D01*
X17802Y-133294D01*
X17803Y-133267D01*
X17883Y-133238D01*
X18044Y-133208D01*
X18284Y-133175D01*
X20682Y-132989D01*
X21400Y-132946D01*
X21486Y-135946D01*
D02*
G37*
G36*
X33965Y-135469D02*
X33710Y-135560D01*
X33485Y-135712D01*
X33290Y-135924D01*
X33125Y-136197D01*
X32990Y-136530D01*
X32885Y-136924D01*
X32810Y-137379D01*
X32765Y-137894D01*
X32750Y-138469D01*
X29750D01*
X29735Y-137894D01*
X29690Y-137379D01*
X29615Y-136924D01*
X29510Y-136530D01*
X29375Y-136197D01*
X29210Y-135924D01*
X29015Y-135712D01*
X28790Y-135560D01*
X28535Y-135469D01*
X28250Y-135439D01*
X34250D01*
X33965Y-135469D01*
D02*
G37*
G36*
X32720Y-155030D02*
X28250D01*
X28535Y-155000D01*
X28790Y-154910D01*
X29015Y-154761D01*
X29210Y-154551D01*
X29375Y-154281D01*
X29510Y-153951D01*
X29615Y-153560D01*
X29690Y-153111D01*
X29735Y-152600D01*
X29750Y-152030D01*
X32750D01*
X32720Y-155030D01*
D02*
G37*
G36*
X52214Y-157738D02*
X52290Y-157950D01*
X52417Y-158138D01*
X52594Y-158300D01*
X52822Y-158438D01*
X53100Y-158550D01*
X53429Y-158638D01*
X53809Y-158700D01*
X54239Y-158737D01*
X54720Y-158750D01*
Y-161250D01*
X54239Y-161262D01*
X53809Y-161300D01*
X53429Y-161362D01*
X53100Y-161450D01*
X52822Y-161562D01*
X52594Y-161700D01*
X52417Y-161863D01*
X52290Y-162050D01*
X52214Y-162262D01*
X52189Y-162500D01*
Y-157500D01*
X52214Y-157738D01*
D02*
G37*
G36*
X42811Y-162500D02*
X42781Y-162215D01*
X42690Y-161960D01*
X42538Y-161735D01*
X42326Y-161540D01*
X42053Y-161375D01*
X41720Y-161240D01*
X41326Y-161135D01*
X40872Y-161060D01*
X40356Y-161015D01*
X39780Y-161000D01*
Y-158000D01*
X40356Y-157985D01*
X40872Y-157940D01*
X41326Y-157865D01*
X41720Y-157760D01*
X42053Y-157625D01*
X42326Y-157460D01*
X42538Y-157265D01*
X42690Y-157040D01*
X42781Y-156785D01*
X42811Y-156500D01*
Y-162500D01*
D02*
G37*
G36*
X32719Y-156785D02*
X32810Y-157040D01*
X32962Y-157265D01*
X33174Y-157460D01*
X33447Y-157625D01*
X33780Y-157760D01*
X34174Y-157865D01*
X34629Y-157940D01*
X35144Y-157985D01*
X35719Y-158000D01*
Y-161000D01*
X35144Y-161015D01*
X34629Y-161060D01*
X34174Y-161135D01*
X33780Y-161240D01*
X33447Y-161375D01*
X33174Y-161540D01*
X32962Y-161735D01*
X32810Y-161960D01*
X32719Y-162215D01*
X32689Y-162500D01*
Y-156500D01*
X32719Y-156785D01*
D02*
G37*
G36*
X59643Y-162800D02*
X59337Y-162505D01*
X59023Y-162242D01*
X58704Y-162010D01*
X58379Y-161808D01*
X58048Y-161637D01*
X57711Y-161498D01*
X57367Y-161390D01*
X57018Y-161312D01*
X56662Y-161266D01*
X56300Y-161250D01*
Y-158750D01*
X56662Y-158735D01*
X57018Y-158688D01*
X57367Y-158610D01*
X57711Y-158502D01*
X58048Y-158363D01*
X58379Y-158192D01*
X58704Y-157991D01*
X59023Y-157758D01*
X59337Y-157494D01*
X59643Y-157200D01*
Y-162800D01*
D02*
G37*
G36*
X94960Y-156500D02*
X94535Y-156509D01*
X94127Y-156544D01*
X93737Y-156605D01*
X93365Y-156692D01*
X93010Y-156806D01*
X92673Y-156946D01*
X92353Y-157112D01*
X92051Y-157304D01*
X91767Y-157523D01*
X91500Y-157768D01*
X89732Y-156000D01*
X89977Y-155733D01*
X90196Y-155449D01*
X90388Y-155147D01*
X90554Y-154827D01*
X90694Y-154490D01*
X90808Y-154135D01*
X90895Y-153763D01*
X90956Y-153373D01*
X90991Y-152965D01*
X91000Y-152540D01*
X94960Y-156500D01*
D02*
G37*
G36*
X82360Y-166825D02*
X82388Y-167204D01*
X82436Y-167540D01*
X82503Y-167830D01*
X82589Y-168076D01*
X82694Y-168277D01*
X82817Y-168433D01*
X82961Y-168545D01*
X83123Y-168612D01*
X83304Y-168635D01*
X78896D01*
X79077Y-168612D01*
X79239Y-168545D01*
X79382Y-168433D01*
X79507Y-168277D01*
X79611Y-168076D01*
X79697Y-167830D01*
X79764Y-167540D01*
X79812Y-167204D01*
X79840Y-166825D01*
X79850Y-166400D01*
X82350D01*
X82360Y-166825D01*
D02*
G37*
%LPC*%
G36*
X-71500Y215500D02*
X-104000D01*
Y184500D01*
X-85569D01*
X-84750Y184392D01*
X-74722D01*
X-71415Y181085D01*
X-68804Y179081D01*
X-65763Y177822D01*
X-62500Y177392D01*
X-59237Y177822D01*
X-56196Y179081D01*
X-53585Y181085D01*
X-51581Y183696D01*
X-50322Y186737D01*
X-49892Y190000D01*
X-50322Y193263D01*
X-51581Y196304D01*
X-53585Y198915D01*
X-60585Y205915D01*
X-63196Y207919D01*
X-66237Y209178D01*
X-69500Y209608D01*
X-71500D01*
Y215500D01*
D02*
G37*
G36*
X-160000Y140108D02*
X-163263Y139678D01*
X-166304Y138419D01*
X-168915Y136415D01*
X-193591Y111740D01*
X-194665Y110915D01*
X-201500Y104080D01*
X-203504Y101469D01*
X-204763Y98428D01*
X-205193Y95165D01*
Y86926D01*
X-205252Y84676D01*
X-205446Y82478D01*
X-205748Y80669D01*
X-206124Y79269D01*
X-206523Y78294D01*
X-206868Y77729D01*
X-207087Y77493D01*
X-207183Y77430D01*
X-207291Y77392D01*
X-208119Y77305D01*
X-208246Y77265D01*
X-213460D01*
Y53098D01*
X-227507D01*
X-228523Y53300D01*
X-231477D01*
X-234375Y52723D01*
X-237105Y51593D01*
X-239562Y49951D01*
X-241651Y47862D01*
X-243293Y45405D01*
X-244424Y42675D01*
X-245000Y39777D01*
Y36823D01*
X-244424Y33925D01*
X-243293Y31195D01*
X-241651Y28738D01*
X-239746Y26833D01*
X-239489Y25916D01*
Y25284D01*
X-239746Y24367D01*
X-241651Y22462D01*
X-243293Y20005D01*
X-244424Y17275D01*
X-245000Y14377D01*
Y11423D01*
X-244424Y8525D01*
X-243293Y5795D01*
X-241651Y3338D01*
X-239562Y1249D01*
X-237105Y-393D01*
X-234375Y-1523D01*
X-231477Y-2100D01*
X-228523D01*
X-227761Y-1948D01*
X-227179Y-2531D01*
X-225525Y-3636D01*
X-225310Y-3725D01*
X-223688Y-4809D01*
X-222309Y-6188D01*
X-221225Y-7810D01*
X-221136Y-8025D01*
X-220030Y-9679D01*
X-216098Y-13612D01*
Y-15689D01*
X-216272Y-16562D01*
Y-23837D01*
X-215790Y-26261D01*
X-214417Y-28317D01*
X-212362Y-29690D01*
X-209937Y-30172D01*
X-165063D01*
X-162638Y-29690D01*
X-160583Y-28317D01*
X-159211Y-26261D01*
X-158728Y-23837D01*
Y-16562D01*
X-159211Y-14138D01*
X-159402Y-13852D01*
Y-8250D01*
X-159790Y-6299D01*
X-160895Y-4645D01*
X-172152Y6612D01*
Y17735D01*
X-171710D01*
Y77265D01*
X-176924D01*
X-177051Y77305D01*
X-177879Y77392D01*
X-177987Y77430D01*
X-178083Y77493D01*
X-178302Y77729D01*
X-178647Y78294D01*
X-179046Y79269D01*
X-179422Y80669D01*
X-179724Y82478D01*
X-179918Y84676D01*
X-179977Y86926D01*
Y89943D01*
X-177659Y92261D01*
X-176585Y93085D01*
X-151085Y118585D01*
X-149081Y121196D01*
X-147822Y124237D01*
X-147392Y127500D01*
X-147822Y130763D01*
X-149081Y133804D01*
X-151085Y136415D01*
X-153696Y138419D01*
X-156737Y139678D01*
X-160000Y140108D01*
D02*
G37*
G36*
X-106000Y215500D02*
X-138500D01*
Y190041D01*
X-138560Y189806D01*
X-138539Y189663D01*
X-138567Y189521D01*
X-138500Y189185D01*
Y184500D01*
X-137119D01*
X-136302Y180396D01*
X-134349Y174641D01*
X-131661Y169190D01*
X-131168Y168453D01*
X-131145Y168407D01*
X-131128Y168393D01*
X-128351Y164237D01*
X-128284Y164137D01*
X-127054Y162734D01*
X-126354Y161830D01*
X-126096Y161632D01*
X-125414Y160833D01*
X-124892Y160387D01*
X-124666Y160105D01*
X-124371Y159943D01*
X-122122Y158022D01*
X-118432Y155761D01*
X-116248Y154856D01*
X-115747Y154522D01*
X-114527Y153589D01*
X-113601Y152784D01*
X-113030Y152195D01*
X-113000Y152155D01*
Y147750D01*
X-87370D01*
X-87030Y147683D01*
X-86691Y147750D01*
X-82000D01*
Y150629D01*
X-81438Y150755D01*
X-80140Y150948D01*
X-79099Y151019D01*
X-77608Y149528D01*
Y121222D01*
X-102955Y95875D01*
X-104959Y93264D01*
X-106218Y90223D01*
X-106622Y87153D01*
X-106636Y87092D01*
X-106638Y87037D01*
X-106648Y86960D01*
Y86643D01*
X-106705Y84448D01*
X-106891Y82291D01*
X-107182Y80515D01*
X-107544Y79142D01*
X-107927Y78191D01*
X-108252Y77649D01*
X-108443Y77439D01*
X-108496Y77403D01*
X-108543Y77386D01*
X-109309Y77303D01*
X-109432Y77265D01*
X-123290D01*
Y17735D01*
X-81540D01*
Y55056D01*
X-81432Y55875D01*
Y81738D01*
X-56085Y107085D01*
X-54081Y109696D01*
X-52822Y112737D01*
X-52392Y116000D01*
Y154750D01*
X-52822Y158013D01*
X-54081Y161054D01*
X-56085Y163665D01*
X-65175Y172755D01*
X-67786Y174759D01*
X-70827Y176018D01*
X-73826Y176413D01*
X-73920Y176435D01*
X-74018Y176439D01*
X-74090Y176448D01*
X-74302D01*
X-78410Y176585D01*
X-80029Y176747D01*
X-81357Y176961D01*
X-82000Y177119D01*
Y180250D01*
X-86691D01*
X-87030Y180317D01*
X-87370Y180250D01*
X-107612D01*
X-107918Y180312D01*
X-108308Y181877D01*
X-108426Y182500D01*
X-107019Y184500D01*
X-106000D01*
Y215500D01*
D02*
G37*
%LPD*%
G36*
X-185010Y84384D02*
X-184785Y81834D01*
X-184410Y79584D01*
X-183885Y77635D01*
X-183210Y75985D01*
X-182385Y74634D01*
X-181410Y73584D01*
X-180285Y72835D01*
X-179010Y72385D01*
X-177585Y72235D01*
X-207585D01*
X-206160Y72385D01*
X-204885Y72835D01*
X-203760Y73584D01*
X-202785Y74634D01*
X-201960Y75985D01*
X-201285Y77635D01*
X-200760Y79584D01*
X-200385Y81834D01*
X-200160Y84384D01*
X-200085Y87234D01*
X-185085D01*
X-185010Y84384D01*
D02*
G37*
G36*
X-177250Y4500D02*
X-164500Y-8250D01*
Y-18750D01*
X-208500D01*
X-211000Y-16250D01*
Y-11500D01*
X-216426Y-6074D01*
X-216707Y-5395D01*
X-218349Y-2938D01*
X-220438Y-849D01*
X-222895Y793D01*
X-223574Y1074D01*
X-230000Y7500D01*
Y48000D01*
X-177250D01*
Y4500D01*
D02*
G37*
G36*
X-111983Y189394D02*
X-112744Y188984D01*
X-113314Y188301D01*
X-113692Y187344D01*
X-113879Y186115D01*
X-113874Y184612D01*
X-113678Y182836D01*
X-113290Y180786D01*
X-112711Y178464D01*
X-111941Y175868D01*
X-127144Y171567D01*
X-133469Y189531D01*
X-111653Y189572D01*
X-111983Y189394D01*
D02*
G37*
G36*
X-111532Y175481D02*
X-111340Y175426D01*
X-111097Y175378D01*
X-110802Y175336D01*
X-110062Y175271D01*
X-108569Y175223D01*
X-107970Y175219D01*
X-107939Y153086D01*
X-108074Y153816D01*
X-108478Y154626D01*
X-109151Y155517D01*
X-110092Y156489D01*
X-111302Y157540D01*
X-112781Y158673D01*
X-116545Y161178D01*
X-121383Y164006D01*
X-111674Y175542D01*
X-111532Y175481D01*
D02*
G37*
G36*
X-86901Y174482D02*
X-86513Y173823D01*
X-85866Y173241D01*
X-84960Y172737D01*
X-83795Y172310D01*
X-82372Y171961D01*
X-80690Y171689D01*
X-78749Y171495D01*
X-74090Y171340D01*
Y156340D01*
X-76549Y156305D01*
X-80690Y156020D01*
X-82372Y155771D01*
X-83795Y155450D01*
X-84960Y155059D01*
X-85866Y154596D01*
X-86513Y154062D01*
X-86901Y153457D01*
X-87030Y152781D01*
Y175219D01*
X-86901Y174482D01*
D02*
G37*
G36*
X-86571Y72235D02*
X-108765D01*
X-107393Y72382D01*
X-106164Y72824D01*
X-105080Y73560D01*
X-104141Y74591D01*
X-103346Y75916D01*
X-102696Y77536D01*
X-102190Y79450D01*
X-101829Y81659D01*
X-101612Y84162D01*
X-101540Y86960D01*
X-86540D01*
X-86571Y72235D01*
D02*
G37*
D10*
X130550Y-184900D02*
G03*
X132158Y-184548I0J3850D01*
G01*
X130550Y-174900D02*
G03*
X133824Y-173076I0J3850D01*
G01*
X107222Y-164278D02*
Y-74250D01*
X129900Y-184900D02*
X130550D01*
X123900Y-185000D02*
X129900Y-184900D01*
X132158Y-184548D02*
X140500Y-180750D01*
X143500Y-177000D01*
X129900Y-174900D02*
X130550D01*
X133824Y-173076D02*
X139750Y-163500D01*
X123900Y-175000D02*
X129900Y-174900D01*
X139750Y-163500D02*
X143250Y-159250D01*
X91500Y-180000D02*
X107222Y-164278D01*
X111072Y-70400D02*
X113900D01*
X107222Y-74250D02*
X111072Y-70400D01*
X81100Y-180000D02*
X91500D01*
D12*
X117250Y-201500D02*
Y-199250D01*
X114000Y-204750D02*
X117250Y-201500D01*
Y-199250D02*
X122815Y-193685D01*
Y-190150D02*
X123900D01*
X122815Y-193685D02*
Y-190150D01*
X81100Y-166400D02*
X95000Y-152500D01*
X81100Y-169156D02*
Y-166400D01*
X130000Y-150000D02*
X141650Y-114790D01*
X47500Y-159500D02*
X51000Y-160000D01*
X62500D01*
X122500Y-162500D02*
X123733Y-169104D01*
D13*
X81100Y-204600D02*
X81250Y-204750D01*
X81100Y-190000D02*
Y-185432D01*
Y-204600D02*
Y-190000D01*
X-48000Y-112300D02*
Y-100750D01*
X-55250Y-93500D02*
X-48000Y-100750D01*
X-70750Y-93500D02*
X-55250D01*
X-61609Y-123130D02*
X-52000Y-132738D01*
Y-134700D02*
Y-132738D01*
X-76321Y-123130D02*
X-61609D01*
X-52000Y-134700D02*
X-49000Y-137700D01*
X-80565Y-127374D02*
X-76321Y-123130D01*
X-80565Y-131480D02*
Y-127374D01*
X-92360Y-143275D02*
X-80565Y-131480D01*
X-49000Y-137700D02*
X-48000D01*
X-110000Y-38440D02*
X-108850Y-37290D01*
X-110000Y-92500D02*
Y-38440D01*
X27500Y-159500D02*
X47500D01*
X31250Y-156500D02*
Y-134000D01*
X27500Y-159500D02*
X31250Y-156500D01*
Y-134000D02*
X32500Y-131500D01*
X13000Y-137700D02*
X17000Y-134700D01*
X29250Y-134000D01*
X32500Y-131500D01*
X-112750Y-143500D02*
X-112525Y-143275D01*
X-92360D01*
X-110000Y-92500D02*
X-109000Y-93500D01*
X-83750D01*
X-100725Y-124225D02*
X-92360D01*
X-104000Y-127500D02*
X-100725Y-124225D01*
X-112750Y-127500D02*
X-104000D01*
X-112750Y-108250D02*
X-110000Y-105500D01*
X-112750Y-127500D02*
Y-108250D01*
X-137000Y-129500D02*
X-114750D01*
X-112750Y-127500D01*
D15*
X123900Y-190000D02*
D03*
Y-185000D02*
D03*
Y-180000D02*
D03*
Y-175000D02*
D03*
Y-170000D02*
D03*
X81100Y-190000D02*
D03*
Y-185000D02*
D03*
Y-180000D02*
D03*
Y-175000D02*
D03*
Y-170000D02*
D03*
D16*
X47400Y-47500D02*
D03*
D17*
X113900Y-24600D02*
D03*
Y-70400D02*
D03*
D18*
X-108850Y-37290D02*
D03*
X-40850D02*
D03*
X73650Y-114790D02*
D03*
X141650D02*
D03*
D19*
X-97500Y164000D02*
D03*
Y129500D02*
D03*
D20*
X-122250Y200000D02*
D03*
X-87750D02*
D03*
D21*
X-140000Y-20870D02*
D03*
Y-49130D02*
D03*
D22*
X-150000Y-111300D02*
D03*
Y-81700D02*
D03*
X-205250D02*
D03*
Y-111300D02*
D03*
X-187500Y-20200D02*
D03*
Y-49800D02*
D03*
D23*
X-137000Y-142500D02*
D03*
Y-129500D02*
D03*
X-110000Y-92500D02*
D03*
Y-105500D02*
D03*
X47500Y-172500D02*
D03*
Y-159500D02*
D03*
X32500Y-131500D02*
D03*
Y-118500D02*
D03*
D24*
X-70750Y-93500D02*
D03*
X-83750D02*
D03*
X156500Y-177000D02*
D03*
X143500D02*
D03*
D25*
X143400Y-35000D02*
D03*
X196600D02*
D03*
D26*
X-102415Y47500D02*
D03*
X-192585D02*
D03*
D27*
X-92360Y-143275D02*
D03*
Y-124225D02*
D03*
X-69500Y-133750D02*
D03*
D28*
X13000Y-112300D02*
D03*
Y-137700D02*
D03*
X-48000D02*
D03*
Y-112300D02*
D03*
D29*
X-112750Y-127500D02*
D03*
Y-143500D02*
D03*
X27500Y-159500D02*
D03*
Y-175500D02*
D03*
X81250Y-204750D02*
D03*
Y-220750D02*
D03*
X113250Y-204750D02*
D03*
Y-220750D02*
D03*
D30*
X47500Y77500D02*
D03*
X172500D02*
D03*
D31*
X143250Y-159250D02*
D03*
X159250D02*
D03*
D54*
X-160000Y162500D02*
D03*
D55*
Y127500D02*
D03*
D56*
X-125180Y189737D02*
G03*
X-117439Y170745I33756J2685D01*
G01*
X-125225Y190902D02*
G03*
X-125180Y189737I15000J0D01*
G01*
X-117439Y170745D02*
G03*
X-105908Y165339I11531J9594D01*
G01*
X234637Y-32356D02*
G03*
X235284Y-32211I-2969J14703D01*
G01*
X232505Y-32786D02*
G03*
X230331Y-33399I2969J-14703D01*
G01*
X235284Y-32211D02*
G03*
X250337Y-9263I-4894J19622D01*
G01*
X230331Y-33399D02*
G03*
X219961Y-42905I6332J-17318D01*
G01*
D02*
G03*
X219433Y-44187I13594J-6341D01*
G01*
X249630Y-5022D02*
G03*
X248508Y-1321I-14796J-2467D01*
G01*
D02*
G03*
X240456Y7223I-16436J-7424D01*
G01*
X-105908Y165339D02*
X-100500D01*
X-125225Y197000D02*
X-122250Y200000D01*
X-125225Y190902D02*
Y197000D01*
X-100500Y165339D02*
X-97581Y164375D01*
X-94040Y86960D02*
X-65000Y116000D01*
X-74090Y163840D02*
X-65000Y154750D01*
X-97340Y163840D02*
X-74090D01*
X-65000Y116000D02*
Y154750D01*
X232505Y-32786D02*
X234637Y-32356D01*
X-94040Y55875D02*
Y86960D01*
X-102415Y47500D02*
X-94040Y55875D01*
X-192585Y95165D02*
X-185750Y102000D01*
X-192585Y47500D02*
Y95165D01*
X-185750Y102000D02*
X-185500D01*
X-160000Y127500D01*
X-87750Y200000D02*
X-84750Y197000D01*
X-69500D02*
X-62500Y190000D01*
X-84750Y197000D02*
X-69500D01*
X173521Y-173313D02*
X219433Y-44187D01*
X249630Y-5022D02*
X250337Y-9263D01*
X230000Y12700D02*
X240456Y7223D01*
D57*
X116475Y-204750D02*
X145513D01*
X114000D02*
X116475D01*
X169142Y-184081D02*
X173521Y-173313D01*
X145675Y-204588D02*
X161380Y-193256D01*
X113250Y-204750D02*
X114000D01*
X81250D02*
X113250D01*
X145513D02*
X145675Y-204588D01*
X161380Y-193256D02*
X169142Y-184081D01*
X13000Y-105000D02*
X19000Y-99000D01*
X13000Y-112300D02*
Y-105000D01*
X25550Y-112300D02*
X31750Y-118500D01*
X32500D01*
X13000Y-112300D02*
X25550D01*
D58*
X-230000Y38300D02*
D03*
Y12900D02*
D03*
Y-37900D02*
D03*
Y-12500D02*
D03*
X230000Y-12700D02*
D03*
Y12700D02*
D03*
D59*
X-100000Y-200000D02*
D03*
D60*
X45000Y200000D02*
D03*
D61*
X95000D02*
D03*
D62*
X-2500Y190000D02*
D03*
Y40000D02*
D03*
D63*
X-62500Y190000D02*
D03*
Y40000D02*
D03*
D64*
X-125938Y155987D02*
D03*
X-48500Y155000D02*
D03*
X97250Y-108500D02*
D03*
X118250Y-105500D02*
D03*
Y-133250D02*
D03*
X142000Y-192250D02*
D03*
X107750Y-191750D02*
D03*
X98250Y-185750D02*
D03*
X206750Y-138500D02*
D03*
X220000Y-113500D02*
D03*
X-94000Y-107750D02*
D03*
X-235500Y-94750D02*
D03*
X-178000D02*
D03*
X-137250Y-96500D02*
D03*
X-223250Y-57250D02*
D03*
X-54942Y-83005D02*
D03*
X-70000Y-112629D02*
D03*
X-40000Y-175000D02*
D03*
Y-235000D02*
D03*
X-55000Y215000D02*
D03*
Y95000D02*
D03*
X-70000Y65000D02*
D03*
Y5000D02*
D03*
Y-55000D02*
D03*
Y-175000D02*
D03*
X-55000Y-205000D02*
D03*
X-70000Y-235000D02*
D03*
X-100000Y5000D02*
D03*
X-85000Y-25000D02*
D03*
X-100000Y-235000D02*
D03*
X-130000Y125000D02*
D03*
X-115000Y95000D02*
D03*
X-130000Y65000D02*
D03*
Y5000D02*
D03*
Y-175000D02*
D03*
X-160000Y185000D02*
D03*
X-145000Y155000D02*
D03*
Y95000D02*
D03*
X-160000Y65000D02*
D03*
X-145000Y35000D02*
D03*
X-160000Y5000D02*
D03*
X-175000Y155000D02*
D03*
X-190000Y125000D02*
D03*
X-220000D02*
D03*
Y65000D02*
D03*
X-235000Y95000D02*
D03*
X-250000Y5000D02*
D03*
Y-55000D02*
D03*
X245000Y35000D02*
D03*
X215000D02*
D03*
X200000Y5000D02*
D03*
X215000Y-25000D02*
D03*
X170000Y185000D02*
D03*
Y125000D02*
D03*
X185000Y35000D02*
D03*
X170000Y5000D02*
D03*
Y-55000D02*
D03*
X185000Y-85000D02*
D03*
X170000Y-115000D02*
D03*
X155000Y155000D02*
D03*
X140000Y125000D02*
D03*
X155000Y35000D02*
D03*
X140000Y5000D02*
D03*
X155000Y-145000D02*
D03*
X110000Y185000D02*
D03*
X125000Y155000D02*
D03*
X110000Y125000D02*
D03*
X125000Y95000D02*
D03*
X110000Y65000D02*
D03*
X125000Y35000D02*
D03*
X110000Y5000D02*
D03*
Y-55000D02*
D03*
X125000Y-85000D02*
D03*
X110000Y-175000D02*
D03*
X80000Y185000D02*
D03*
X95000Y155000D02*
D03*
Y95000D02*
D03*
Y35000D02*
D03*
X80000Y5000D02*
D03*
Y-235000D02*
D03*
X50000Y245000D02*
D03*
X65000Y35000D02*
D03*
Y-145000D02*
D03*
Y-205000D02*
D03*
X50000Y-235000D02*
D03*
X20000Y245000D02*
D03*
X35000Y35000D02*
D03*
Y-205000D02*
D03*
X20000Y-235000D02*
D03*
X-10000Y245000D02*
D03*
Y125000D02*
D03*
X5000Y95000D02*
D03*
X-10000Y65000D02*
D03*
X5000Y-25000D02*
D03*
Y-85000D02*
D03*
Y-205000D02*
D03*
X95000Y-152500D02*
D03*
X130000Y-150000D02*
D03*
X62500Y-160000D02*
D03*
X122500Y-162500D02*
D03*
X19250Y98250D02*
D03*
X19000Y-99000D02*
D03*
M02*
