G04*
G04 #@! TF.GenerationSoftware,Altium Limited,Altium Designer,24.6.1 (21)*
G04*
G04 Layer_Color=8388736*
%FSLAX44Y44*%
%MOMM*%
G71*
G04*
G04 #@! TF.SameCoordinates,DCCD09C7-AE2F-4119-A4D7-6B23A12155F5*
G04*
G04*
G04 #@! TF.FilePolarity,Negative*
G04*
G01*
G75*
%ADD28R,3.1750X4.9530*%
%ADD33R,1.2532X1.1032*%
%ADD34R,1.1032X1.2532*%
%ADD35R,2.2032X3.8032*%
G04:AMPARAMS|DCode=36|XSize=1.3032mm|YSize=1.1032mm|CornerRadius=0.2141mm|HoleSize=0mm|Usage=FLASHONLY|Rotation=0.000|XOffset=0mm|YOffset=0mm|HoleType=Round|Shape=RoundedRectangle|*
%AMROUNDEDRECTD36*
21,1,1.3032,0.6750,0,0,0.0*
21,1,0.8750,1.1032,0,0,0.0*
1,1,0.4282,0.4375,-0.3375*
1,1,0.4282,-0.4375,-0.3375*
1,1,0.4282,-0.4375,0.3375*
1,1,0.4282,0.4375,0.3375*
%
%ADD36ROUNDEDRECTD36*%
%ADD37R,1.0032X1.1532*%
%ADD38R,1.1532X1.0032*%
%ADD39R,0.9652X0.9652*%
%ADD40R,2.9732X1.3032*%
G04:AMPARAMS|DCode=41|XSize=1.1732mm|YSize=4.9332mm|CornerRadius=0.2229mm|HoleSize=0mm|Usage=FLASHONLY|Rotation=90.000|XOffset=0mm|YOffset=0mm|HoleType=Round|Shape=RoundedRectangle|*
%AMROUNDEDRECTD41*
21,1,1.1732,4.4875,0,0,90.0*
21,1,0.7275,4.9332,0,0,90.0*
1,1,0.4457,2.2438,0.3638*
1,1,0.4457,2.2438,-0.3638*
1,1,0.4457,-2.2438,-0.3638*
1,1,0.4457,-2.2438,0.3638*
%
%ADD41ROUNDEDRECTD41*%
G04:AMPARAMS|DCode=42|XSize=2.1032mm|YSize=3.5732mm|CornerRadius=0.1681mm|HoleSize=0mm|Usage=FLASHONLY|Rotation=180.000|XOffset=0mm|YOffset=0mm|HoleType=Round|Shape=RoundedRectangle|*
%AMROUNDEDRECTD42*
21,1,2.1032,3.2370,0,0,180.0*
21,1,1.7670,3.5732,0,0,180.0*
1,1,0.3362,-0.8835,1.6185*
1,1,0.3362,0.8835,1.6185*
1,1,0.3362,0.8835,-1.6185*
1,1,0.3362,-0.8835,-1.6185*
%
%ADD42ROUNDEDRECTD42*%
G04:AMPARAMS|DCode=43|XSize=1.6032mm|YSize=0.4832mm|CornerRadius=0.1366mm|HoleSize=0mm|Usage=FLASHONLY|Rotation=180.000|XOffset=0mm|YOffset=0mm|HoleType=Round|Shape=RoundedRectangle|*
%AMROUNDEDRECTD43*
21,1,1.6032,0.2100,0,0,180.0*
21,1,1.3300,0.4832,0,0,180.0*
1,1,0.2732,-0.6650,0.1050*
1,1,0.2732,0.6650,0.1050*
1,1,0.2732,0.6650,-0.1050*
1,1,0.2732,-0.6650,-0.1050*
%
%ADD43ROUNDEDRECTD43*%
%ADD44R,6.7032X2.7032*%
%ADD45R,2.3032X2.4532*%
%ADD46R,3.0332X1.1732*%
%ADD47R,6.2932X5.8332*%
%ADD48R,2.4532X2.3032*%
%ADD49C,2.2032*%
%ADD50C,1.2500*%
%ADD51R,1.2500X1.2500*%
%ADD52C,2.7032*%
%ADD53C,1.3032*%
%ADD54C,5.2032*%
%ADD55R,2.9032X2.9032*%
%ADD56C,2.9032*%
D28*
X-102415Y47500D02*
D03*
X-192585D02*
D03*
D33*
X-112750Y-127500D02*
D03*
Y-143500D02*
D03*
X27500Y-159500D02*
D03*
Y-175500D02*
D03*
X81250Y-204750D02*
D03*
Y-220750D02*
D03*
X113250Y-204750D02*
D03*
Y-220750D02*
D03*
D34*
X143250Y-159250D02*
D03*
X159250D02*
D03*
D35*
X-108850Y-37290D02*
D03*
X-40850D02*
D03*
X141650Y-114790D02*
D03*
X73650D02*
D03*
D36*
X13000Y-112300D02*
D03*
Y-137700D02*
D03*
X-48000D02*
D03*
Y-112300D02*
D03*
D37*
X-83750Y-93500D02*
D03*
X-70750D02*
D03*
X143500Y-177000D02*
D03*
X156500D02*
D03*
D38*
X-110000Y-105500D02*
D03*
Y-92500D02*
D03*
X32500Y-118500D02*
D03*
Y-131500D02*
D03*
X47500Y-159500D02*
D03*
Y-172500D02*
D03*
X-137000Y-129500D02*
D03*
Y-142500D02*
D03*
D39*
X-69500Y-133750D02*
D03*
X-92360Y-124225D02*
D03*
Y-143275D02*
D03*
D40*
X-140000Y-20870D02*
D03*
Y-49130D02*
D03*
D41*
X-187500Y-20200D02*
D03*
Y-49800D02*
D03*
X-150000Y-111300D02*
D03*
Y-81700D02*
D03*
X-205250D02*
D03*
Y-111300D02*
D03*
D42*
X196600Y-35000D02*
D03*
X143400D02*
D03*
D43*
X81100Y-170000D02*
D03*
Y-175000D02*
D03*
Y-180000D02*
D03*
Y-185000D02*
D03*
Y-190000D02*
D03*
X123900Y-170000D02*
D03*
Y-175000D02*
D03*
Y-180000D02*
D03*
Y-185000D02*
D03*
Y-190000D02*
D03*
D44*
X47500Y77500D02*
D03*
X172500D02*
D03*
D45*
X-97500Y164000D02*
D03*
Y129500D02*
D03*
D46*
X113900Y-70400D02*
D03*
Y-24600D02*
D03*
D47*
X47400Y-47500D02*
D03*
D48*
X-122250Y200000D02*
D03*
X-87750D02*
D03*
D49*
X230000Y12700D02*
D03*
Y-12700D02*
D03*
X-230000Y38300D02*
D03*
Y12900D02*
D03*
Y-37900D02*
D03*
Y-12500D02*
D03*
D50*
X-160000Y127500D02*
D03*
D51*
Y162500D02*
D03*
D52*
X-2500Y190000D02*
D03*
Y40000D02*
D03*
D53*
X-62500Y190000D02*
D03*
Y40000D02*
D03*
D54*
X-100000Y-200000D02*
D03*
D55*
X45000Y200000D02*
D03*
D56*
X95000D02*
D03*
M02*
