G04*
G04 #@! TF.GenerationSoftware,Altium Limited,Altium Designer,24.6.1 (21)*
G04*
G04 Layer_Color=8421504*
%FSLAX44Y44*%
%MOMM*%
G71*
G04*
G04 #@! TF.SameCoordinates,6C584CAA-86BC-4625-B7AF-3506A17D6D12*
G04*
G04*
G04 #@! TF.FilePolarity,Positive*
G04*
G01*
G75*
%ADD14R,5.6300X6.0900*%
%ADD15R,0.9700X2.8300*%
G04:AMPARAMS|DCode=16|XSize=1.1mm|YSize=0.9mm|CornerRadius=0.1125mm|HoleSize=0mm|Usage=FLASHONLY|Rotation=180.000|XOffset=0mm|YOffset=0mm|HoleType=Round|Shape=RoundedRectangle|*
%AMROUNDEDRECTD16*
21,1,1.1000,0.6750,0,0,180.0*
21,1,0.8750,0.9000,0,0,180.0*
1,1,0.2250,-0.4375,0.3375*
1,1,0.2250,0.4375,0.3375*
1,1,0.2250,0.4375,-0.3375*
1,1,0.2250,-0.4375,-0.3375*
%
%ADD16ROUNDEDRECTD16*%
%ADD17R,1.0500X0.9000*%
%ADD18R,0.9000X1.0500*%
%ADD19R,1.3000X2.8000*%
%ADD20R,2.1500X3.2500*%
%ADD21R,2.1500X0.9000*%
G04:AMPARAMS|DCode=22|XSize=1.19mm|YSize=0.4mm|CornerRadius=0.05mm|HoleSize=0mm|Usage=FLASHONLY|Rotation=180.000|XOffset=0mm|YOffset=0mm|HoleType=Round|Shape=RoundedRectangle|*
%AMROUNDEDRECTD22*
21,1,1.1900,0.3000,0,0,180.0*
21,1,1.0900,0.4000,0,0,180.0*
1,1,0.1000,-0.5450,0.1500*
1,1,0.1000,0.5450,0.1500*
1,1,0.1000,0.5450,-0.1500*
1,1,0.1000,-0.5450,-0.1500*
%
%ADD22ROUNDEDRECTD22*%
%ADD23R,0.8000X0.9500*%
%ADD24R,0.9500X0.8000*%
%ADD25R,1.7300X1.1100*%
G36*
X-103250Y-229019D02*
X-105700Y-228744D01*
X-110439Y-227381D01*
X-114882Y-225243D01*
X-118904Y-222391D01*
X-122391Y-218904D01*
X-125244Y-214882D01*
X-127382Y-210439D01*
X-128744Y-205700D01*
X-129019Y-203250D01*
X-129019Y-203250D01*
X-118720D01*
X-118416Y-204674D01*
X-117486Y-207433D01*
X-116145Y-210016D01*
X-114426Y-212365D01*
X-112368Y-214424D01*
X-110019Y-216143D01*
X-107436Y-217484D01*
X-104678Y-218415D01*
X-103253Y-218719D01*
X-103253Y-218719D01*
X-103250D01*
X-103250Y-229019D01*
D02*
G37*
G36*
X-129019Y-196750D02*
X-128744Y-194300D01*
X-127382Y-189561D01*
X-125244Y-185118D01*
X-122391Y-181096D01*
X-118904Y-177609D01*
X-114882Y-174757D01*
X-110439Y-172619D01*
X-105700Y-171256D01*
X-103250Y-170981D01*
X-103250D01*
Y-181280D01*
X-104675Y-181584D01*
X-107433Y-182514D01*
X-110016Y-183855D01*
X-112365Y-185574D01*
X-114424Y-187632D01*
X-116144Y-189981D01*
X-117485Y-192564D01*
X-118415Y-195322D01*
X-118719Y-196747D01*
X-118719D01*
Y-196750D01*
X-129019D01*
D02*
G37*
G36*
X-70981Y-203250D02*
X-71256Y-205700D01*
X-72619Y-210439D01*
X-74756Y-214882D01*
X-77609Y-218904D01*
X-81096Y-222391D01*
X-85118Y-225243D01*
X-89561Y-227381D01*
X-94300Y-228744D01*
X-96750Y-229019D01*
Y-229019D01*
Y-218720D01*
X-95326Y-218416D01*
X-92567Y-217486D01*
X-89984Y-216145D01*
X-87635Y-214426D01*
X-85576Y-212368D01*
X-83857Y-210019D01*
X-82516Y-207436D01*
X-81585Y-204678D01*
X-81281Y-203253D01*
Y-203253D01*
Y-203250D01*
X-70981Y-203250D01*
D02*
G37*
G36*
X-96750Y-170981D02*
X-94300Y-171256D01*
X-89561Y-172619D01*
X-85118Y-174757D01*
X-81096Y-177609D01*
X-77609Y-181096D01*
X-74756Y-185118D01*
X-72619Y-189561D01*
X-71256Y-194300D01*
X-70981Y-196750D01*
D01*
X-81280D01*
X-81584Y-195326D01*
X-82514Y-192567D01*
X-83855Y-189984D01*
X-85574Y-187635D01*
X-87632Y-185576D01*
X-89981Y-183857D01*
X-92564Y-182516D01*
X-95322Y-181585D01*
X-96747Y-181281D01*
D01*
X-96750D01*
Y-170981D01*
D02*
G37*
D14*
X-142500Y-25150D02*
D03*
D15*
X-119600Y-91650D02*
D03*
X-165400D02*
D03*
D16*
X14500Y-85200D02*
D03*
Y-59800D02*
D03*
X75500D02*
D03*
Y-85200D02*
D03*
D17*
X165000Y59500D02*
D03*
Y75500D02*
D03*
X-12500Y-96250D02*
D03*
Y-80250D02*
D03*
D18*
X103000Y12500D02*
D03*
X87000D02*
D03*
X158000Y-70000D02*
D03*
X142000D02*
D03*
D19*
X-65500Y-27750D02*
D03*
X-18500D02*
D03*
D20*
X73250Y65000D02*
D03*
D21*
X131750Y88000D02*
D03*
Y42000D02*
D03*
Y65000D02*
D03*
D22*
X140400Y-51500D02*
D03*
Y-38500D02*
D03*
X159600Y-51500D02*
D03*
Y-38500D02*
D03*
Y-45000D02*
D03*
D23*
X156000Y-90000D02*
D03*
X169000D02*
D03*
X-12750Y-115500D02*
D03*
X250D02*
D03*
X-33250Y-139000D02*
D03*
X-20250D02*
D03*
D24*
X107500Y-71500D02*
D03*
Y-58500D02*
D03*
X12500Y-40000D02*
D03*
Y-27000D02*
D03*
X-62500Y-106500D02*
D03*
Y-93500D02*
D03*
D25*
X-33001Y-114049D02*
D03*
Y-79949D02*
D03*
M02*
