G04*
G04 #@! TF.GenerationSoftware,Altium Limited,Altium Designer,24.6.1 (21)*
G04*
G04 Layer_Physical_Order=2*
G04 Layer_Color=16711680*
%FSLAX44Y44*%
%MOMM*%
G71*
G04*
G04 #@! TF.SameCoordinates,01B999D2-5B61-4F55-8381-3FE903677CD8*
G04*
G04*
G04 #@! TF.FilePolarity,Positive*
G04*
G01*
G75*
%ADD38C,3.0000*%
%ADD39R,3.0000X3.0000*%
%ADD40C,1.6000*%
%ADD41P,2.2627X4X295.0*%
%ADD48C,0.4000*%
%ADD51C,6.0000*%
%ADD52C,2.0000*%
%ADD53C,1.8000*%
%ADD54C,3.5000*%
%ADD55C,0.8000*%
G36*
X8961Y264959D02*
X24397Y263985D01*
X39750Y262113D01*
X54968Y259349D01*
X69999Y255702D01*
X84792Y251184D01*
X99296Y245812D01*
X113461Y239603D01*
X127241Y232579D01*
X133914Y228670D01*
X134434Y228377D01*
X135322Y227579D01*
X136017Y226608D01*
X136486Y225511D01*
X136707Y224338D01*
X136671Y223145D01*
X136378Y221988D01*
X135843Y220921D01*
X135467Y220458D01*
X59667Y127168D01*
X58839Y126339D01*
X58262Y125841D01*
X56922Y125125D01*
X55432Y124829D01*
X53920Y124978D01*
X52516Y125559D01*
X51341Y126523D01*
X50497Y127786D01*
X50098Y129102D01*
Y159297D01*
X50098Y159298D01*
X50098Y163622D01*
X50049Y163870D01*
X50073Y164121D01*
X49226Y172729D01*
X49152Y172971D01*
Y173223D01*
X47465Y181706D01*
X47368Y181940D01*
X47344Y182192D01*
X44833Y190468D01*
X44714Y190691D01*
X44665Y190939D01*
X41355Y198930D01*
X41214Y199140D01*
X41141Y199382D01*
X40731Y200148D01*
X40256Y200727D01*
X39840Y201350D01*
X37283Y203907D01*
X35378Y206757D01*
X34067Y209924D01*
X33807Y211229D01*
X33046Y213066D01*
X32001Y214630D01*
X31823Y214809D01*
X31703Y215032D01*
X26216Y221717D01*
X26021Y221878D01*
X25880Y222088D01*
X22822Y225146D01*
X14918Y233050D01*
X14917Y233051D01*
X13666Y234302D01*
X13158Y234642D01*
X12706Y235056D01*
X9680Y236892D01*
X9105Y237102D01*
X8568Y237396D01*
X5192Y238461D01*
X4584Y238527D01*
X3993Y238686D01*
X460Y238918D01*
X-147Y238838D01*
X-759Y238851D01*
X-2502Y238544D01*
X-2604Y238504D01*
X-40879Y246475D01*
X-43073Y247187D01*
X-48203Y248000D01*
X-53397D01*
X-58527Y247187D01*
X-63468Y245582D01*
X-68096Y243224D01*
X-72298Y240171D01*
X-75971Y236498D01*
X-79024Y232296D01*
X-81382Y227668D01*
X-110592Y174151D01*
X-112522Y170364D01*
X-113835Y166322D01*
X-114500Y162125D01*
Y157875D01*
X-113835Y153678D01*
X-112522Y149636D01*
X-110592Y145849D01*
X-108094Y142411D01*
X-105089Y139406D01*
X-101651Y136908D01*
X-97864Y134978D01*
X-96534Y134546D01*
X-88035Y129718D01*
X-87767Y127736D01*
X-123119Y92384D01*
X-123120Y92383D01*
X-124511Y90991D01*
X-124652Y90781D01*
X-124847Y90621D01*
X-127345Y87578D01*
X-127464Y87355D01*
X-127643Y87176D01*
X-129830Y83902D01*
X-129927Y83669D01*
X-130087Y83473D01*
X-131943Y80001D01*
X-132016Y79759D01*
X-132157Y79549D01*
X-133663Y75912D01*
X-133713Y75664D01*
X-133832Y75441D01*
X-134975Y71674D01*
X-134999Y71422D01*
X-135096Y71189D01*
X-135864Y67327D01*
Y67075D01*
X-135938Y66832D01*
X-136323Y62915D01*
X-136299Y62663D01*
X-136348Y62415D01*
Y51191D01*
X-138348Y50037D01*
X-140096Y51046D01*
X-143657Y52000D01*
X-147343D01*
X-150904Y51046D01*
X-154096Y49203D01*
X-156703Y46596D01*
X-158546Y43404D01*
X-159500Y39843D01*
Y36157D01*
X-158546Y32596D01*
X-156815Y29598D01*
X-157239Y28110D01*
X-157451Y27598D01*
X-174638D01*
X-198895Y51855D01*
X-200549Y52960D01*
X-202500Y53348D01*
X-230500D01*
X-231260Y53197D01*
X-232029Y53113D01*
X-232228Y53004D01*
X-232451Y52960D01*
X-232565Y52884D01*
X-234375Y52523D01*
X-237105Y51393D01*
X-239562Y49751D01*
X-241651Y47662D01*
X-243293Y45205D01*
X-244260Y42870D01*
X-244270Y42857D01*
X-244282Y42818D01*
X-244391Y42554D01*
X-244460Y42451D01*
X-244611Y41691D01*
X-244828Y40948D01*
X-244804Y40722D01*
X-244848Y40500D01*
Y40342D01*
X-245000Y39577D01*
Y36623D01*
X-244848Y35858D01*
Y14942D01*
X-245000Y14177D01*
Y11223D01*
X-244848Y10458D01*
Y9250D01*
X-244460Y7299D01*
X-243355Y5645D01*
X-243269Y5560D01*
X-241651Y3138D01*
X-239562Y1049D01*
X-237140Y-569D01*
X-237105Y-605D01*
X-235451Y-1710D01*
X-233500Y-2098D01*
X-232493D01*
X-231477Y-2300D01*
X-228523D01*
X-227507Y-2098D01*
X-218112D01*
X-186855Y-33355D01*
X-185201Y-34460D01*
X-183250Y-34848D01*
X-95753D01*
X-94424Y-36848D01*
X-94750Y-38065D01*
Y-40435D01*
X-94137Y-42724D01*
X-92952Y-44776D01*
X-92858Y-44870D01*
X-92852Y-44942D01*
X-92847Y-45209D01*
X-92810Y-45377D01*
Y-88299D01*
X-92844Y-88440D01*
X-92861Y-88883D01*
X-92952Y-88974D01*
X-94137Y-91026D01*
X-94750Y-93315D01*
Y-95685D01*
X-94137Y-97974D01*
X-92952Y-100026D01*
X-91276Y-101702D01*
X-89224Y-102887D01*
X-86935Y-103500D01*
X-84565D01*
X-83848Y-104050D01*
Y-129722D01*
X-83799Y-129971D01*
X-83823Y-130222D01*
X-83533Y-133173D01*
X-83459Y-133415D01*
Y-133668D01*
X-82881Y-136577D01*
X-82784Y-136810D01*
X-82759Y-137062D01*
X-81898Y-139900D01*
X-81779Y-140123D01*
X-81730Y-140371D01*
X-80595Y-143110D01*
X-80455Y-143321D01*
X-80381Y-143563D01*
X-78983Y-146178D01*
X-78823Y-146373D01*
X-78726Y-146607D01*
X-77079Y-149073D01*
X-76900Y-149251D01*
X-76781Y-149474D01*
X-76250Y-150121D01*
Y-151898D01*
X-75481Y-155762D01*
X-73974Y-159401D01*
X-71785Y-162677D01*
X-68999Y-165463D01*
X-65724Y-167652D01*
X-62084Y-169159D01*
X-58220Y-169928D01*
X-56773D01*
X-51229Y-175472D01*
X-51229Y-175472D01*
X-50163Y-176537D01*
X-49953Y-176678D01*
X-49793Y-176873D01*
X-47464Y-178785D01*
X-47241Y-178904D01*
X-47062Y-179083D01*
X-44557Y-180757D01*
X-44323Y-180853D01*
X-44127Y-181014D01*
X-41470Y-182434D01*
X-41228Y-182508D01*
X-41018Y-182648D01*
X-38234Y-183801D01*
X-37986Y-183850D01*
X-37763Y-183970D01*
X-34880Y-184844D01*
X-34629Y-184869D01*
X-34395Y-184966D01*
X-31440Y-185554D01*
X-31187D01*
X-30945Y-185627D01*
X-27946Y-185922D01*
X-27695Y-185898D01*
X-27447Y-185947D01*
X-25940Y-185947D01*
X28975D01*
X29000Y-186000D01*
X29000Y-186000D01*
X35750Y-186000D01*
X36632Y-186043D01*
X38363Y-186388D01*
X39992Y-187063D01*
X41459Y-188043D01*
X42707Y-189291D01*
X43687Y-190758D01*
X44362Y-192388D01*
X44553Y-193347D01*
Y-252768D01*
X44553Y-253661D01*
X44235Y-255418D01*
X43609Y-257090D01*
X42696Y-258625D01*
X41523Y-259972D01*
X40130Y-261089D01*
X38560Y-261939D01*
X36864Y-262497D01*
X35979Y-262620D01*
X35979Y-262620D01*
X27965Y-263767D01*
X11825Y-265073D01*
X-4364Y-265387D01*
X-20541Y-264706D01*
X-36647Y-263034D01*
X-52620Y-260377D01*
X-68399Y-256745D01*
X-83926Y-252151D01*
X-99142Y-246614D01*
X-113989Y-240153D01*
X-128412Y-232793D01*
X-142356Y-224562D01*
X-155769Y-215491D01*
X-168600Y-205614D01*
X-180800Y-194968D01*
X-192325Y-183594D01*
X-203129Y-171534D01*
X-213174Y-158834D01*
X-222420Y-145541D01*
X-230833Y-131706D01*
X-238381Y-117381D01*
X-245036Y-102620D01*
X-250773Y-87478D01*
X-255570Y-72013D01*
X-259409Y-56282D01*
X-262275Y-40346D01*
X-264158Y-24264D01*
X-265051Y-8096D01*
X-265000Y-0D01*
X-265000Y7733D01*
X-264098Y23174D01*
X-262297Y38535D01*
X-259604Y53766D01*
X-256026Y68814D01*
X-251578Y83627D01*
X-246273Y98155D01*
X-240129Y112350D01*
X-233169Y126162D01*
X-225415Y139545D01*
X-216893Y152453D01*
X-207634Y164841D01*
X-197667Y176669D01*
X-187028Y187896D01*
X-175753Y198483D01*
X-163878Y208394D01*
X-151447Y217596D01*
X-138500Y226057D01*
X-125081Y233749D01*
X-111237Y240646D01*
X-97014Y246723D01*
X-82461Y251961D01*
X-67627Y256340D01*
X-52563Y259848D01*
X-37320Y262471D01*
X-21950Y264200D01*
X-6506Y265031D01*
X8961Y264959D01*
D02*
G37*
G36*
X3659Y233599D02*
X7035Y232534D01*
X10061Y230697D01*
X11313Y229446D01*
X11313Y229446D01*
X19218Y221541D01*
X22276Y218483D01*
X27762Y211798D01*
X28807Y210234D01*
X29165Y208437D01*
X30861Y204342D01*
X33323Y200657D01*
X36235Y197745D01*
X36645Y196979D01*
X39955Y188988D01*
X42465Y180712D01*
X44152Y172229D01*
X45000Y163622D01*
X45000Y159297D01*
X45000D01*
X45000Y159297D01*
Y-98825D01*
X45043Y-100563D01*
X45383Y-104021D01*
X46061Y-107428D01*
X47070Y-110753D01*
X48399Y-113963D01*
X50037Y-117028D01*
X51968Y-119917D01*
X54172Y-122603D01*
X55370Y-123861D01*
X67878Y-136370D01*
X68765Y-137256D01*
X70159Y-139342D01*
X71119Y-141659D01*
X71491Y-143529D01*
X71608Y-145373D01*
Y-145373D01*
X71608D01*
X71608Y-145373D01*
X71608Y-154161D01*
X71608Y-155633D01*
X71034Y-158519D01*
X69908Y-161237D01*
X68550Y-163270D01*
X67232Y-164724D01*
X67232D01*
X67232Y-164724D01*
X56151Y-175806D01*
X54952Y-177005D01*
X52132Y-178889D01*
X48998Y-180187D01*
X45672Y-180849D01*
X43976Y-180849D01*
X-25940D01*
X-27447Y-180849D01*
X-30445Y-180554D01*
X-33400Y-179966D01*
X-36284Y-179091D01*
X-39067Y-177938D01*
X-41724Y-176518D01*
X-44230Y-174844D01*
X-46559Y-172932D01*
X-47624Y-171867D01*
Y-171867D01*
X-69910Y-149581D01*
X-70959Y-148533D01*
X-72840Y-146240D01*
X-74487Y-143775D01*
X-75885Y-141159D01*
X-77020Y-138420D01*
X-77881Y-135582D01*
X-78459Y-132674D01*
X-78750Y-129722D01*
Y-128240D01*
Y-100228D01*
X-78548Y-100026D01*
X-77363Y-97974D01*
X-76750Y-95685D01*
Y-93315D01*
X-77363Y-91026D01*
X-78548Y-88974D01*
X-78642Y-88880D01*
X-78648Y-88808D01*
X-78653Y-88541D01*
X-78690Y-88373D01*
Y-45451D01*
X-78656Y-45310D01*
X-78639Y-44867D01*
X-78548Y-44776D01*
X-77363Y-42724D01*
X-76750Y-40435D01*
Y-38065D01*
X-77363Y-35776D01*
X-78548Y-33724D01*
X-80224Y-32048D01*
X-82276Y-30863D01*
X-83110Y-30640D01*
X-84000Y-29750D01*
X-183250D01*
X-216000Y3000D01*
X-233500D01*
X-239750Y9250D01*
Y40500D01*
X-230500Y48250D01*
X-202500D01*
X-176750Y22500D01*
X-131250D01*
Y60447D01*
Y62415D01*
X-130864Y66333D01*
X-130096Y70194D01*
X-128953Y73961D01*
X-127447Y77598D01*
X-125591Y81070D01*
X-123404Y84344D01*
X-120906Y87387D01*
X-119515Y88778D01*
X-119514Y88779D01*
X-52952Y155341D01*
X-50531Y157816D01*
X-45852Y162919D01*
X-41400Y168221D01*
X-37182Y173711D01*
X-33206Y179379D01*
X-29480Y185215D01*
X-26011Y191207D01*
X-22806Y197343D01*
X-22743Y197475D01*
X-22576Y197704D01*
X-20218Y202332D01*
X-18613Y207272D01*
X-17800Y212403D01*
Y216375D01*
X-17038Y219429D01*
X-15731Y222520D01*
X-13960Y225372D01*
X-11770Y227916D01*
X-9212Y230089D01*
X-6348Y231841D01*
X-3248Y233127D01*
X-1617Y233523D01*
X127Y233830D01*
X3659Y233599D01*
D02*
G37*
G36*
X-83102Y-42278D02*
X-83238Y-42478D01*
X-83358Y-42707D01*
X-83462Y-42964D01*
X-83550Y-43251D01*
X-83622Y-43566D01*
X-83678Y-43910D01*
X-83718Y-44282D01*
X-83750Y-45114D01*
X-87750D01*
X-87758Y-44684D01*
X-87822Y-43910D01*
X-87878Y-43566D01*
X-87950Y-43251D01*
X-88038Y-42964D01*
X-88142Y-42707D01*
X-88262Y-42478D01*
X-88398Y-42278D01*
X-88550Y-42107D01*
X-82950D01*
X-83102Y-42278D01*
D02*
G37*
G36*
X-83742Y-89066D02*
X-83678Y-89840D01*
X-83622Y-90184D01*
X-83550Y-90499D01*
X-83462Y-90786D01*
X-83358Y-91043D01*
X-83238Y-91272D01*
X-83102Y-91472D01*
X-82950Y-91643D01*
X-88550D01*
X-88398Y-91472D01*
X-88262Y-91272D01*
X-88142Y-91043D01*
X-88038Y-90786D01*
X-87950Y-90499D01*
X-87878Y-90184D01*
X-87822Y-89840D01*
X-87782Y-89468D01*
X-87750Y-88636D01*
X-83750D01*
X-83742Y-89066D01*
D02*
G37*
G36*
X155032Y214903D02*
X155933Y214266D01*
X162240Y209676D01*
X174292Y199770D01*
X185742Y189172D01*
X196547Y177919D01*
X206672Y166049D01*
X216082Y153605D01*
X224743Y140629D01*
X232626Y127165D01*
X239703Y113262D01*
X245950Y98966D01*
X251345Y84327D01*
X255870Y69397D01*
X259509Y54226D01*
X262249Y38867D01*
X264081Y23374D01*
X264998Y7799D01*
X264998Y-1D01*
X264998Y-7296D01*
X264195Y-21864D01*
X262593Y-36365D01*
X260195Y-50756D01*
X257009Y-64994D01*
X253045Y-79034D01*
X248314Y-92836D01*
X242831Y-106356D01*
X236612Y-119554D01*
X229677Y-132389D01*
X222046Y-144824D01*
X213743Y-156820D01*
X204792Y-168342D01*
X195221Y-179353D01*
X185058Y-189821D01*
X174336Y-199715D01*
X163085Y-209003D01*
X151340Y-217658D01*
X139136Y-225654D01*
X126512Y-232966D01*
X113504Y-239573D01*
X100152Y-245455D01*
X86497Y-250592D01*
X72580Y-254971D01*
X65512Y-256774D01*
X64694Y-256992D01*
X63001Y-257046D01*
X61341Y-256714D01*
X59799Y-256014D01*
X58456Y-254982D01*
X57383Y-253673D01*
X56634Y-252154D01*
X56250Y-250505D01*
X56250Y-249659D01*
Y-249659D01*
Y-207632D01*
X56250Y-205662D01*
X56636Y-201740D01*
X57405Y-197875D01*
X58549Y-194104D01*
X60057Y-190464D01*
X61914Y-186989D01*
X64103Y-183713D01*
X66603Y-180667D01*
X67996Y-179273D01*
X67997Y-179273D01*
X78024Y-169246D01*
X79368Y-167762D01*
X81591Y-164437D01*
X83122Y-160741D01*
X83902Y-156818D01*
X84000Y-154818D01*
X84000Y-154818D01*
X84000Y-145225D01*
X83899Y-143160D01*
X83093Y-139110D01*
X81513Y-135295D01*
X79219Y-131862D01*
X77831Y-130331D01*
X77831Y-130331D01*
X65993Y-118493D01*
X64837Y-117337D01*
X62764Y-114811D01*
X60948Y-112093D01*
X59407Y-109211D01*
X58157Y-106192D01*
X57208Y-103064D01*
X56570Y-99859D01*
X56250Y-96606D01*
Y-94972D01*
Y-94972D01*
X56250Y87750D01*
X56255Y89595D01*
X56586Y93269D01*
X57233Y96902D01*
X58194Y100464D01*
X59459Y103930D01*
X61020Y107273D01*
X62866Y110467D01*
X64981Y113490D01*
X66166Y114904D01*
X66166Y114904D01*
X148066Y213234D01*
X148771Y214081D01*
X150704Y215145D01*
X152891Y215432D01*
X155032Y214903D01*
D02*
G37*
%LPC*%
G36*
X1970Y80000D02*
X-1970D01*
X-5834Y79231D01*
X-9474Y77724D01*
X-12749Y75535D01*
X-15535Y72749D01*
X-17724Y69474D01*
X-19231Y65834D01*
X-20000Y61970D01*
Y58030D01*
X-19231Y54166D01*
X-17724Y50526D01*
X-15535Y47251D01*
X-12749Y44465D01*
X-9474Y42276D01*
X-5834Y40769D01*
X-1970Y40000D01*
X1970D01*
X5834Y40769D01*
X9474Y42276D01*
X12749Y44465D01*
X15535Y47251D01*
X17724Y50526D01*
X19231Y54166D01*
X20000Y58030D01*
Y61970D01*
X19231Y65834D01*
X17724Y69474D01*
X15535Y72749D01*
X12749Y75535D01*
X9474Y77724D01*
X5834Y79231D01*
X1970Y80000D01*
D02*
G37*
G36*
X-62657Y52000D02*
X-66343D01*
X-69904Y51046D01*
X-73096Y49203D01*
X-75703Y46596D01*
X-77546Y43404D01*
X-78500Y39843D01*
Y36157D01*
X-77546Y32596D01*
X-75703Y29404D01*
X-73096Y26797D01*
X-69904Y24954D01*
X-66343Y24000D01*
X-62657D01*
X-59096Y24954D01*
X-55904Y26797D01*
X-53297Y29404D01*
X-51454Y32596D01*
X-50500Y36157D01*
Y39843D01*
X-51454Y43404D01*
X-53297Y46596D01*
X-55904Y49203D01*
X-59096Y51046D01*
X-62657Y52000D01*
D02*
G37*
%LPD*%
G36*
X4347Y74329D02*
X7059Y73206D01*
X9499Y71575D01*
X11575Y69500D01*
X13206Y67059D01*
X14329Y64347D01*
X14902Y61468D01*
Y58532D01*
X14329Y55653D01*
X13206Y52941D01*
X11575Y50500D01*
X9499Y48425D01*
X7059Y46794D01*
X4347Y45671D01*
X1468Y45098D01*
X-1468D01*
X-4347Y45671D01*
X-7059Y46794D01*
X-9499Y48425D01*
X-11575Y50500D01*
X-13206Y52941D01*
X-14329Y55653D01*
X-14902Y58532D01*
Y61468D01*
X-14329Y64347D01*
X-13206Y67059D01*
X-11575Y69500D01*
X-9499Y71575D01*
X-7059Y73206D01*
X-4347Y74329D01*
X-1468Y74902D01*
X1468D01*
X4347Y74329D01*
D02*
G37*
%LPC*%
G36*
X231646Y25200D02*
X228354D01*
X225175Y24348D01*
X222325Y22703D01*
X219998Y20375D01*
X218352Y17525D01*
X217500Y14346D01*
Y11054D01*
X218352Y7875D01*
X219998Y5025D01*
X222325Y2697D01*
X225175Y1052D01*
X228354Y200D01*
X231646D01*
X234825Y1052D01*
X237675Y2697D01*
X240002Y5025D01*
X241648Y7875D01*
X242500Y11054D01*
Y14346D01*
X241648Y17525D01*
X240002Y20375D01*
X237675Y22703D01*
X234825Y24348D01*
X231646Y25200D01*
D02*
G37*
G36*
X127106Y-32250D02*
X125394D01*
X123741Y-32693D01*
X122259Y-33549D01*
X121137Y-34671D01*
X121065Y-34691D01*
X120941Y-34715D01*
X120724Y-34736D01*
X116426D01*
X114670Y-35085D01*
X113182Y-36080D01*
X108113Y-41148D01*
X108034Y-41212D01*
X107873Y-41328D01*
X107747Y-41407D01*
X107662Y-41452D01*
X107656Y-41455D01*
X107639Y-41456D01*
X107469Y-41500D01*
X106894D01*
X105241Y-41943D01*
X103759Y-42799D01*
X102549Y-44009D01*
X101693Y-45491D01*
X101250Y-47144D01*
Y-48856D01*
X101693Y-50509D01*
X102549Y-51991D01*
X103759Y-53201D01*
X105241Y-54057D01*
X106894Y-54500D01*
X108606D01*
X110259Y-54057D01*
X111741Y-53201D01*
X112951Y-51991D01*
X113807Y-50509D01*
X114250Y-48856D01*
Y-48281D01*
X114294Y-48111D01*
X114295Y-48094D01*
X114298Y-48088D01*
X114343Y-48003D01*
X114422Y-47877D01*
X114520Y-47741D01*
X114644Y-47594D01*
X118327Y-43912D01*
X121646D01*
X122006Y-43948D01*
X122165Y-43976D01*
X122300Y-44007D01*
X122380Y-44031D01*
X122415Y-44054D01*
X122494Y-44087D01*
X123741Y-44807D01*
X125394Y-45250D01*
X127106D01*
X128759Y-44807D01*
X130241Y-43951D01*
X131451Y-42741D01*
X132307Y-41259D01*
X132750Y-39606D01*
Y-37894D01*
X132307Y-36241D01*
X131451Y-34759D01*
X130241Y-33549D01*
X128759Y-32693D01*
X127106Y-32250D01*
D02*
G37*
G36*
X212159Y-79620D02*
X204977Y-99353D01*
X224710Y-106536D01*
X231892Y-86802D01*
X212159Y-79620D01*
D02*
G37*
%LPD*%
G36*
X123825Y-41931D02*
X123651Y-41816D01*
X123449Y-41712D01*
X123217Y-41621D01*
X122957Y-41543D01*
X122668Y-41476D01*
X122350Y-41421D01*
X121627Y-41348D01*
X121222Y-41330D01*
X120788Y-41324D01*
X120113Y-37324D01*
X120542Y-37315D01*
X121309Y-37240D01*
X121646Y-37174D01*
X121952Y-37090D01*
X122228Y-36987D01*
X122472Y-36866D01*
X122686Y-36726D01*
X122869Y-36567D01*
X123021Y-36389D01*
X123825Y-41931D01*
D02*
G37*
G36*
X113311Y-45268D02*
X113012Y-45578D01*
X112510Y-46170D01*
X112306Y-46453D01*
X112134Y-46727D01*
X111994Y-46992D01*
X111886Y-47247D01*
X111809Y-47494D01*
X111763Y-47731D01*
X111750Y-47960D01*
X107790Y-44000D01*
X108019Y-43987D01*
X108256Y-43941D01*
X108503Y-43864D01*
X108758Y-43756D01*
X109023Y-43616D01*
X109297Y-43444D01*
X109580Y-43240D01*
X109872Y-43005D01*
X110482Y-42439D01*
X113311Y-45268D01*
D02*
G37*
D38*
X0Y60000D02*
D03*
X-56250Y-149928D02*
D03*
X56250D02*
D03*
X-50800Y215000D02*
D03*
D39*
X0Y-165000D02*
D03*
D40*
X226985Y-69585D02*
D03*
D41*
X218434Y-93078D02*
D03*
D48*
X-85750Y-94500D02*
Y-39250D01*
X125676Y-39324D02*
X126250Y-38750D01*
X107750Y-48000D02*
X116426Y-39324D01*
X125676D01*
D51*
X-100000Y-200000D02*
D03*
D52*
X-230000Y-12700D02*
D03*
Y-38100D02*
D03*
Y12700D02*
D03*
Y38100D02*
D03*
X230000Y-12700D02*
D03*
Y12700D02*
D03*
D53*
X-64500Y38000D02*
D03*
X-145500D02*
D03*
X-87500Y160000D02*
D03*
X-157500D02*
D03*
D54*
X50800Y215000D02*
D03*
X0D02*
D03*
D55*
X66750Y152250D02*
D03*
X70250Y-208750D02*
D03*
X68000Y-33500D02*
D03*
X69000Y10250D02*
D03*
X160866Y-57724D02*
D03*
X151478Y-57466D02*
D03*
X-85750Y-39250D02*
D03*
Y-94500D02*
D03*
X240000Y60000D02*
D03*
X255000Y30000D02*
D03*
Y-30000D02*
D03*
X240000Y-60000D02*
D03*
X210000Y120000D02*
D03*
X225000Y90000D02*
D03*
X210000Y-0D02*
D03*
X225000Y-30000D02*
D03*
X210000Y-60000D02*
D03*
Y-120000D02*
D03*
X180000Y180000D02*
D03*
X195000Y150000D02*
D03*
X180000Y120000D02*
D03*
X195000Y90000D02*
D03*
X180000Y60000D02*
D03*
X195000Y30000D02*
D03*
X180000Y-0D02*
D03*
X195000Y-30000D02*
D03*
X180000Y-120000D02*
D03*
X195000Y-150000D02*
D03*
X180000Y-180000D02*
D03*
X150000Y180000D02*
D03*
X165000Y150000D02*
D03*
X150000Y120000D02*
D03*
X165000Y30000D02*
D03*
X150000Y-0D02*
D03*
X165000Y-30000D02*
D03*
X150000Y-120000D02*
D03*
X165000Y-150000D02*
D03*
X150000Y-180000D02*
D03*
X135000Y150000D02*
D03*
X120000Y120000D02*
D03*
X135000Y30000D02*
D03*
X120000Y-0D02*
D03*
X135000Y-90000D02*
D03*
X120000Y-120000D02*
D03*
X135000Y-150000D02*
D03*
X120000Y-180000D02*
D03*
X135000Y-210000D02*
D03*
X105000Y150000D02*
D03*
X90000Y120000D02*
D03*
X105000Y90000D02*
D03*
Y30000D02*
D03*
X90000Y-60000D02*
D03*
X105000Y-90000D02*
D03*
X90000Y-120000D02*
D03*
X105000Y-150000D02*
D03*
X90000Y-180000D02*
D03*
X105000Y-210000D02*
D03*
X90000Y-240000D02*
D03*
Y240000D02*
D03*
X105000Y210000D02*
D03*
X90000Y180000D02*
D03*
X60000Y240000D02*
D03*
X75000Y210000D02*
D03*
X60000Y180000D02*
D03*
X30000Y240000D02*
D03*
Y-240000D02*
D03*
X15000Y-210000D02*
D03*
X-0Y-240000D02*
D03*
X-15000Y-210000D02*
D03*
X-30000Y-240000D02*
D03*
X-60000Y-180000D02*
D03*
X-45000Y-210000D02*
D03*
X-60000Y-240000D02*
D03*
X-90000Y240000D02*
D03*
Y-120000D02*
D03*
Y-240000D02*
D03*
X-105000Y210000D02*
D03*
X-120000Y180000D02*
D03*
Y120000D02*
D03*
Y-120000D02*
D03*
X-105000Y-150000D02*
D03*
X-135000Y210000D02*
D03*
X-150000Y180000D02*
D03*
X-135000Y150000D02*
D03*
X-150000Y120000D02*
D03*
X-135000Y90000D02*
D03*
X-150000Y60000D02*
D03*
X-135000Y-90000D02*
D03*
X-150000Y-120000D02*
D03*
X-135000Y-150000D02*
D03*
X-150000Y-180000D02*
D03*
X-135000Y-210000D02*
D03*
X-180000Y180000D02*
D03*
Y120000D02*
D03*
X-165000Y90000D02*
D03*
X-180000Y60000D02*
D03*
Y-60000D02*
D03*
Y-120000D02*
D03*
X-165000Y-150000D02*
D03*
X-180000Y-180000D02*
D03*
X-195000Y150000D02*
D03*
X-210000Y120000D02*
D03*
X-195000Y90000D02*
D03*
X-210000Y60000D02*
D03*
Y-60000D02*
D03*
X-195000Y-90000D02*
D03*
X-210000Y-120000D02*
D03*
X-195000Y-150000D02*
D03*
X-225000Y90000D02*
D03*
X-240000Y60000D02*
D03*
Y-60000D02*
D03*
X-225000Y-90000D02*
D03*
X126250Y-38750D02*
D03*
X107750Y-48000D02*
D03*
M02*
