G04*
G04 #@! TF.GenerationSoftware,Altium Limited,Altium Designer,25.1.2 (22)*
G04*
G04 Layer_Color=8388736*
%FSLAX44Y44*%
%MOMM*%
G71*
G04*
G04 #@! TF.SameCoordinates,B544AF3D-E007-40DE-A55D-0D444B96CDD7*
G04*
G04*
G04 #@! TF.FilePolarity,Negative*
G04*
G01*
G75*
%ADD26R,2.3532X1.1032*%
%ADD27R,2.3532X3.4532*%
%ADD28R,5.8332X6.2932*%
%ADD29R,1.1732X3.0332*%
G04:AMPARAMS|DCode=30|XSize=1.3032mm|YSize=1.1032mm|CornerRadius=0.2141mm|HoleSize=0mm|Usage=FLASHONLY|Rotation=180.000|XOffset=0mm|YOffset=0mm|HoleType=Round|Shape=RoundedRectangle|*
%AMROUNDEDRECTD30*
21,1,1.3032,0.6750,0,0,180.0*
21,1,0.8750,1.1032,0,0,180.0*
1,1,0.4282,-0.4375,0.3375*
1,1,0.4282,0.4375,0.3375*
1,1,0.4282,0.4375,-0.3375*
1,1,0.4282,-0.4375,-0.3375*
%
%ADD30ROUNDEDRECTD30*%
%ADD31R,1.2532X1.1032*%
%ADD32R,1.1032X1.2532*%
%ADD33R,1.5032X3.0032*%
%ADD34R,1.0032X1.1532*%
%ADD35R,1.1532X1.0032*%
%ADD36R,1.9332X1.3132*%
%ADD37C,2.2032*%
%ADD38C,3.0000*%
%ADD39R,3.0000X3.0000*%
%ADD40C,2.0032*%
%ADD41P,2.2627X4X295.0*%
%ADD42C,1.6000*%
%ADD43C,6.2032*%
%ADD44C,3.2032*%
%ADD45C,3.7032*%
G36*
X147350Y-50250D02*
Y-52750D01*
Y-52999D01*
X147160Y-53458D01*
X146808Y-53810D01*
X146349Y-54000D01*
X146100D01*
D01*
X134700D01*
X134451D01*
X133992Y-53810D01*
X133640Y-53458D01*
X133450Y-52999D01*
Y-52750D01*
D01*
Y-50250D01*
Y-50001D01*
X133640Y-49542D01*
X133992Y-49190D01*
X134451Y-49000D01*
X134700D01*
D01*
X146100D01*
X146349D01*
X146808Y-49190D01*
X147160Y-49542D01*
X147350Y-50001D01*
Y-50250D01*
D01*
D02*
G37*
G36*
Y-37250D02*
Y-39750D01*
Y-39999D01*
X147160Y-40458D01*
X146808Y-40810D01*
X146349Y-41000D01*
X146100D01*
D01*
X134700D01*
X134451D01*
X133992Y-40810D01*
X133640Y-40458D01*
X133450Y-39999D01*
Y-39750D01*
D01*
Y-37250D01*
Y-37001D01*
X133640Y-36542D01*
X133992Y-36190D01*
X134451Y-36000D01*
X134700D01*
D01*
X146100D01*
X146349D01*
X146808Y-36190D01*
X147160Y-36542D01*
X147350Y-37001D01*
Y-37250D01*
D01*
D02*
G37*
G36*
X166550Y-50250D02*
Y-52750D01*
Y-52999D01*
X166360Y-53458D01*
X166008Y-53810D01*
X165549Y-54000D01*
X165300D01*
D01*
X153900D01*
X153651D01*
X153192Y-53810D01*
X152840Y-53458D01*
X152650Y-52999D01*
Y-52750D01*
D01*
Y-50250D01*
Y-50001D01*
X152840Y-49542D01*
X153192Y-49190D01*
X153651Y-49000D01*
X153900D01*
D01*
X165300D01*
X165549D01*
X166008Y-49190D01*
X166360Y-49542D01*
X166550Y-50001D01*
Y-50250D01*
D01*
D02*
G37*
G36*
Y-43750D02*
Y-46250D01*
Y-46499D01*
X166360Y-46958D01*
X166008Y-47310D01*
X165549Y-47500D01*
X165300D01*
D01*
X153900D01*
X153651D01*
X153192Y-47310D01*
X152840Y-46958D01*
X152650Y-46499D01*
Y-46250D01*
D01*
Y-43750D01*
Y-43501D01*
X152840Y-43042D01*
X153192Y-42690D01*
X153651Y-42500D01*
X153900D01*
D01*
X165300D01*
X165549D01*
X166008Y-42690D01*
X166360Y-43042D01*
X166550Y-43501D01*
Y-43750D01*
D01*
D02*
G37*
G36*
Y-37250D02*
Y-39750D01*
Y-39999D01*
X166360Y-40458D01*
X166008Y-40810D01*
X165549Y-41000D01*
X165300D01*
D01*
X153900D01*
X153651D01*
X153192Y-40810D01*
X152840Y-40458D01*
X152650Y-39999D01*
Y-39750D01*
D01*
Y-37250D01*
Y-37001D01*
X152840Y-36542D01*
X153192Y-36190D01*
X153651Y-36000D01*
X153900D01*
D01*
X165300D01*
X165549D01*
X166008Y-36190D01*
X166360Y-36542D01*
X166550Y-37001D01*
Y-37250D01*
D01*
D02*
G37*
D26*
X131750Y42000D02*
D03*
Y65000D02*
D03*
Y88000D02*
D03*
D27*
X73250Y65000D02*
D03*
D28*
X-142500Y-25150D02*
D03*
D29*
X-119600Y-91650D02*
D03*
X-165400D02*
D03*
D30*
X14500Y-85200D02*
D03*
Y-59800D02*
D03*
X75500D02*
D03*
Y-85200D02*
D03*
D31*
X165000Y59500D02*
D03*
Y75500D02*
D03*
X-12500Y-96250D02*
D03*
Y-80250D02*
D03*
D32*
X103000Y12500D02*
D03*
X87000D02*
D03*
X158000Y-70000D02*
D03*
X142000D02*
D03*
D33*
X-65500Y-27750D02*
D03*
X-18500D02*
D03*
D34*
X156000Y-90000D02*
D03*
X169000D02*
D03*
X-12750Y-115500D02*
D03*
X250D02*
D03*
X-33250Y-139000D02*
D03*
X-20250D02*
D03*
D35*
X107500Y-71500D02*
D03*
Y-58500D02*
D03*
X12500Y-40000D02*
D03*
Y-27000D02*
D03*
X-62500Y-106500D02*
D03*
Y-93500D02*
D03*
D36*
X-33001Y-114049D02*
D03*
Y-79949D02*
D03*
D37*
X-230000Y-12700D02*
D03*
Y-38100D02*
D03*
Y12700D02*
D03*
Y38100D02*
D03*
X230000Y12700D02*
D03*
Y-12700D02*
D03*
D38*
X-56250Y-149928D02*
D03*
X56250D02*
D03*
X0Y60000D02*
D03*
D39*
Y-165000D02*
D03*
D40*
X-157500Y160000D02*
D03*
X-64500Y38000D02*
D03*
X-145500D02*
D03*
X-87500Y160000D02*
D03*
D41*
X218434Y-93078D02*
D03*
D42*
X226985Y-69585D02*
D03*
D43*
X-100000Y-200000D02*
D03*
D44*
X-50800Y215000D02*
D03*
D45*
X50800D02*
D03*
X0D02*
D03*
M02*
