G04*
G04 #@! TF.GenerationSoftware,Altium Limited,Altium Designer,24.6.1 (21)*
G04*
G04 Layer_Color=65535*
%FSLAX44Y44*%
%MOMM*%
G71*
G04*
G04 #@! TF.SameCoordinates,BA978B15-CB27-4B2F-8DC8-F8FDB2F27EFD*
G04*
G04*
G04 #@! TF.FilePolarity,Positive*
G04*
G01*
G75*
%ADD10C,0.2000*%
%ADD11C,0.2500*%
%ADD12C,0.2540*%
%ADD13C,0.1270*%
D10*
X-32001Y-126999D02*
G03*
X-32001Y-126999I-1000J0D01*
G01*
X80290Y-95360D02*
G03*
X80290Y-95360I-1000J0D01*
G01*
X-183500Y-94100D02*
G03*
X-183500Y-94100I-1000J0D01*
G01*
X172000Y-51500D02*
G03*
X172000Y-51500I-1000J0D01*
G01*
X178105Y-104472D02*
X230656Y-123599D01*
X256163Y-53520D01*
X203612Y-34393D02*
X256163Y-53520D01*
X178105Y-104472D02*
X203612Y-34393D01*
X-39750Y-131500D02*
X-13750D01*
X-39750Y-146500D02*
X-13750D01*
X-39750D02*
Y-131500D01*
X-13750Y-146500D02*
Y-131500D01*
X-19250Y-108000D02*
X6750D01*
X-19250Y-123000D02*
X6750D01*
X-19250D02*
Y-108000D01*
X6750Y-123000D02*
Y-108000D01*
X-19500Y-102250D02*
Y-74250D01*
X-5500Y-102250D02*
Y-74250D01*
X-19500Y-102250D02*
X-5500D01*
X-19500Y-74250D02*
X-5500D01*
X5000Y-46500D02*
Y-20500D01*
X20000Y-46500D02*
Y-20500D01*
X5000Y-46500D02*
X20000D01*
X5000Y-20500D02*
X20000D01*
X172000Y53500D02*
Y81500D01*
X158000Y53500D02*
Y81500D01*
X172000D01*
X158000Y53500D02*
X172000D01*
X81000Y19500D02*
X109000D01*
X81000Y5500D02*
X109000D01*
X81000D02*
Y19500D01*
X109000Y5500D02*
Y19500D01*
X118000Y31500D02*
Y98500D01*
X87000Y31500D02*
Y98500D01*
Y31500D02*
X118000D01*
X87000Y98500D02*
X118000D01*
X-70000Y-87000D02*
X-55000D01*
X-70000Y-113000D02*
X-55000D01*
Y-87000D01*
X-70000Y-113000D02*
Y-87000D01*
X-242700Y30480D02*
X-237620Y25400D01*
X-222380D02*
X-217300Y30480D01*
Y45800D01*
X-222380Y50800D02*
X-217300Y45720D01*
X-237620Y50800D02*
X-222380D01*
X-242700Y45720D02*
X-237620Y50800D01*
Y25400D02*
X-222380D01*
X-242700Y-45720D02*
Y-30480D01*
Y-45720D02*
X-237620Y-50800D01*
X-222380D02*
X-217300Y-45720D01*
Y-30400D01*
X-222380Y-25400D02*
X-217300Y-30480D01*
X-242700D02*
X-237620Y-25400D01*
Y-50800D02*
X-222380D01*
X-242700Y-20320D02*
Y-5080D01*
Y-20320D02*
X-237620Y-25400D01*
X-222380D02*
X-217300Y-20320D01*
Y-5000D01*
X-222380Y0D02*
X-217300Y-5080D01*
X-242700D02*
X-237620Y0D01*
Y-25400D02*
X-222380D01*
Y25400D02*
X-217300Y20320D01*
X-242700D02*
X-237620Y25400D01*
X-242700Y30480D02*
Y45720D01*
Y5080D02*
Y20320D01*
Y5080D02*
X-237620Y0D01*
X-222380D02*
X-217300Y5080D01*
Y20400D01*
X-237620Y0D02*
X-222380D01*
X175500Y-97500D02*
Y-82500D01*
X149500Y-97500D02*
Y-82500D01*
Y-97500D02*
X175500D01*
X149500Y-82500D02*
X175500D01*
X100000Y-78000D02*
Y-52000D01*
X115000Y-78000D02*
Y-52000D01*
X100000Y-78000D02*
X115000D01*
X100000Y-52000D02*
X115000D01*
X136000Y-63000D02*
X164000D01*
X136000Y-77000D02*
X164000D01*
X136000D02*
Y-63000D01*
X164000Y-77000D02*
Y-63000D01*
X217300Y5080D02*
X222380Y0D01*
X237620D02*
X242700Y5080D01*
Y20400D01*
X237620Y25400D02*
X242700Y20320D01*
X222380Y25400D02*
X237620D01*
X217300Y20320D02*
X222380Y25400D01*
Y0D02*
X237620D01*
X242700Y-5080D01*
X217300D02*
X222380Y0D01*
X217300Y5080D02*
Y20320D01*
Y-20320D02*
Y-5080D01*
Y-20320D02*
X222380Y-25400D01*
X237620D02*
X242700Y-20320D01*
Y-5000D01*
X222380Y-25400D02*
X237620D01*
X-80829Y-232002D02*
X-74165Y-241998D01*
Y-232002D02*
X-80829Y-241998D01*
X-70832D02*
Y-232002D01*
X-65834D01*
X-64168Y-233668D01*
Y-237000D01*
X-65834Y-238666D01*
X-70832D01*
X-55837Y-241998D02*
Y-232002D01*
X-60835Y-237000D01*
X-54171D01*
X232837Y-30502D02*
X239502Y-40498D01*
Y-30502D02*
X232837Y-40498D01*
X242834D02*
Y-30502D01*
X247832D01*
X249498Y-32168D01*
Y-35500D01*
X247832Y-37166D01*
X242834D01*
X252831Y-40498D02*
X256163D01*
X254497D01*
Y-30502D01*
X252831Y-32168D01*
X211530Y43473D02*
X218195Y33476D01*
Y43473D02*
X211530Y33476D01*
X221527D02*
Y43473D01*
X226525D01*
X228191Y41807D01*
Y38474D01*
X226525Y36808D01*
X221527D01*
X238188Y33476D02*
X231524D01*
X238188Y40141D01*
Y41807D01*
X236522Y43473D01*
X233190D01*
X231524Y41807D01*
X-243329Y69998D02*
X-236665Y60002D01*
Y69998D02*
X-243329Y60002D01*
X-233332D02*
Y69998D01*
X-228334D01*
X-226668Y68332D01*
Y65000D01*
X-228334Y63334D01*
X-233332D01*
X-223335Y68332D02*
X-221669Y69998D01*
X-218337D01*
X-216671Y68332D01*
Y66666D01*
X-218337Y65000D01*
X-220003D01*
X-218337D01*
X-216671Y63334D01*
Y61668D01*
X-218337Y60002D01*
X-221669D01*
X-223335Y61668D01*
X-206663Y-72502D02*
Y-79166D01*
X-203331Y-82498D01*
X-199998Y-79166D01*
Y-72502D01*
X-190002Y-74168D02*
X-191668Y-72502D01*
X-195000D01*
X-196666Y-74168D01*
Y-75834D01*
X-195000Y-77500D01*
X-191668D01*
X-190002Y-79166D01*
Y-80832D01*
X-191668Y-82498D01*
X-195000D01*
X-196666Y-80832D01*
X-186669Y-82498D02*
X-183337D01*
X-185003D01*
Y-72502D01*
X-186669Y-74168D01*
X-55913Y-56502D02*
Y-63166D01*
X-52581Y-66498D01*
X-49248Y-63166D01*
Y-56502D01*
X-45916D02*
Y-66498D01*
X-40918D01*
X-39252Y-64832D01*
Y-58168D01*
X-40918Y-56502D01*
X-45916D01*
X-35919Y-66498D02*
X-32587D01*
X-34253D01*
Y-56502D01*
X-35919Y-58168D01*
X-156664Y199998D02*
X-150000D01*
X-153332D01*
Y190002D01*
X-146668D02*
X-143336D01*
X-145002D01*
Y199998D01*
X-146668Y198332D01*
X-2331Y-12998D02*
Y-3002D01*
X2668D01*
X4334Y-4668D01*
Y-8000D01*
X2668Y-9666D01*
X-2331D01*
X1002D02*
X4334Y-12998D01*
X12665D02*
Y-3002D01*
X7666Y-8000D01*
X14331D01*
X91669Y-44998D02*
Y-35002D01*
X96668D01*
X98334Y-36668D01*
Y-40000D01*
X96668Y-41666D01*
X91669D01*
X95002D02*
X98334Y-44998D01*
X108331D02*
X101666D01*
X108331Y-38334D01*
Y-36668D01*
X106664Y-35002D01*
X103332D01*
X101666Y-36668D01*
X130836Y-94998D02*
Y-85002D01*
X135834D01*
X137500Y-86668D01*
Y-90000D01*
X135834Y-91666D01*
X130836D01*
X134168D02*
X137500Y-94998D01*
X140832D02*
X144164D01*
X142498D01*
Y-85002D01*
X140832Y-86668D01*
X13919Y-120998D02*
Y-111002D01*
X18918D01*
X20584Y-112668D01*
Y-116000D01*
X18918Y-117666D01*
X13919D01*
X17252D02*
X20584Y-120998D01*
X23916Y-112668D02*
X25582Y-111002D01*
X28914D01*
X30581Y-112668D01*
Y-114334D01*
X28914Y-116000D01*
X27248D01*
X28914D01*
X30581Y-117666D01*
Y-119332D01*
X28914Y-120998D01*
X25582D01*
X23916Y-119332D01*
X-91831Y-112498D02*
Y-102502D01*
X-86832D01*
X-85166Y-104168D01*
Y-107500D01*
X-86832Y-109166D01*
X-91831D01*
X-88498D02*
X-85166Y-112498D01*
X-75169Y-102502D02*
X-78502Y-104168D01*
X-81834Y-107500D01*
Y-110832D01*
X-80168Y-112498D01*
X-76835D01*
X-75169Y-110832D01*
Y-109166D01*
X-76835Y-107500D01*
X-81834D01*
X-36331Y-161498D02*
Y-151502D01*
X-31332D01*
X-29666Y-153168D01*
Y-156500D01*
X-31332Y-158166D01*
X-36331D01*
X-32998D02*
X-29666Y-161498D01*
X-19669Y-151502D02*
X-26334D01*
Y-156500D01*
X-23002Y-154834D01*
X-21335D01*
X-19669Y-156500D01*
Y-159832D01*
X-21335Y-161498D01*
X-24668D01*
X-26334Y-159832D01*
X135837Y-10002D02*
Y-19998D01*
X140836D01*
X142502Y-18332D01*
Y-11668D01*
X140836Y-10002D01*
X135837D01*
X145834D02*
Y-19998D01*
X150832D01*
X152498Y-18332D01*
Y-11668D01*
X150832Y-10002D01*
X145834D01*
X155831Y-19998D02*
X159163D01*
X157497D01*
Y-10002D01*
X155831Y-11668D01*
X31837Y-32502D02*
Y-42498D01*
X36835D01*
X38502Y-40832D01*
Y-34168D01*
X36835Y-32502D01*
X31837D01*
X41834Y-42498D02*
Y-35834D01*
X45166Y-32502D01*
X48498Y-35834D01*
Y-42498D01*
Y-37500D01*
X41834D01*
X51831Y-42498D02*
X55163D01*
X53497D01*
Y-32502D01*
X51831Y-34168D01*
X60835Y104998D02*
Y95002D01*
X65834D01*
X67500Y96668D01*
Y103332D01*
X65834Y104998D01*
X60835D01*
X70832Y95002D02*
X74165D01*
X72498D01*
Y104998D01*
X70832Y103332D01*
X93334Y-4168D02*
X91668Y-2502D01*
X88336D01*
X86669Y-4168D01*
Y-10832D01*
X88336Y-12498D01*
X91668D01*
X93334Y-10832D01*
X103331Y-12498D02*
X96666D01*
X103331Y-5834D01*
Y-4168D01*
X101664Y-2502D01*
X98332D01*
X96666Y-4168D01*
X175834Y-66668D02*
X174168Y-65002D01*
X170835D01*
X169169Y-66668D01*
Y-73332D01*
X170835Y-74998D01*
X174168D01*
X175834Y-73332D01*
X179166Y-66668D02*
X180832Y-65002D01*
X184165D01*
X185831Y-66668D01*
Y-68334D01*
X184165Y-70000D01*
X182498D01*
X184165D01*
X185831Y-71666D01*
Y-73332D01*
X184165Y-74998D01*
X180832D01*
X179166Y-73332D01*
X185000Y70832D02*
X183334Y72498D01*
X180002D01*
X178335Y70832D01*
Y64168D01*
X180002Y62502D01*
X183334D01*
X185000Y64168D01*
X188332Y62502D02*
X191665D01*
X189998D01*
Y72498D01*
X188332Y70832D01*
X-13916Y-58168D02*
X-15582Y-56502D01*
X-18915D01*
X-20581Y-58168D01*
Y-64832D01*
X-18915Y-66498D01*
X-15582D01*
X-13916Y-64832D01*
X-5586Y-66498D02*
Y-56502D01*
X-10584Y-61500D01*
X-3919D01*
X-46666Y5832D02*
X-48332Y7498D01*
X-51665D01*
X-53331Y5832D01*
Y-832D01*
X-51665Y-2498D01*
X-48332D01*
X-46666Y-832D01*
X-36669Y7498D02*
X-40002Y5832D01*
X-43334Y2500D01*
Y-832D01*
X-41668Y-2498D01*
X-38335D01*
X-36669Y-832D01*
Y834D01*
X-38335Y2500D01*
X-43334D01*
D11*
X209424Y-121269D02*
G03*
X209424Y-121269I-1250J0D01*
G01*
X133000Y32000D02*
G03*
X133000Y32000I-1250J0D01*
G01*
D12*
X-246750Y38100D02*
G03*
X-246750Y38100I-1250J0D01*
G01*
X213250Y12700D02*
G03*
X213250Y12700I-1250J0D01*
G01*
X-194000Y18250D02*
Y176000D01*
X-190500Y179500D02*
X-16000D01*
Y18500D02*
Y179500D01*
X-194000Y18250D02*
X-16250D01*
D13*
X-25501Y-105299D02*
Y-88699D01*
X-40501Y-105299D02*
Y-88699D01*
X22000Y-51750D02*
X68000D01*
X22000Y-93250D02*
X68000D01*
X-65000Y-45000D02*
X-20000D01*
X-65000Y-10000D02*
X-20000D01*
X-65000Y-45000D02*
Y-44700D01*
Y-10300D02*
Y-10000D01*
X-20000Y-45000D02*
Y-44700D01*
Y-10300D02*
Y-10000D01*
X-176200Y-71380D02*
X-108800D01*
Y-9170D01*
X-176200Y-71380D02*
Y-9170D01*
X143750Y-56700D02*
X156250D01*
X143750Y-33300D02*
X156250D01*
M02*
