M48
;Layer_Color=9474304
;FILE_FORMAT=4:4
METRIC,LZ
;TYPE=PLATED
T01F00S00C0.4000
T02F00S00C1.0000
T03F00S00C2.0000
T04F00S00C3.7000
%
T01
X-00135Y-0021
X-0009Y-0024
X-0006
X-0003
X-0
X0003
X00015Y-0021
X-00015
X-00045
X0007025Y-0020875
X00105Y-0021
X00135
X0009Y-0024
X00195Y-0015
X0021Y-0012
Y-0006
X0024
X00255Y-0003
X00225
X00195
X0021Y-0
X00195Y0003
X00255
X0024Y0006
X00225Y0009
X00195
X0021Y0012
X00195Y0015
X00165
X00135
X00105
X0006675Y0015225
X0006Y0018
X0009
X0015
X0018
Y0012
X0015
X0012
X0009
X00105Y0009
Y0003
X00135
X00165
X0018Y0006
Y-0
X0015
X0012
X0012625Y-0003875
X0010775Y-00048
X0009Y-0006
X00105Y-0009
X00135
X0015Y-0012
X0018
X00165Y-0015
X00135
X00105
X0012Y-0012
X0009
Y-0018
X0012
X0015
X0018
X00160866Y-00057724
X00151478Y-00057466
X00165Y-0003
X00068Y-000335
X00069Y0001025
X-0008575Y-0003925
Y-000945
X-0009Y-0012
X-0012
X-0015
X-0018
X-00165Y-0015
X-00135
X-00105
X-0006Y-0018
X-0015
X-0018
X-00195Y-0015
Y-0009
X-0018Y-0006
X-00135Y-0009
X-0015Y0006
X-0018
X-00165Y0009
X-00135
X-0012Y0012
X-0015
X-0018
X-00195Y0015
X-0018Y0018
X-0015
X-0012
X-00135Y0015
X-00195Y0009
X-00225
X-0021Y0012
Y0006
X-0024
Y-0006
X-0021
X-00225Y-0009
X-0021Y-0012
X-00135Y0021
X-00105
X-0009Y0024
X0003
X0006
X0009
X00105Y0021
X00075
T02
X00218434Y-00093078
X00226985Y-00069585
X0023Y-000127
Y000127
X-000645Y00038
X-001455
X-001575Y0016
X-000875
X-0023Y000381
Y000127
Y-000127
Y-000381
T03
X-0005625Y-00149928
X0Y-00165
X0005625Y-00149928
X0Y0006
Y00215
X000508
X-000508
T04
X-001Y-002
M30
