G04*
G04 #@! TF.GenerationSoftware,Altium Limited,Altium Designer,24.6.1 (21)*
G04*
G04 Layer_Color=32896*
%FSLAX44Y44*%
%MOMM*%
G71*
G04*
G04 #@! TF.SameCoordinates,6C584CAA-86BC-4625-B7AF-3506A17D6D12*
G04*
G04*
G04 #@! TF.FilePolarity,Positive*
G04*
G01*
G75*
%ADD10C,0.2000*%
%ADD11C,0.2500*%
G36*
X108331Y93990D02*
X108441Y93960D01*
X108560Y93920D01*
X108689Y93841D01*
X108738Y93781D01*
X108788Y93722D01*
X108838Y93643D01*
X108868Y93553D01*
X108888Y93454D01*
X108897Y93335D01*
Y88528D01*
X108888Y88448D01*
X108878Y88359D01*
X108858Y88240D01*
X108828Y88121D01*
X108798Y87982D01*
X108758Y87833D01*
X108709Y87684D01*
X108639Y87525D01*
X108560Y87366D01*
X108470Y87207D01*
X108361Y87048D01*
X108242Y86889D01*
X108103Y86740D01*
X108093Y86730D01*
X108063Y86710D01*
X108024Y86671D01*
X107964Y86621D01*
X107884Y86561D01*
X107795Y86492D01*
X107696Y86422D01*
X107577Y86343D01*
X107437Y86273D01*
X107298Y86204D01*
X107140Y86134D01*
X106981Y86075D01*
X106802Y86025D01*
X106613Y85985D01*
X106415Y85965D01*
X106216Y85956D01*
X98172D01*
X98162D01*
X98122D01*
X98062D01*
X97983Y85965D01*
X97893Y85975D01*
X97784Y85995D01*
X97655Y86025D01*
X97526Y86055D01*
X97377Y86095D01*
X97228Y86144D01*
X97069Y86214D01*
X96910Y86293D01*
X96751Y86383D01*
X96592Y86492D01*
X96433Y86611D01*
X96285Y86750D01*
X96275Y86760D01*
X96255Y86790D01*
X96215Y86830D01*
X96165Y86889D01*
X96106Y86969D01*
X96036Y87058D01*
X95967Y87157D01*
X95897Y87276D01*
X95818Y87416D01*
X95748Y87555D01*
X95679Y87713D01*
X95619Y87872D01*
X95569Y88051D01*
X95530Y88240D01*
X95510Y88438D01*
X95500Y88637D01*
Y93394D01*
X95510Y93434D01*
X95540Y93543D01*
X95579Y93662D01*
X95659Y93791D01*
X95718Y93841D01*
X95778Y93891D01*
X95857Y93940D01*
X95947Y93970D01*
X96046Y93990D01*
X96165Y94000D01*
X108222D01*
X108232D01*
X108252D01*
X108282D01*
X108331Y93990D01*
D02*
G37*
G36*
X105650Y83274D02*
X105700Y83254D01*
X105769Y83234D01*
X105849Y83195D01*
X105928Y83145D01*
X106017Y83075D01*
X108699Y80394D01*
X108709Y80384D01*
X108719Y80374D01*
X108778Y80315D01*
X108838Y80225D01*
X108907Y80126D01*
Y80116D01*
X108917Y80096D01*
X108937Y80066D01*
X108957Y80027D01*
X108987Y79927D01*
X108997Y79798D01*
Y79768D01*
X108987Y79738D01*
X108977Y79689D01*
X108947Y79639D01*
X108917Y79570D01*
X108868Y79500D01*
X108798Y79421D01*
X108788Y79411D01*
X108758Y79391D01*
X108709Y79371D01*
X108649Y79331D01*
X108560Y79302D01*
X108470Y79282D01*
X108361Y79262D01*
X108232Y79252D01*
X96165D01*
X96156D01*
X96116D01*
X96056Y79262D01*
X95987Y79272D01*
X95907Y79302D01*
X95818Y79331D01*
X95738Y79381D01*
X95659Y79450D01*
X95649Y79460D01*
X95639Y79480D01*
X95609Y79520D01*
X95579Y79580D01*
X95550Y79649D01*
X95530Y79729D01*
X95510Y79818D01*
X95500Y79927D01*
Y79967D01*
X95510Y80027D01*
X95520Y80086D01*
X95540Y80156D01*
X95569Y80235D01*
X95609Y80315D01*
X95659Y80394D01*
X95669Y80404D01*
X95689Y80424D01*
X95728Y80454D01*
X95788Y80493D01*
X95857Y80533D01*
X95947Y80563D01*
X96046Y80583D01*
X96165Y80593D01*
X106623D01*
X105074Y82142D01*
X105064Y82152D01*
X105044Y82172D01*
X105014Y82221D01*
X104974Y82271D01*
X104935Y82340D01*
X104905Y82420D01*
X104885Y82509D01*
X104875Y82599D01*
Y82639D01*
X104885Y82688D01*
X104905Y82748D01*
X104925Y82817D01*
X104955Y82897D01*
X105004Y82976D01*
X105074Y83066D01*
X105084Y83075D01*
X105114Y83095D01*
X105153Y83135D01*
X105213Y83175D01*
X105292Y83215D01*
X105372Y83254D01*
X105461Y83274D01*
X105561Y83284D01*
X105570D01*
X105600D01*
X105650Y83274D01*
D02*
G37*
G36*
X196779Y45897D02*
X196849Y45878D01*
X196918Y45858D01*
X197008Y45818D01*
X197087Y45768D01*
X197177Y45699D01*
X197187Y45689D01*
X197206Y45659D01*
X197246Y45619D01*
X197286Y45560D01*
X197326Y45490D01*
X197365Y45411D01*
X197385Y45321D01*
X197395Y45222D01*
Y45212D01*
Y45192D01*
X197385Y45163D01*
Y45113D01*
X197346Y44994D01*
X197316Y44924D01*
X197276Y44855D01*
X193512Y39194D01*
X197276Y33543D01*
X197365Y33344D01*
X197395Y33165D01*
Y33156D01*
Y33126D01*
X197385Y33076D01*
X197365Y33006D01*
X197346Y32937D01*
X197306Y32857D01*
X197256Y32778D01*
X197187Y32699D01*
X197177Y32689D01*
X197147Y32669D01*
X197107Y32639D01*
X197048Y32599D01*
X196968Y32560D01*
X196889Y32530D01*
X196789Y32510D01*
X196680Y32500D01*
X196670D01*
X196630Y32510D01*
X196571Y32520D01*
X196491Y32540D01*
X196412Y32569D01*
X196322Y32629D01*
X196233Y32699D01*
X196144Y32798D01*
X192698Y37982D01*
X189241Y32798D01*
Y32788D01*
X189231Y32778D01*
X189182Y32728D01*
X189102Y32649D01*
X188983Y32560D01*
X188685Y32500D01*
X188645D01*
X188606Y32510D01*
X188546Y32530D01*
X188477Y32550D01*
X188397Y32579D01*
X188318Y32629D01*
X188218Y32699D01*
X188209Y32708D01*
X188189Y32738D01*
X188149Y32778D01*
X188109Y32838D01*
X188069Y32907D01*
X188030Y32987D01*
X188010Y33076D01*
X188000Y33175D01*
Y33185D01*
Y33205D01*
X188010Y33235D01*
Y33285D01*
X188050Y33404D01*
X188069Y33473D01*
X188109Y33543D01*
X191883Y39204D01*
X188089Y44855D01*
X188000Y45053D01*
Y45232D01*
Y45242D01*
Y45272D01*
X188010Y45321D01*
X188030Y45391D01*
X188050Y45461D01*
X188079Y45540D01*
X188129Y45619D01*
X188199Y45699D01*
X188209Y45709D01*
X188238Y45729D01*
X188278Y45768D01*
X188338Y45808D01*
X188417Y45838D01*
X188497Y45878D01*
X188596Y45897D01*
X188705Y45907D01*
X188755D01*
X188814Y45887D01*
X188894Y45868D01*
X188973Y45828D01*
X189063Y45778D01*
X189152Y45699D01*
X189241Y45599D01*
X192698Y40415D01*
X196144Y45619D01*
Y45629D01*
X196164Y45639D01*
X196203Y45699D01*
X196283Y45768D01*
X196382Y45848D01*
X196531Y45907D01*
X196730D01*
X196779Y45897D01*
D02*
G37*
G36*
X213832Y45887D02*
X213941Y45878D01*
X214080Y45868D01*
X214239Y45838D01*
X214408Y45808D01*
X214606Y45768D01*
X214805Y45709D01*
X215023Y45639D01*
X215242Y45560D01*
X215460Y45461D01*
X215689Y45341D01*
X215907Y45202D01*
X216126Y45043D01*
X216334Y44855D01*
X216344Y44845D01*
X216384Y44805D01*
X216434Y44745D01*
X216503Y44666D01*
X216593Y44567D01*
X216682Y44447D01*
X216781Y44308D01*
X216880Y44159D01*
X216980Y43981D01*
X217079Y43792D01*
X217178Y43593D01*
X217258Y43375D01*
X217327Y43137D01*
X217377Y42898D01*
X217417Y42650D01*
X217427Y42382D01*
Y42372D01*
Y42342D01*
Y42302D01*
X217417Y42243D01*
Y42163D01*
X217407Y42074D01*
X217387Y41975D01*
X217377Y41865D01*
X217318Y41617D01*
X217238Y41339D01*
X217139Y41041D01*
X217069Y40892D01*
X216990Y40733D01*
X212660Y33841D01*
X216871D01*
X216920Y33831D01*
X216980Y33811D01*
X217059Y33791D01*
X217139Y33751D01*
X217218Y33702D01*
X217288Y33632D01*
X217298Y33622D01*
X217318Y33592D01*
X217347Y33553D01*
X217387Y33493D01*
X217427Y33424D01*
X217456Y33344D01*
X217476Y33265D01*
X217486Y33165D01*
Y33156D01*
Y33126D01*
X217476Y33086D01*
X217467Y33026D01*
X217447Y32957D01*
X217417Y32877D01*
X217377Y32798D01*
X217318Y32719D01*
X217308Y32708D01*
X217288Y32689D01*
X217248Y32649D01*
X217188Y32609D01*
X217119Y32569D01*
X217039Y32530D01*
X216940Y32510D01*
X216821Y32500D01*
X211388D01*
X211349Y32510D01*
X211229Y32530D01*
X211100Y32569D01*
X210961Y32629D01*
X210842Y32719D01*
X210802Y32778D01*
X210763Y32857D01*
X210743Y32937D01*
X210733Y33026D01*
Y33036D01*
Y33066D01*
X210743Y33116D01*
X210753Y33175D01*
X210773Y33245D01*
X210802Y33334D01*
X210842Y33433D01*
X210892Y33533D01*
X215828Y41409D01*
Y41418D01*
X215838Y41428D01*
X215848Y41458D01*
X215868Y41498D01*
X215907Y41597D01*
X215957Y41736D01*
X216007Y41885D01*
X216046Y42054D01*
X216076Y42243D01*
X216086Y42421D01*
Y42431D01*
Y42461D01*
Y42501D01*
X216076Y42561D01*
X216066Y42640D01*
X216046Y42729D01*
X216026Y42819D01*
X216007Y42928D01*
X215917Y43156D01*
X215868Y43285D01*
X215798Y43415D01*
X215728Y43534D01*
X215629Y43663D01*
X215530Y43792D01*
X215411Y43911D01*
X215401Y43921D01*
X215351Y43961D01*
X215292Y44011D01*
X215202Y44080D01*
X215093Y44159D01*
X214964Y44239D01*
X214825Y44308D01*
X214676Y44378D01*
X214656Y44388D01*
X214606Y44408D01*
X214517Y44437D01*
X214408Y44467D01*
X214269Y44497D01*
X214120Y44527D01*
X213951Y44547D01*
X213772Y44557D01*
X213683D01*
X213583Y44547D01*
X213464Y44527D01*
X213315Y44487D01*
X213146Y44447D01*
X212978Y44378D01*
X212799Y44289D01*
X212789D01*
X212779Y44279D01*
X212719Y44239D01*
X212630Y44169D01*
X212521Y44080D01*
X212402Y43971D01*
X212272Y43832D01*
X212143Y43683D01*
X212024Y43514D01*
Y43504D01*
X212014Y43494D01*
X211964Y43444D01*
X211885Y43365D01*
X211766Y43276D01*
X211468Y43216D01*
X211428D01*
X211378Y43226D01*
X211309Y43236D01*
X211239Y43256D01*
X211160Y43295D01*
X211071Y43335D01*
X210991Y43395D01*
X210981Y43405D01*
X210961Y43425D01*
X210922Y43474D01*
X210882Y43524D01*
X210842Y43593D01*
X210802Y43673D01*
X210783Y43762D01*
X210773Y43861D01*
Y43871D01*
Y43891D01*
X210783Y43921D01*
X210793Y43961D01*
X210802Y44020D01*
X210822Y44080D01*
X210852Y44159D01*
X210892Y44249D01*
X210902Y44259D01*
X210912Y44279D01*
X210942Y44318D01*
X210971Y44368D01*
X211021Y44428D01*
X211081Y44497D01*
X211220Y44666D01*
X211398Y44845D01*
X211607Y45043D01*
X211855Y45242D01*
X212133Y45421D01*
X212153Y45431D01*
X212203Y45461D01*
X212272Y45500D01*
X212372Y45550D01*
X212491Y45599D01*
X212620Y45659D01*
X212908Y45768D01*
X212928Y45778D01*
X212978Y45788D01*
X213057Y45808D01*
X213156Y45838D01*
X213275Y45858D01*
X213405Y45878D01*
X213544Y45887D01*
X213683Y45897D01*
X213752D01*
X213832Y45887D01*
D02*
G37*
G36*
X205618D02*
X205708Y45878D01*
X205827Y45858D01*
X205946Y45828D01*
X206085Y45798D01*
X206234Y45758D01*
X206383Y45709D01*
X206542Y45639D01*
X206701Y45570D01*
X206860Y45480D01*
X207019Y45371D01*
X207178Y45252D01*
X207327Y45113D01*
X207336Y45103D01*
X207356Y45073D01*
X207396Y45033D01*
X207446Y44974D01*
X207505Y44894D01*
X207575Y44805D01*
X207644Y44706D01*
X207724Y44587D01*
X207793Y44447D01*
X207863Y44308D01*
X207932Y44149D01*
X207992Y43981D01*
X208042Y43802D01*
X208081Y43613D01*
X208101Y43425D01*
X208111Y43216D01*
Y40535D01*
Y40525D01*
Y40485D01*
Y40425D01*
X208101Y40346D01*
X208091Y40256D01*
X208071Y40147D01*
X208042Y40018D01*
X208012Y39889D01*
X207972Y39740D01*
X207922Y39591D01*
X207853Y39432D01*
X207773Y39273D01*
X207684Y39114D01*
X207575Y38955D01*
X207456Y38797D01*
X207317Y38647D01*
X207307Y38638D01*
X207277Y38618D01*
X207237Y38578D01*
X207178Y38528D01*
X207098Y38469D01*
X207009Y38399D01*
X206909Y38330D01*
X206790Y38260D01*
X206651Y38181D01*
X206512Y38111D01*
X206353Y38042D01*
X206194Y37982D01*
X206016Y37933D01*
X205827Y37893D01*
X205628Y37873D01*
X205430Y37863D01*
X201407D01*
Y33165D01*
Y33156D01*
Y33116D01*
X201397Y33056D01*
X201388Y32987D01*
X201358Y32907D01*
X201328Y32818D01*
X201278Y32738D01*
X201209Y32659D01*
X201199Y32649D01*
X201179Y32639D01*
X201139Y32609D01*
X201080Y32579D01*
X201010Y32550D01*
X200931Y32530D01*
X200841Y32510D01*
X200732Y32500D01*
X200692D01*
X200633Y32510D01*
X200573Y32520D01*
X200504Y32540D01*
X200424Y32569D01*
X200345Y32609D01*
X200265Y32659D01*
X200255Y32669D01*
X200236Y32689D01*
X200206Y32728D01*
X200166Y32788D01*
X200126Y32857D01*
X200096Y32947D01*
X200077Y33046D01*
X200067Y33165D01*
Y45222D01*
Y45232D01*
Y45252D01*
Y45282D01*
X200077Y45331D01*
X200106Y45441D01*
X200146Y45560D01*
X200226Y45689D01*
X200285Y45739D01*
X200345Y45788D01*
X200424Y45838D01*
X200514Y45868D01*
X200613Y45887D01*
X200732Y45897D01*
X205539D01*
X205618Y45887D01*
D02*
G37*
G36*
X-263221Y71297D02*
X-263151Y71278D01*
X-263082Y71258D01*
X-262992Y71218D01*
X-262913Y71168D01*
X-262823Y71099D01*
X-262813Y71089D01*
X-262794Y71059D01*
X-262754Y71019D01*
X-262714Y70960D01*
X-262674Y70890D01*
X-262635Y70811D01*
X-262615Y70721D01*
X-262605Y70622D01*
Y70612D01*
Y70592D01*
X-262615Y70563D01*
Y70513D01*
X-262654Y70394D01*
X-262684Y70324D01*
X-262724Y70255D01*
X-266488Y64594D01*
X-262724Y58943D01*
X-262635Y58744D01*
X-262605Y58565D01*
Y58555D01*
Y58526D01*
X-262615Y58476D01*
X-262635Y58407D01*
X-262654Y58337D01*
X-262694Y58257D01*
X-262744Y58178D01*
X-262813Y58099D01*
X-262823Y58089D01*
X-262853Y58069D01*
X-262893Y58039D01*
X-262952Y57999D01*
X-263032Y57960D01*
X-263111Y57930D01*
X-263211Y57910D01*
X-263320Y57900D01*
X-263330D01*
X-263370Y57910D01*
X-263429Y57920D01*
X-263509Y57940D01*
X-263588Y57969D01*
X-263678Y58029D01*
X-263767Y58099D01*
X-263856Y58198D01*
X-267302Y63382D01*
X-270759Y58198D01*
Y58188D01*
X-270769Y58178D01*
X-270818Y58128D01*
X-270898Y58049D01*
X-271017Y57960D01*
X-271315Y57900D01*
X-271354D01*
X-271394Y57910D01*
X-271454Y57930D01*
X-271523Y57950D01*
X-271603Y57979D01*
X-271682Y58029D01*
X-271782Y58099D01*
X-271791Y58109D01*
X-271811Y58138D01*
X-271851Y58178D01*
X-271891Y58238D01*
X-271931Y58307D01*
X-271970Y58387D01*
X-271990Y58476D01*
X-272000Y58575D01*
Y58585D01*
Y58605D01*
X-271990Y58635D01*
Y58685D01*
X-271950Y58804D01*
X-271931Y58873D01*
X-271891Y58943D01*
X-268117Y64604D01*
X-271911Y70255D01*
X-272000Y70453D01*
Y70632D01*
Y70642D01*
Y70672D01*
X-271990Y70721D01*
X-271970Y70791D01*
X-271950Y70861D01*
X-271921Y70940D01*
X-271871Y71019D01*
X-271801Y71099D01*
X-271791Y71109D01*
X-271762Y71129D01*
X-271722Y71168D01*
X-271662Y71208D01*
X-271583Y71238D01*
X-271503Y71278D01*
X-271404Y71297D01*
X-271295Y71307D01*
X-271245D01*
X-271186Y71287D01*
X-271106Y71268D01*
X-271027Y71228D01*
X-270937Y71178D01*
X-270848Y71099D01*
X-270759Y70999D01*
X-267302Y65815D01*
X-263856Y71019D01*
Y71029D01*
X-263836Y71039D01*
X-263797Y71099D01*
X-263717Y71168D01*
X-263618Y71248D01*
X-263469Y71307D01*
X-263270D01*
X-263221Y71297D01*
D02*
G37*
G36*
X-245781Y71268D02*
X-245672Y71258D01*
X-245533Y71248D01*
X-245384Y71228D01*
X-245215Y71188D01*
X-245026Y71149D01*
X-244828Y71099D01*
X-244629Y71029D01*
X-244421Y70950D01*
X-244212Y70851D01*
X-244003Y70731D01*
X-243795Y70592D01*
X-243596Y70433D01*
X-243417Y70255D01*
X-243407Y70245D01*
X-243378Y70215D01*
X-243338Y70155D01*
X-243288Y70086D01*
X-243219Y69987D01*
X-243149Y69877D01*
X-243070Y69748D01*
X-242990Y69609D01*
X-242921Y69440D01*
X-242841Y69271D01*
X-242772Y69083D01*
X-242702Y68874D01*
X-242653Y68666D01*
X-242613Y68437D01*
X-242583Y68199D01*
X-242573Y67951D01*
Y67941D01*
Y67911D01*
Y67871D01*
X-242583Y67811D01*
Y67742D01*
X-242593Y67653D01*
X-242603Y67563D01*
X-242613Y67454D01*
X-242653Y67226D01*
X-242712Y66977D01*
X-242792Y66709D01*
X-242901Y66451D01*
Y66441D01*
X-242911Y66421D01*
X-242931Y66381D01*
X-242961Y66342D01*
X-242990Y66282D01*
X-243040Y66213D01*
X-243139Y66044D01*
X-243278Y65855D01*
X-243447Y65647D01*
X-243646Y65438D01*
X-243884Y65229D01*
X-243874D01*
X-243854Y65209D01*
X-243834Y65190D01*
X-243795Y65150D01*
X-243686Y65051D01*
X-243556Y64921D01*
X-243417Y64763D01*
X-243258Y64564D01*
X-243109Y64335D01*
X-242961Y64087D01*
Y64077D01*
X-242941Y64057D01*
X-242921Y64018D01*
X-242901Y63968D01*
X-242871Y63899D01*
X-242841Y63819D01*
X-242802Y63730D01*
X-242772Y63630D01*
X-242702Y63412D01*
X-242633Y63154D01*
X-242593Y62876D01*
X-242573Y62578D01*
Y61247D01*
Y61227D01*
Y61187D01*
X-242583Y61118D01*
X-242593Y61018D01*
X-242603Y60899D01*
X-242623Y60760D01*
X-242653Y60611D01*
X-242692Y60442D01*
X-242752Y60254D01*
X-242812Y60065D01*
X-242891Y59876D01*
X-242990Y59668D01*
X-243109Y59469D01*
X-243239Y59271D01*
X-243388Y59072D01*
X-243566Y58883D01*
X-243576Y58873D01*
X-243606Y58843D01*
X-243666Y58794D01*
X-243745Y58734D01*
X-243834Y58655D01*
X-243954Y58575D01*
X-244083Y58486D01*
X-244232Y58397D01*
X-244391Y58297D01*
X-244579Y58208D01*
X-244768Y58128D01*
X-244977Y58059D01*
X-245195Y57989D01*
X-245434Y57940D01*
X-245672Y57910D01*
X-245930Y57900D01*
X-248661D01*
X-248721Y57910D01*
X-248790Y57920D01*
X-248870Y57940D01*
X-248949Y57979D01*
X-249029Y58019D01*
X-249108Y58079D01*
X-249118Y58089D01*
X-249138Y58119D01*
X-249158Y58158D01*
X-249188Y58218D01*
X-249227Y58297D01*
X-249247Y58377D01*
X-249267Y58466D01*
X-249277Y58565D01*
Y58575D01*
Y58605D01*
X-249267Y58645D01*
X-249257Y58704D01*
X-249237Y58774D01*
X-249207Y58853D01*
X-249168Y58933D01*
X-249118Y59012D01*
X-249108Y59022D01*
X-249088Y59052D01*
X-249049Y59082D01*
X-248989Y59131D01*
X-248919Y59171D01*
X-248830Y59201D01*
X-248731Y59231D01*
X-248612Y59241D01*
X-245851D01*
X-245791Y59251D01*
X-245721Y59261D01*
X-245632Y59271D01*
X-245543Y59290D01*
X-245443Y59310D01*
X-245215Y59380D01*
X-245096Y59429D01*
X-244977Y59489D01*
X-244858Y59559D01*
X-244738Y59638D01*
X-244619Y59727D01*
X-244510Y59827D01*
X-244500Y59837D01*
X-244480Y59857D01*
X-244450Y59886D01*
X-244421Y59936D01*
X-244371Y59986D01*
X-244321Y60055D01*
X-244272Y60135D01*
X-244212Y60224D01*
X-244103Y60433D01*
X-244003Y60671D01*
X-243974Y60810D01*
X-243944Y60949D01*
X-243924Y61098D01*
X-243914Y61247D01*
Y62578D01*
Y62588D01*
Y62617D01*
Y62657D01*
X-243924Y62717D01*
X-243934Y62786D01*
X-243944Y62866D01*
X-243964Y62965D01*
X-243983Y63064D01*
X-244053Y63283D01*
X-244103Y63402D01*
X-244162Y63521D01*
X-244232Y63650D01*
X-244301Y63769D01*
X-244401Y63889D01*
X-244500Y63998D01*
X-244510Y64008D01*
X-244530Y64028D01*
X-244559Y64057D01*
X-244599Y64087D01*
X-244659Y64137D01*
X-244728Y64187D01*
X-244808Y64236D01*
X-244897Y64296D01*
X-244996Y64355D01*
X-245106Y64405D01*
X-245344Y64504D01*
X-245483Y64534D01*
X-245622Y64564D01*
X-245771Y64584D01*
X-245930Y64594D01*
X-247320D01*
X-247380Y64604D01*
X-247450Y64614D01*
X-247529Y64633D01*
X-247609Y64673D01*
X-247688Y64713D01*
X-247767Y64773D01*
X-247777Y64782D01*
X-247797Y64812D01*
X-247827Y64852D01*
X-247857Y64912D01*
X-247887Y64991D01*
X-247916Y65071D01*
X-247936Y65160D01*
X-247946Y65259D01*
Y65269D01*
Y65299D01*
X-247936Y65339D01*
X-247926Y65398D01*
X-247906Y65468D01*
X-247877Y65547D01*
X-247837Y65627D01*
X-247777Y65706D01*
X-247767Y65716D01*
X-247747Y65746D01*
X-247708Y65776D01*
X-247648Y65825D01*
X-247579Y65865D01*
X-247489Y65895D01*
X-247390Y65925D01*
X-247271Y65935D01*
X-245841D01*
X-245781Y65944D01*
X-245702Y65954D01*
X-245612Y65964D01*
X-245523Y65984D01*
X-245414Y66014D01*
X-245185Y66093D01*
X-245056Y66143D01*
X-244937Y66203D01*
X-244818Y66272D01*
X-244699Y66361D01*
X-244579Y66461D01*
X-244470Y66570D01*
X-244460Y66580D01*
X-244450Y66600D01*
X-244421Y66630D01*
X-244391Y66669D01*
X-244351Y66729D01*
X-244311Y66799D01*
X-244272Y66878D01*
X-244222Y66957D01*
X-244132Y67166D01*
X-244053Y67404D01*
X-243993Y67673D01*
X-243983Y67821D01*
X-243974Y67970D01*
Y67980D01*
Y68010D01*
Y68050D01*
X-243983Y68109D01*
Y68179D01*
X-243993Y68258D01*
X-244033Y68447D01*
X-244093Y68656D01*
X-244172Y68884D01*
X-244291Y69113D01*
X-244371Y69222D01*
X-244450Y69321D01*
X-244460Y69331D01*
X-244470Y69351D01*
X-244510Y69381D01*
X-244550Y69420D01*
X-244599Y69460D01*
X-244669Y69520D01*
X-244748Y69569D01*
X-244838Y69629D01*
X-244937Y69689D01*
X-245046Y69738D01*
X-245165Y69798D01*
X-245304Y69837D01*
X-245443Y69877D01*
X-245592Y69907D01*
X-245761Y69927D01*
X-245930Y69937D01*
X-248661D01*
X-248721Y69947D01*
X-248790Y69957D01*
X-248870Y69987D01*
X-248949Y70016D01*
X-249029Y70066D01*
X-249108Y70125D01*
X-249118Y70135D01*
X-249138Y70165D01*
X-249158Y70205D01*
X-249188Y70265D01*
X-249227Y70334D01*
X-249247Y70413D01*
X-249267Y70503D01*
X-249277Y70602D01*
Y70612D01*
Y70642D01*
X-249267Y70692D01*
X-249257Y70751D01*
X-249237Y70821D01*
X-249207Y70900D01*
X-249168Y70980D01*
X-249108Y71059D01*
X-249098Y71069D01*
X-249078Y71089D01*
X-249039Y71129D01*
X-248979Y71168D01*
X-248909Y71208D01*
X-248820Y71248D01*
X-248721Y71268D01*
X-248612Y71278D01*
X-245861D01*
X-245781Y71268D01*
D02*
G37*
G36*
X-254382Y71287D02*
X-254292Y71278D01*
X-254173Y71258D01*
X-254054Y71228D01*
X-253915Y71198D01*
X-253766Y71158D01*
X-253617Y71109D01*
X-253458Y71039D01*
X-253299Y70970D01*
X-253140Y70880D01*
X-252981Y70771D01*
X-252822Y70652D01*
X-252673Y70513D01*
X-252664Y70503D01*
X-252644Y70473D01*
X-252604Y70433D01*
X-252554Y70374D01*
X-252495Y70294D01*
X-252425Y70205D01*
X-252356Y70106D01*
X-252276Y69987D01*
X-252207Y69847D01*
X-252137Y69708D01*
X-252068Y69549D01*
X-252008Y69381D01*
X-251958Y69202D01*
X-251919Y69013D01*
X-251899Y68825D01*
X-251889Y68616D01*
Y65935D01*
Y65925D01*
Y65885D01*
Y65825D01*
X-251899Y65746D01*
X-251909Y65656D01*
X-251929Y65547D01*
X-251958Y65418D01*
X-251988Y65289D01*
X-252028Y65140D01*
X-252078Y64991D01*
X-252147Y64832D01*
X-252227Y64673D01*
X-252316Y64514D01*
X-252425Y64355D01*
X-252544Y64197D01*
X-252683Y64047D01*
X-252693Y64038D01*
X-252723Y64018D01*
X-252763Y63978D01*
X-252822Y63928D01*
X-252902Y63869D01*
X-252991Y63799D01*
X-253091Y63730D01*
X-253210Y63660D01*
X-253349Y63581D01*
X-253488Y63511D01*
X-253647Y63442D01*
X-253806Y63382D01*
X-253984Y63333D01*
X-254173Y63293D01*
X-254372Y63273D01*
X-254570Y63263D01*
X-258593D01*
Y58565D01*
Y58555D01*
Y58516D01*
X-258603Y58456D01*
X-258612Y58387D01*
X-258642Y58307D01*
X-258672Y58218D01*
X-258722Y58138D01*
X-258791Y58059D01*
X-258801Y58049D01*
X-258821Y58039D01*
X-258861Y58009D01*
X-258920Y57979D01*
X-258990Y57950D01*
X-259069Y57930D01*
X-259159Y57910D01*
X-259268Y57900D01*
X-259308D01*
X-259367Y57910D01*
X-259427Y57920D01*
X-259496Y57940D01*
X-259576Y57969D01*
X-259655Y58009D01*
X-259735Y58059D01*
X-259745Y58069D01*
X-259764Y58089D01*
X-259794Y58128D01*
X-259834Y58188D01*
X-259874Y58257D01*
X-259904Y58347D01*
X-259923Y58446D01*
X-259933Y58565D01*
Y70622D01*
Y70632D01*
Y70652D01*
Y70682D01*
X-259923Y70731D01*
X-259894Y70841D01*
X-259854Y70960D01*
X-259774Y71089D01*
X-259715Y71139D01*
X-259655Y71188D01*
X-259576Y71238D01*
X-259486Y71268D01*
X-259387Y71287D01*
X-259268Y71297D01*
X-254461D01*
X-254382Y71287D01*
D02*
G37*
%LPC*%
G36*
X107557Y92659D02*
X96841D01*
Y88587D01*
X96851Y88548D01*
X96861Y88438D01*
X96890Y88309D01*
X96930Y88170D01*
X97000Y88011D01*
X97089Y87852D01*
X97208Y87694D01*
X97228Y87674D01*
X97278Y87634D01*
X97357Y87564D01*
X97466Y87495D01*
X97605Y87425D01*
X97774Y87356D01*
X97963Y87316D01*
X98172Y87296D01*
X106216D01*
X106226D01*
X106246D01*
X106266D01*
X106305Y87306D01*
X106415Y87316D01*
X106544Y87346D01*
X106693Y87386D01*
X106852Y87455D01*
X107010Y87555D01*
X107160Y87684D01*
X107179Y87704D01*
X107219Y87753D01*
X107289Y87833D01*
X107358Y87942D01*
X107428Y88081D01*
X107497Y88240D01*
X107537Y88428D01*
X107557Y88637D01*
Y92659D01*
D02*
G37*
G36*
X205430Y44557D02*
X201407D01*
Y39204D01*
X205479D01*
X205519Y39214D01*
X205628Y39223D01*
X205757Y39253D01*
X205896Y39293D01*
X206055Y39363D01*
X206214Y39452D01*
X206373Y39571D01*
X206393Y39591D01*
X206433Y39641D01*
X206502Y39720D01*
X206572Y39829D01*
X206641Y39968D01*
X206711Y40137D01*
X206751Y40326D01*
X206770Y40535D01*
Y43216D01*
Y43226D01*
Y43246D01*
Y43276D01*
X206760Y43315D01*
X206751Y43415D01*
X206721Y43544D01*
X206681Y43703D01*
X206611Y43861D01*
X206512Y44020D01*
X206383Y44169D01*
X206363Y44189D01*
X206313Y44229D01*
X206234Y44289D01*
X206125Y44368D01*
X205986Y44437D01*
X205827Y44497D01*
X205638Y44537D01*
X205430Y44557D01*
D02*
G37*
G36*
X-254570Y69957D02*
X-258593D01*
Y64604D01*
X-254521D01*
X-254481Y64614D01*
X-254372Y64623D01*
X-254243Y64653D01*
X-254104Y64693D01*
X-253945Y64763D01*
X-253786Y64852D01*
X-253627Y64971D01*
X-253607Y64991D01*
X-253567Y65041D01*
X-253498Y65120D01*
X-253428Y65229D01*
X-253359Y65368D01*
X-253289Y65537D01*
X-253249Y65726D01*
X-253230Y65935D01*
Y68616D01*
Y68626D01*
Y68646D01*
Y68676D01*
X-253240Y68715D01*
X-253249Y68815D01*
X-253279Y68944D01*
X-253319Y69103D01*
X-253389Y69261D01*
X-253488Y69420D01*
X-253617Y69569D01*
X-253637Y69589D01*
X-253687Y69629D01*
X-253766Y69689D01*
X-253875Y69768D01*
X-254014Y69837D01*
X-254173Y69897D01*
X-254362Y69937D01*
X-254570Y69957D01*
D02*
G37*
%LPD*%
D10*
X217300Y-20320D02*
Y-5080D01*
Y5080D02*
X222380Y0D01*
X217300Y-20320D02*
X222380Y-25400D01*
X217300Y-5080D02*
X222380Y0D01*
X217300Y5080D02*
Y20320D01*
X222380Y25400D01*
Y-25400D02*
X237620D01*
Y0D02*
X242700Y5080D01*
X237620Y-25400D02*
X242700Y-20320D01*
X237620Y0D02*
X242700Y-5080D01*
Y-20320D02*
Y-5000D01*
X222380Y0D02*
X237620D01*
X222380Y25400D02*
X237620D01*
X242700Y5080D02*
Y20400D01*
X237620Y25400D02*
X242700Y20320D01*
X-242700Y-20320D02*
Y-5080D01*
Y-45720D02*
Y-30480D01*
Y5080D02*
X-237620Y0D01*
X-242700Y-5080D02*
X-237620Y0D01*
X-242700Y-45720D02*
X-237620Y-50800D01*
X-242700Y-30480D02*
X-237620Y-25400D01*
X-242700Y-20320D02*
X-237620Y-25400D01*
X-242700Y5080D02*
Y20320D01*
Y30480D02*
Y45720D01*
X-237620Y50800D01*
X-242700Y20320D02*
X-237620Y25400D01*
X-242700Y30480D02*
X-237620Y25400D01*
Y-50800D02*
X-222380D01*
X-237620Y-25400D02*
X-222380D01*
Y0D02*
X-217300Y-5080D01*
X-222380Y-50800D02*
X-217300Y-45720D01*
Y-30400D01*
X-222380Y-25400D02*
X-217300Y-20320D01*
Y-5000D01*
X-222380Y-25400D02*
X-217300Y-30480D01*
X-237620Y25400D02*
X-222380D01*
X-237620Y0D02*
X-222380D01*
X-237620Y50800D02*
X-222380D01*
X-217300Y45720D01*
X-222380Y0D02*
X-217300Y5080D01*
Y20400D01*
X-222380Y25400D02*
X-217300Y30480D01*
X-222380Y25400D02*
X-217300Y20320D01*
Y30480D02*
Y45800D01*
D11*
X84000Y31500D02*
Y98500D01*
Y31500D02*
X121000D01*
X84000Y98500D02*
X121000D01*
Y31500D02*
Y98500D01*
M02*
