G04*
G04 #@! TF.GenerationSoftware,Altium Limited,Altium Designer,24.6.1 (21)*
G04*
G04 Layer_Physical_Order=1*
G04 Layer_Color=255*
%FSLAX44Y44*%
%MOMM*%
G71*
G04*
G04 #@! TF.SameCoordinates,6C584CAA-86BC-4625-B7AF-3506A17D6D12*
G04*
G04*
G04 #@! TF.FilePolarity,Positive*
G04*
G01*
G75*
%ADD14R,5.6300X6.0900*%
%ADD15R,0.9700X2.8300*%
G04:AMPARAMS|DCode=16|XSize=1.1mm|YSize=0.9mm|CornerRadius=0.1125mm|HoleSize=0mm|Usage=FLASHONLY|Rotation=180.000|XOffset=0mm|YOffset=0mm|HoleType=Round|Shape=RoundedRectangle|*
%AMROUNDEDRECTD16*
21,1,1.1000,0.6750,0,0,180.0*
21,1,0.8750,0.9000,0,0,180.0*
1,1,0.2250,-0.4375,0.3375*
1,1,0.2250,0.4375,0.3375*
1,1,0.2250,0.4375,-0.3375*
1,1,0.2250,-0.4375,-0.3375*
%
%ADD16ROUNDEDRECTD16*%
%ADD17R,1.0500X0.9000*%
%ADD18R,0.9000X1.0500*%
%ADD19R,1.3000X2.8000*%
%ADD20R,2.1500X3.2500*%
%ADD21R,2.1500X0.9000*%
G04:AMPARAMS|DCode=22|XSize=1.19mm|YSize=0.4mm|CornerRadius=0.05mm|HoleSize=0mm|Usage=FLASHONLY|Rotation=180.000|XOffset=0mm|YOffset=0mm|HoleType=Round|Shape=RoundedRectangle|*
%AMROUNDEDRECTD22*
21,1,1.1900,0.3000,0,0,180.0*
21,1,1.0900,0.4000,0,0,180.0*
1,1,0.1000,-0.5450,0.1500*
1,1,0.1000,0.5450,0.1500*
1,1,0.1000,0.5450,-0.1500*
1,1,0.1000,-0.5450,-0.1500*
%
%ADD22ROUNDEDRECTD22*%
%ADD23R,0.8000X0.9500*%
%ADD24R,0.9500X0.8000*%
%ADD25R,1.7300X1.1100*%
%ADD37C,3.0000*%
%ADD38R,3.0000X3.0000*%
%ADD40P,2.2627X4X295.0*%
%ADD41C,1.6000*%
%ADD46C,1.8000*%
%ADD47C,0.4000*%
%ADD48C,0.5000*%
%ADD49C,1.5000*%
%ADD50C,1.8000*%
%ADD51C,2.0000*%
%ADD52C,6.0000*%
%ADD53C,3.5000*%
%ADD54C,0.8000*%
G36*
X9002Y264952D02*
X24440Y263975D01*
X39794Y262100D01*
X55012Y259333D01*
X70044Y255682D01*
X84837Y251161D01*
X99341Y245786D01*
X113507Y239573D01*
X127286Y232545D01*
X133959Y228635D01*
Y228635D01*
X135390Y227461D01*
X136023Y226553D01*
X136478Y225455D01*
X136689Y224286D01*
X136645Y223099D01*
X136373Y222040D01*
X135441Y220429D01*
X135439Y220427D01*
X135439D01*
X135439Y220426D01*
X53898Y120067D01*
X52828Y118638D01*
X50874Y115650D01*
X49182Y112507D01*
X47764Y109230D01*
X46630Y105845D01*
X45789Y102376D01*
X45246Y98847D01*
X45010Y95352D01*
X45006Y95285D01*
X45000Y93500D01*
X45000Y93500D01*
Y-84000D01*
X44875Y-133474D01*
X43501Y-134393D01*
X40715Y-137179D01*
X38526Y-140454D01*
X37019Y-144094D01*
X36250Y-147958D01*
Y-151898D01*
X37019Y-155762D01*
X38526Y-159401D01*
X40715Y-162677D01*
X43501Y-165463D01*
X44792Y-166326D01*
X44574Y-252811D01*
X44572Y-253698D01*
X44254Y-255442D01*
X43631Y-257102D01*
X42723Y-258626D01*
X41560Y-259964D01*
X40178Y-261075D01*
X38621Y-261924D01*
X36939Y-262482D01*
X28045Y-263758D01*
X11904Y-265069D01*
X-4288Y-265387D01*
X-20470Y-264711D01*
X-36578Y-263043D01*
X-52555Y-260390D01*
X-68338Y-256761D01*
X-83869Y-252170D01*
X-99088Y-246635D01*
X-113940Y-240176D01*
X-128367Y-232818D01*
X-142315Y-224588D01*
X-155732Y-215518D01*
X-168566Y-205641D01*
X-180771Y-194995D01*
X-192299Y-183621D01*
X-203107Y-171560D01*
X-213155Y-158859D01*
X-222405Y-145565D01*
X-230821Y-131728D01*
X-238372Y-117401D01*
X-245029Y-102638D01*
X-250768Y-87493D01*
X-255566Y-72026D01*
X-259406Y-56293D01*
X-262274Y-40353D01*
X-264158Y-24268D01*
X-265051Y-8098D01*
X-265000Y-0D01*
Y7734D01*
X-264098Y23176D01*
X-262297Y38539D01*
X-259602Y53771D01*
X-256024Y68819D01*
X-251575Y83634D01*
X-246269Y98164D01*
X-240124Y112359D01*
X-233163Y126172D01*
X-225407Y139556D01*
X-216884Y152464D01*
X-207623Y164853D01*
X-197654Y176681D01*
X-187013Y187908D01*
X-175736Y198495D01*
X-163860Y208406D01*
X-151426Y217607D01*
X-138477Y226068D01*
X-125056Y233759D01*
X-111210Y240655D01*
X-96985Y246731D01*
X-82430Y251967D01*
X-67594Y256345D01*
X-52528Y259850D01*
X-37283Y262471D01*
X-21912Y264198D01*
X-6466Y265026D01*
X9002Y264952D01*
D02*
G37*
G36*
X155036Y214902D02*
X155936Y214264D01*
X155936Y214264D01*
X162243Y209674D01*
X174295Y199767D01*
X185744Y189170D01*
X196549Y177916D01*
X206674Y166047D01*
X216083Y153603D01*
X224744Y140627D01*
X232627Y127164D01*
X239704Y113260D01*
X245951Y98965D01*
X251346Y84326D01*
X255870Y69396D01*
X259509Y54225D01*
X262249Y38867D01*
X264081Y23373D01*
X264998Y7800D01*
X264998Y-1D01*
X264998D01*
X264998Y-7298D01*
X264195Y-21869D01*
X262592Y-36374D01*
X260193Y-50769D01*
X257005Y-65010D01*
X253039Y-79054D01*
X248305Y-92859D01*
X242819Y-106382D01*
X236598Y-119583D01*
X229659Y-132421D01*
X222024Y-144858D01*
X213717Y-156856D01*
X204761Y-168379D01*
X195186Y-179392D01*
X185018Y-189861D01*
X174290Y-199754D01*
X163034Y-209042D01*
X151284Y-217697D01*
X139075Y-225692D01*
X126445Y-233003D01*
X113432Y-239608D01*
X100075Y-245486D01*
X86414Y-250621D01*
X72492Y-254996D01*
X65421Y-256798D01*
X64607Y-257005D01*
X62926Y-257042D01*
X61281Y-256699D01*
X59755Y-255993D01*
X58428Y-254962D01*
X57368Y-253657D01*
X56629Y-252148D01*
X56250Y-250510D01*
X56250Y-249670D01*
Y-207571D01*
Y-205608D01*
X56635Y-201701D01*
X57401Y-197850D01*
X58540Y-194093D01*
X60043Y-190466D01*
X61894Y-187004D01*
X64075Y-183739D01*
X66565Y-180705D01*
X67953Y-179317D01*
X67954Y-179316D01*
X77804Y-169466D01*
X79198Y-167928D01*
X81502Y-164480D01*
X83089Y-160648D01*
X83898Y-156581D01*
X84000Y-154508D01*
X84000Y-154507D01*
X84000Y-145371D01*
X83897Y-143272D01*
X83078Y-139154D01*
X81471Y-135275D01*
X79138Y-131785D01*
X77727Y-130228D01*
X77727Y-130227D01*
Y-130227D01*
X64423Y-116923D01*
X62450Y-114519D01*
X60722Y-111932D01*
X59255Y-109189D01*
X58065Y-106315D01*
X57162Y-103338D01*
X56555Y-100287D01*
X56250Y-97192D01*
Y-95636D01*
Y87750D01*
X56255Y89595D01*
X56586Y93269D01*
X57234Y96901D01*
X58194Y100464D01*
X59459Y103929D01*
X61021Y107272D01*
X62866Y110467D01*
X64981Y113490D01*
X66166Y114904D01*
X66166Y114904D01*
X148068Y213237D01*
X148774Y214084D01*
X150707Y215148D01*
X152895Y215434D01*
X155036Y214902D01*
D02*
G37*
%LPC*%
G36*
X-48203Y248000D02*
X-53397D01*
X-58527Y247187D01*
X-63468Y245582D01*
X-68096Y243224D01*
X-72298Y240171D01*
X-75971Y236498D01*
X-79024Y232296D01*
X-110592Y174151D01*
X-112522Y170364D01*
X-113835Y166322D01*
X-114500Y162125D01*
Y157875D01*
X-113835Y153678D01*
X-112522Y149636D01*
X-110592Y145849D01*
X-108094Y142411D01*
X-105089Y139406D01*
X-101651Y136908D01*
X-97864Y134978D01*
X-93822Y133665D01*
X-89625Y133000D01*
X-85375D01*
X-81178Y133665D01*
X-77136Y134978D01*
X-73349Y136908D01*
X-69911Y139406D01*
X-66906Y142411D01*
X-33158Y184182D01*
X-31247Y186389D01*
X-26994Y190383D01*
X-22234Y193758D01*
X-17057Y196450D01*
X-14343Y197523D01*
X-10658Y195061D01*
X-6563Y193365D01*
X-2216Y192500D01*
X2216D01*
X6563Y193365D01*
X10658Y195061D01*
X14343Y197523D01*
X17477Y200657D01*
X19939Y204342D01*
X21635Y208437D01*
X22500Y212784D01*
Y217216D01*
X21635Y221563D01*
X19939Y225658D01*
X17477Y229343D01*
X14343Y232477D01*
X10658Y234939D01*
X6563Y236635D01*
X2216Y237500D01*
X-2216D01*
X-6563Y236635D01*
X-10658Y234939D01*
X-12363Y233800D01*
X-33408Y243154D01*
X-33504Y243224D01*
X-38132Y245582D01*
X-43073Y247187D01*
X-48203Y248000D01*
D02*
G37*
G36*
X-228523Y53100D02*
X-231477D01*
X-234375Y52523D01*
X-237105Y51393D01*
X-239562Y49751D01*
X-241651Y47662D01*
X-243293Y45205D01*
X-244424Y42475D01*
X-245000Y39577D01*
Y36623D01*
X-244424Y33725D01*
X-243293Y30995D01*
X-241651Y28538D01*
X-239746Y26633D01*
X-239489Y25716D01*
Y25084D01*
X-239746Y24167D01*
X-241651Y22262D01*
X-243293Y19805D01*
X-244424Y17075D01*
X-245000Y14177D01*
Y11223D01*
X-244424Y8325D01*
X-243293Y5595D01*
X-241651Y3138D01*
X-239562Y1049D01*
X-237105Y-593D01*
X-234375Y-1724D01*
X-231477Y-2300D01*
X-228523D01*
X-225625Y-1724D01*
X-222895Y-593D01*
X-220438Y1049D01*
X-218349Y3138D01*
X-216707Y5595D01*
X-215576Y8325D01*
X-215000Y11223D01*
Y14177D01*
X-215576Y17075D01*
X-216707Y19805D01*
X-218349Y22262D01*
X-220254Y24167D01*
X-220511Y25084D01*
Y25716D01*
X-220254Y26633D01*
X-218349Y28538D01*
X-216707Y30995D01*
X-215576Y33725D01*
X-215000Y36623D01*
Y39577D01*
X-215576Y42475D01*
X-216707Y45205D01*
X-218349Y47662D01*
X-220438Y49751D01*
X-222895Y51393D01*
X-225625Y52523D01*
X-228523Y53100D01*
D02*
G37*
G36*
X-64500Y52121D02*
X-65418Y52000D01*
X-66343D01*
X-67237Y51760D01*
X-68155Y51640D01*
X-69010Y51285D01*
X-69904Y51046D01*
X-70705Y50583D01*
X-71560Y50229D01*
X-72295Y49665D01*
X-73096Y49203D01*
X-73751Y48548D01*
X-74485Y47985D01*
X-75048Y47251D01*
X-75703Y46596D01*
X-76165Y45795D01*
X-76729Y45060D01*
X-77083Y44205D01*
X-77546Y43404D01*
X-77785Y42510D01*
X-78140Y41655D01*
X-78260Y40737D01*
X-78500Y39843D01*
Y38918D01*
X-78621Y38000D01*
X-78621Y-14042D01*
X-78604Y-14173D01*
X-78632Y-14308D01*
X-79187Y-21546D01*
X-79187Y-21547D01*
X-79580Y-26671D01*
X-79388Y-30190D01*
X-79391Y-30228D01*
X-79721Y-30591D01*
X-81092Y-31547D01*
X-82276Y-30863D01*
X-84565Y-30250D01*
X-86935D01*
X-89224Y-30863D01*
X-91276Y-32048D01*
X-92952Y-33724D01*
X-94137Y-35776D01*
X-94750Y-38065D01*
Y-40435D01*
X-94137Y-42724D01*
X-92952Y-44776D01*
X-91276Y-46452D01*
X-89224Y-47637D01*
X-86935Y-48250D01*
X-84565D01*
X-82276Y-47637D01*
X-80224Y-46452D01*
X-80130Y-46358D01*
X-80058Y-46352D01*
X-79791Y-46347D01*
X-79623Y-46310D01*
X-77000D01*
Y-46750D01*
X-72324D01*
X-71993Y-46817D01*
X-71908Y-46801D01*
X-71822Y-46815D01*
X-71537Y-46750D01*
X-54000D01*
Y-35896D01*
X-53846Y-35724D01*
X-52179Y-32436D01*
X-51420Y-28829D01*
X-51028Y-23704D01*
Y-23704D01*
X-51028Y-23704D01*
X-50473Y-16466D01*
X-50523Y-15556D01*
X-50440Y-14500D01*
X-50379Y-14042D01*
X-50379Y38000D01*
X-50500Y38918D01*
Y39843D01*
X-50740Y40737D01*
X-50860Y41655D01*
X-51215Y42510D01*
X-51454Y43404D01*
X-51917Y44205D01*
X-52271Y45060D01*
X-52835Y45795D01*
X-53297Y46596D01*
X-53952Y47251D01*
X-54515Y47985D01*
X-55249Y48548D01*
X-55904Y49203D01*
X-56705Y49665D01*
X-57440Y50229D01*
X-58295Y50583D01*
X-59096Y51046D01*
X-59990Y51285D01*
X-60845Y51640D01*
X-61763Y51761D01*
X-62657Y52000D01*
X-63582D01*
X-64500Y52121D01*
D02*
G37*
G36*
X22250Y-31000D02*
X2750D01*
Y-49000D01*
X4195D01*
X5815Y-50831D01*
X5764Y-51404D01*
X5228Y-52126D01*
X4534Y-52190D01*
X3905Y-52203D01*
X3759Y-52235D01*
X-78050D01*
X-78050Y-52235D01*
X-79029Y-52364D01*
X-80008Y-52493D01*
X-81832Y-53249D01*
X-83399Y-54451D01*
X-103383Y-74435D01*
X-109529D01*
X-109675Y-74403D01*
X-109750Y-74402D01*
Y-72500D01*
X-114431D01*
X-114764Y-72432D01*
X-115107Y-72500D01*
X-115456Y-72477D01*
X-115522Y-72500D01*
X-129450D01*
Y-110800D01*
X-109750D01*
Y-89599D01*
X-109647Y-89596D01*
X-109508Y-89565D01*
X-100250D01*
X-98292Y-89307D01*
X-96468Y-88551D01*
X-94901Y-87349D01*
X-74917Y-67365D01*
X3759D01*
X3905Y-67397D01*
X4600Y-67411D01*
X5095Y-67444D01*
X5485Y-67491D01*
X5665Y-67525D01*
X5709Y-67591D01*
X6543Y-68148D01*
X6881Y-68432D01*
X7046Y-68484D01*
X7735Y-68945D01*
X10125Y-69420D01*
X18875D01*
X21265Y-68945D01*
X23291Y-67591D01*
X24645Y-65565D01*
X25120Y-63175D01*
Y-56425D01*
X24645Y-54035D01*
X23291Y-52009D01*
X22135Y-51237D01*
X22118Y-51029D01*
X22117Y-51000D01*
X22250Y-49000D01*
X22250D01*
Y-44309D01*
X22318Y-43969D01*
X22272Y-43742D01*
X22297Y-43511D01*
X22250Y-43352D01*
Y-31000D01*
D02*
G37*
G36*
X-145500Y52121D02*
X-146418Y52000D01*
X-147343D01*
X-148237Y51760D01*
X-149155Y51640D01*
X-150010Y51285D01*
X-150904Y51046D01*
X-151705Y50583D01*
X-152560Y50229D01*
X-153295Y49665D01*
X-154096Y49203D01*
X-154751Y48548D01*
X-155485Y47985D01*
X-156048Y47251D01*
X-156703Y46596D01*
X-157165Y45795D01*
X-157729Y45060D01*
X-158083Y44205D01*
X-158546Y43404D01*
X-158785Y42510D01*
X-159140Y41655D01*
X-159260Y40737D01*
X-159500Y39843D01*
Y38918D01*
X-159621Y38000D01*
Y22618D01*
X-159682Y20285D01*
X-159921Y17571D01*
X-160298Y15307D01*
X-160780Y13512D01*
X-161315Y12203D01*
X-161826Y11365D01*
X-162241Y10918D01*
X-162561Y10704D01*
X-162922Y10576D01*
X-164035Y10459D01*
X-164546Y10300D01*
X-175650D01*
Y-60600D01*
X-109350D01*
Y10300D01*
X-126454D01*
X-126965Y10459D01*
X-128078Y10576D01*
X-128439Y10704D01*
X-128760Y10918D01*
X-129174Y11365D01*
X-129685Y12203D01*
X-130220Y13512D01*
X-130702Y15307D01*
X-131079Y17571D01*
X-131318Y20285D01*
X-131379Y22618D01*
Y38000D01*
X-131500Y38918D01*
Y39843D01*
X-131740Y40737D01*
X-131860Y41655D01*
X-132215Y42510D01*
X-132454Y43404D01*
X-132917Y44205D01*
X-133271Y45060D01*
X-133834Y45795D01*
X-134297Y46596D01*
X-134952Y47251D01*
X-135515Y47985D01*
X-136249Y48548D01*
X-136904Y49203D01*
X-137705Y49665D01*
X-138440Y50229D01*
X-139295Y50583D01*
X-140096Y51046D01*
X-140990Y51285D01*
X-141845Y51640D01*
X-142763Y51760D01*
X-143657Y52000D01*
X-144582D01*
X-145500Y52121D01*
D02*
G37*
G36*
X18875Y-75580D02*
X10125D01*
X7735Y-76055D01*
X5709Y-77409D01*
X4355Y-79435D01*
X3880Y-81825D01*
Y-88575D01*
X4355Y-90965D01*
X4649Y-91403D01*
X-402Y-96454D01*
X-2250Y-95689D01*
Y-86750D01*
X-22750D01*
Y-103499D01*
X-46651D01*
Y-124599D01*
X-25126D01*
X-24994Y-124738D01*
X-24314Y-126002D01*
X-24266Y-126191D01*
X-24236Y-126580D01*
X-25301Y-127968D01*
X-25832Y-129250D01*
X-42250D01*
Y-132041D01*
X-43765Y-133254D01*
X-44250Y-133420D01*
X-45325Y-132945D01*
X-46631Y-132278D01*
X-50046Y-130252D01*
X-51344Y-129354D01*
X-52462Y-128481D01*
X-53350Y-127683D01*
X-54012Y-126980D01*
X-54455Y-126401D01*
X-54703Y-125976D01*
X-54805Y-125723D01*
X-54926Y-125153D01*
X-54930Y-125145D01*
X-55077Y-124152D01*
X-55404Y-117500D01*
X-53799Y-115500D01*
X-52750D01*
Y-102500D01*
Y-84500D01*
X-72250D01*
Y-86940D01*
X-79980D01*
X-80153Y-86903D01*
X-80502Y-86897D01*
X-80677Y-86889D01*
X-80989Y-86856D01*
X-82276Y-86113D01*
X-84565Y-85500D01*
X-86935D01*
X-89224Y-86113D01*
X-91276Y-87298D01*
X-92952Y-88974D01*
X-94137Y-91026D01*
X-94750Y-93315D01*
Y-95685D01*
X-94137Y-97974D01*
X-92952Y-100026D01*
X-91276Y-101702D01*
X-89224Y-102887D01*
X-86935Y-103500D01*
X-84565D01*
X-82276Y-102887D01*
X-80224Y-101702D01*
X-79621Y-101099D01*
X-79532Y-101097D01*
X-79368Y-101060D01*
X-72250D01*
Y-115500D01*
X-71365D01*
X-69616Y-116128D01*
X-69518Y-118110D01*
X-69153Y-125538D01*
X-68876Y-127408D01*
X-68900Y-127570D01*
X-68868Y-128223D01*
X-68909Y-128745D01*
X-69031Y-129430D01*
X-69721Y-131750D01*
X-70186Y-132947D01*
X-72671Y-138098D01*
X-73744Y-140034D01*
X-73790Y-140180D01*
X-73974Y-140454D01*
X-75481Y-144094D01*
X-76250Y-147958D01*
Y-151898D01*
X-75481Y-155762D01*
X-73974Y-159401D01*
X-71785Y-162677D01*
X-68999Y-165463D01*
X-65724Y-167652D01*
X-62084Y-169159D01*
X-58220Y-169928D01*
X-54280D01*
X-50416Y-169159D01*
X-46776Y-167652D01*
X-43501Y-165463D01*
X-40715Y-162677D01*
X-38526Y-159401D01*
X-37373Y-156618D01*
X-37257Y-156447D01*
X-37220Y-156270D01*
X-37129Y-156114D01*
X-36597Y-154569D01*
X-36080Y-153300D01*
X-35544Y-152189D01*
X-34999Y-151235D01*
X-34452Y-150434D01*
X-33915Y-149779D01*
X-33395Y-149259D01*
X-32329Y-149050D01*
X-31661Y-148959D01*
X-30015Y-148832D01*
X-29183Y-148816D01*
X-29048Y-148787D01*
X-28911Y-148804D01*
X-28715Y-148750D01*
X-20000D01*
Y-185000D01*
X20000D01*
Y-145000D01*
X-11250D01*
Y-137992D01*
X-11185Y-137500D01*
X-11185Y-137500D01*
Y-134883D01*
X-7401Y-131099D01*
X-7401Y-131099D01*
X-6199Y-129532D01*
X-5443Y-127708D01*
X-5185Y-125750D01*
X-3340Y-125250D01*
X9250D01*
Y-114492D01*
X9315Y-114000D01*
X9315Y-114000D01*
Y-110824D01*
X9317Y-110812D01*
X9334Y-108114D01*
X18400Y-99048D01*
X18400Y-99048D01*
X19602Y-97481D01*
X20358Y-95657D01*
X20511Y-94494D01*
X21265Y-94345D01*
X23291Y-92991D01*
X24645Y-90965D01*
X25120Y-88575D01*
Y-81825D01*
X24645Y-79435D01*
X23291Y-77409D01*
X21265Y-76055D01*
X18875Y-75580D01*
D02*
G37*
%LPD*%
G36*
X-48012Y200261D02*
X-50132Y199822D01*
X-53887Y198807D01*
X-55521Y198232D01*
X-56994Y197611D01*
X-58304Y196944D01*
X-59452Y196232D01*
X-60439Y195475D01*
X-61263Y194672D01*
X-61925Y193823D01*
X-66084Y196598D01*
X-65555Y197536D01*
X-65130Y198605D01*
X-64809Y199807D01*
X-64592Y201140D01*
X-64480Y202606D01*
X-64472Y204204D01*
X-64567Y205934D01*
X-65072Y209791D01*
X-65480Y211917D01*
X-48012Y200261D01*
D02*
G37*
G36*
X-77624Y170296D02*
X-78024Y169629D01*
X-78359Y168922D01*
X-78628Y168175D01*
X-78833Y167390D01*
X-78972Y166565D01*
X-79046Y165701D01*
X-79055Y164797D01*
X-78999Y163854D01*
X-78878Y162871D01*
X-78692Y161849D01*
X-89173Y168843D01*
X-88158Y169063D01*
X-87204Y169329D01*
X-86312Y169639D01*
X-85481Y169994D01*
X-84712Y170395D01*
X-84003Y170840D01*
X-83356Y171330D01*
X-82771Y171866D01*
X-82246Y172446D01*
X-81784Y173071D01*
X-77624Y170296D01*
D02*
G37*
G36*
X-60873Y-35469D02*
X-68137Y-39979D01*
X-71863Y-38521D01*
X-71871Y-38402D01*
X-71928Y-38127D01*
X-71952Y-38038D01*
X-71969Y-41719D01*
X-72010Y-41630D01*
X-72130Y-41550D01*
X-72330Y-41480D01*
X-72610Y-41419D01*
X-72969Y-41367D01*
X-73930Y-41292D01*
X-75970Y-41250D01*
Y-37250D01*
X-75205Y-37230D01*
X-74521Y-37170D01*
X-73918Y-37070D01*
X-73394Y-36930D01*
X-72951Y-36750D01*
X-72588Y-36530D01*
X-72402Y-36358D01*
X-72643Y-35457D01*
X-74137Y-30279D01*
X-60873Y-35469D01*
D02*
G37*
G36*
X-82722Y-36602D02*
X-82522Y-36738D01*
X-82293Y-36858D01*
X-82036Y-36962D01*
X-81749Y-37050D01*
X-81434Y-37122D01*
X-81090Y-37178D01*
X-80718Y-37218D01*
X-79886Y-37250D01*
Y-41250D01*
X-80316Y-41258D01*
X-81090Y-41322D01*
X-81434Y-41378D01*
X-81749Y-41450D01*
X-82036Y-41538D01*
X-82293Y-41642D01*
X-82522Y-41762D01*
X-82722Y-41898D01*
X-82893Y-42050D01*
Y-36450D01*
X-82722Y-36602D01*
D02*
G37*
G36*
X17178Y-44019D02*
X17141Y-44170D01*
X17108Y-44419D01*
X17055Y-45219D01*
X17000Y-48969D01*
X12000D01*
X11975Y-48019D01*
X11900Y-47169D01*
X11775Y-46420D01*
X11600Y-45770D01*
X11375Y-45219D01*
X11100Y-44770D01*
X10775Y-44419D01*
X10400Y-44170D01*
X9975Y-44019D01*
X9500Y-43969D01*
X17220D01*
X17178Y-44019D01*
D02*
G37*
G36*
X17025Y-51305D02*
X17099Y-52196D01*
X17224Y-52983D01*
X17397Y-53664D01*
X17621Y-54241D01*
X17894Y-54713D01*
X18217Y-55080D01*
X18589Y-55342D01*
X19011Y-55499D01*
X19483Y-55552D01*
X9517D01*
X9989Y-55499D01*
X10411Y-55342D01*
X10783Y-55080D01*
X11106Y-54713D01*
X11379Y-54241D01*
X11603Y-53664D01*
X11777Y-52983D01*
X11901Y-52196D01*
X11975Y-51305D01*
X12000Y-50309D01*
X17000D01*
X17025Y-51305D01*
D02*
G37*
G36*
X9336Y-63964D02*
X9082Y-63648D01*
X8767Y-63365D01*
X8389Y-63115D01*
X7950Y-62899D01*
X7448Y-62716D01*
X6884Y-62566D01*
X6259Y-62450D01*
X5571Y-62367D01*
X4821Y-62317D01*
X4009Y-62300D01*
Y-57300D01*
X4821Y-57283D01*
X6259Y-57150D01*
X6884Y-57034D01*
X7448Y-56884D01*
X7950Y-56701D01*
X8389Y-56485D01*
X8767Y-56235D01*
X9082Y-55952D01*
X9336Y-55636D01*
Y-63964D01*
D02*
G37*
G36*
X-114731Y-77905D02*
X-114580Y-78239D01*
X-114331Y-78535D01*
X-113981Y-78791D01*
X-113531Y-79008D01*
X-112980Y-79185D01*
X-112331Y-79323D01*
X-111580Y-79421D01*
X-110730Y-79480D01*
X-109781Y-79500D01*
Y-84500D01*
X-110735Y-84525D01*
X-111589Y-84600D01*
X-112343Y-84725D01*
X-112996Y-84900D01*
X-113549Y-85125D01*
X-114002Y-85400D01*
X-114355Y-85725D01*
X-114607Y-86100D01*
X-114759Y-86525D01*
X-114811Y-87000D01*
X-114781Y-77530D01*
X-114731Y-77905D01*
D02*
G37*
G36*
X-136410Y19994D02*
X-136140Y16928D01*
X-135690Y14224D01*
X-135060Y11880D01*
X-134250Y9897D01*
X-133260Y8274D01*
X-132090Y7012D01*
X-130740Y6110D01*
X-129210Y5569D01*
X-127500Y5389D01*
X-128922D01*
X-127500Y5239D01*
X-163500D01*
X-162078Y5389D01*
X-163500D01*
X-161790Y5569D01*
X-160260Y6110D01*
X-158910Y7012D01*
X-157740Y8274D01*
X-156750Y9897D01*
X-155940Y11880D01*
X-155310Y14224D01*
X-154860Y16928D01*
X-154590Y19994D01*
X-154500Y23419D01*
X-136500D01*
X-136410Y19994D01*
D02*
G37*
G36*
X17059Y-89661D02*
X16773Y-89690D01*
X16516Y-89803D01*
X16290Y-90000D01*
X16094Y-90279D01*
X15928Y-90641D01*
X15792Y-91087D01*
X15687Y-91615D01*
X15612Y-92226D01*
X15566Y-92921D01*
X15551Y-93699D01*
X10551D01*
X10539Y-93021D01*
X10442Y-91829D01*
X10357Y-91314D01*
X10247Y-90854D01*
X10114Y-90447D01*
X9956Y-90095D01*
X9773Y-89797D01*
X9567Y-89554D01*
X9336Y-89364D01*
X17059Y-89661D01*
D02*
G37*
G36*
X-83091Y-91486D02*
X-82888Y-91594D01*
X-82656Y-91689D01*
X-82395Y-91771D01*
X-82106Y-91841D01*
X-81787Y-91898D01*
X-81065Y-91975D01*
X-80660Y-91994D01*
X-80227Y-92000D01*
X-79642Y-96000D01*
X-80071Y-96009D01*
X-80839Y-96083D01*
X-81177Y-96147D01*
X-81485Y-96230D01*
X-81762Y-96332D01*
X-82009Y-96451D01*
X-82225Y-96589D01*
X-82411Y-96746D01*
X-82566Y-96921D01*
X-83266Y-91365D01*
X-83091Y-91486D01*
D02*
G37*
G36*
X-67220Y-97470D02*
X-67259Y-97190D01*
X-67379Y-96940D01*
X-67579Y-96720D01*
X-67860Y-96529D01*
X-68219Y-96367D01*
X-68660Y-96235D01*
X-69180Y-96132D01*
X-69780Y-96059D01*
X-70459Y-96015D01*
X-71220Y-96000D01*
Y-92000D01*
X-70455Y-91980D01*
X-69771Y-91920D01*
X-69167Y-91820D01*
X-68644Y-91680D01*
X-68201Y-91500D01*
X-67838Y-91280D01*
X-67555Y-91020D01*
X-67353Y-90720D01*
X-67231Y-90380D01*
X-67189Y-90000D01*
X-67220Y-97470D01*
D02*
G37*
G36*
X-8100Y-100770D02*
X-8525Y-100920D01*
X-8900Y-101170D01*
X-9225Y-101519D01*
X-9500Y-101969D01*
X-9725Y-102520D01*
X-9900Y-103169D01*
X-10025Y-103919D01*
X-10100Y-104769D01*
X-10125Y-105719D01*
X-15125D01*
X-15150Y-104769D01*
X-15225Y-103919D01*
X-15350Y-103169D01*
X-15525Y-102520D01*
X-15750Y-101969D01*
X-16025Y-101519D01*
X-16350Y-101170D01*
X-16725Y-100920D01*
X-17150Y-100770D01*
X-17625Y-100719D01*
X-7625D01*
X-8100Y-100770D01*
D02*
G37*
G36*
X-10112Y-106730D02*
X-10004Y-108330D01*
X-9910Y-108981D01*
X-9789Y-109530D01*
X-9641Y-109980D01*
X-9466Y-110330D01*
X-9265Y-110581D01*
X-9036Y-110730D01*
X-8781Y-110780D01*
X-16719D01*
X-16417Y-110730D01*
X-16145Y-110581D01*
X-15906Y-110330D01*
X-15699Y-109980D01*
X-15524Y-109530D01*
X-15380Y-108981D01*
X-15268Y-108330D01*
X-15189Y-107580D01*
X-15125Y-105780D01*
X-10125D01*
X-10112Y-106730D01*
D02*
G37*
G36*
X4220Y-110780D02*
X-3250Y-110811D01*
X-2775Y-110759D01*
X-2350Y-110606D01*
X-1975Y-110354D01*
X-1650Y-110001D01*
X-1375Y-109548D01*
X-1150Y-108995D01*
X-975Y-108342D01*
X-850Y-107588D01*
X-775Y-106734D01*
X-750Y-105780D01*
X4250D01*
X4220Y-110780D01*
D02*
G37*
G36*
X-58880Y-110510D02*
X-59220Y-110630D01*
X-59520Y-110829D01*
X-59780Y-111110D01*
X-60000Y-111469D01*
X-60180Y-111910D01*
X-60320Y-112430D01*
X-60420Y-113029D01*
X-60480Y-113709D01*
X-60500Y-114469D01*
X-64500D01*
X-64520Y-113709D01*
X-64580Y-113029D01*
X-64680Y-112430D01*
X-64820Y-111910D01*
X-65000Y-111469D01*
X-65220Y-111110D01*
X-65480Y-110829D01*
X-65780Y-110630D01*
X-66120Y-110510D01*
X-66500Y-110470D01*
X-58500D01*
X-58880Y-110510D01*
D02*
G37*
G36*
X-24331Y-110250D02*
X-24181Y-110675D01*
X-23931Y-111050D01*
X-23581Y-111375D01*
X-23131Y-111650D01*
X-22581Y-111875D01*
X-21931Y-112050D01*
X-21181Y-112175D01*
X-20470Y-112237D01*
X-19169Y-112140D01*
X-18520Y-112036D01*
X-17969Y-111901D01*
X-17520Y-111737D01*
X-17170Y-111543D01*
X-16919Y-111318D01*
X-16769Y-111064D01*
X-16719Y-110780D01*
Y-119775D01*
X-16769Y-119300D01*
X-16919Y-118875D01*
X-17170Y-118500D01*
X-17520Y-118175D01*
X-17969Y-117900D01*
X-18520Y-117675D01*
X-19169Y-117500D01*
X-19920Y-117375D01*
X-20572Y-117317D01*
X-21181Y-117366D01*
X-21931Y-117481D01*
X-22581Y-117642D01*
X-23131Y-117848D01*
X-23581Y-118101D01*
X-23931Y-118399D01*
X-24181Y-118743D01*
X-24331Y-119133D01*
X-24381Y-119569D01*
Y-109775D01*
X-24331Y-110250D01*
D02*
G37*
G36*
X-9060Y-120269D02*
X-9309Y-120420D01*
X-9530Y-120669D01*
X-9721Y-121019D01*
X-9883Y-121469D01*
X-10015Y-122020D01*
X-10118Y-122669D01*
X-10191Y-123420D01*
X-10250Y-125219D01*
X-15250D01*
X-15265Y-124270D01*
X-15382Y-122669D01*
X-15485Y-122020D01*
X-15617Y-121469D01*
X-15779Y-121019D01*
X-15970Y-120669D01*
X-16191Y-120420D01*
X-16440Y-120269D01*
X-16719Y-120219D01*
X-8781D01*
X-9060Y-120269D01*
D02*
G37*
G36*
X-16280Y-134281D02*
X-21281Y-134311D01*
X-21275Y-134285D01*
X-21270Y-134208D01*
X-21253Y-133056D01*
X-21250Y-131750D01*
X-16250D01*
X-16280Y-134281D01*
D02*
G37*
G36*
X-59700Y-127214D02*
X-59294Y-128226D01*
X-58695Y-129249D01*
X-57902Y-130285D01*
X-56916Y-131332D01*
X-55738Y-132391D01*
X-54365Y-133462D01*
X-52800Y-134545D01*
X-49092Y-136746D01*
X-47517Y-137549D01*
X-45990Y-138225D01*
X-44516Y-138771D01*
X-43095Y-139185D01*
X-41727Y-139470D01*
X-40412Y-139623D01*
X-39151Y-139646D01*
X-38131Y-139555D01*
X-37868Y-139381D01*
X-37316Y-138916D01*
X-36941Y-138468D01*
X-36744Y-138038D01*
X-36725Y-137626D01*
X-36883Y-137231D01*
X-37220Y-136855D01*
X-29281Y-143720D01*
X-30259Y-143738D01*
X-32201Y-143888D01*
X-33164Y-144019D01*
X-35073Y-144393D01*
X-35587Y-144525D01*
X-35860Y-144698D01*
X-36805Y-145459D01*
X-37697Y-146352D01*
X-38536Y-147375D01*
X-39324Y-148529D01*
X-40058Y-149814D01*
X-40741Y-151229D01*
X-41371Y-152776D01*
X-41949Y-154454D01*
X-49095Y-136749D01*
X-69285Y-142505D01*
X-68142Y-140443D01*
X-65507Y-134981D01*
X-64894Y-133403D01*
X-64063Y-130608D01*
X-63846Y-129392D01*
X-63761Y-128297D01*
X-63808Y-127322D01*
X-59913Y-126215D01*
X-59700Y-127214D01*
D02*
G37*
%LPC*%
G36*
X86500Y83750D02*
X60000D01*
Y46250D01*
X67903D01*
X67929Y46187D01*
X68031Y45807D01*
X68119Y45271D01*
X68152Y44898D01*
Y42500D01*
X68540Y40549D01*
X69645Y38895D01*
X81902Y26638D01*
Y21436D01*
X81884Y21174D01*
X81809Y20601D01*
X81734Y20250D01*
X80000D01*
Y17812D01*
X79981Y17720D01*
X80000Y17627D01*
Y7373D01*
X79981Y7280D01*
X80000Y7188D01*
Y4750D01*
X81734D01*
X81800Y4440D01*
X81902Y3403D01*
Y-13500D01*
X82290Y-15451D01*
X83395Y-17105D01*
X105968Y-39678D01*
X105370Y-41908D01*
X105241Y-41943D01*
X103759Y-42799D01*
X102549Y-44009D01*
X101693Y-45491D01*
X101250Y-47144D01*
Y-48856D01*
X101557Y-50000D01*
X101323Y-50445D01*
X100250Y-52000D01*
X100250Y-52000D01*
X100250Y-52000D01*
Y-63000D01*
X100250Y-65000D01*
X100250Y-67000D01*
Y-70407D01*
X100233Y-70480D01*
X100250Y-70584D01*
Y-72001D01*
X100048Y-72289D01*
X99058Y-73454D01*
X91555Y-80957D01*
X84086D01*
X83812Y-80933D01*
X83407Y-80868D01*
X83379Y-80861D01*
X83290Y-80411D01*
X82488Y-79212D01*
X81289Y-78410D01*
X79875Y-78129D01*
X71125D01*
X69711Y-78410D01*
X68512Y-79212D01*
X67710Y-80411D01*
X67429Y-81825D01*
Y-88575D01*
X67710Y-89989D01*
X68512Y-91188D01*
X69711Y-91990D01*
X71125Y-92271D01*
X79875D01*
X81289Y-91990D01*
X81899Y-91582D01*
X81951Y-91564D01*
X82028Y-91496D01*
X82488Y-91188D01*
X82654Y-90941D01*
X82695Y-90904D01*
X82864Y-90682D01*
X82948Y-90595D01*
X83049Y-90513D01*
X83177Y-90433D01*
X83345Y-90351D01*
X83562Y-90273D01*
X83833Y-90202D01*
X84162Y-90146D01*
X84293Y-90133D01*
X93455D01*
X95211Y-89784D01*
X96699Y-88789D01*
X105142Y-80347D01*
X106664Y-79008D01*
X107346Y-78490D01*
X107923Y-78110D01*
X108129Y-78000D01*
X108967D01*
X109013Y-78012D01*
X109110Y-78000D01*
X114750D01*
Y-67000D01*
X114750Y-65000D01*
X114750Y-63000D01*
Y-52000D01*
X114750Y-52000D01*
X114636Y-51717D01*
X114817Y-51355D01*
X117249Y-50959D01*
X121395Y-55105D01*
X123049Y-56210D01*
X125000Y-56598D01*
X136802D01*
X136869Y-57006D01*
X136902Y-57382D01*
Y-61064D01*
X136884Y-61326D01*
X136809Y-61899D01*
X136734Y-62250D01*
X135000D01*
Y-64688D01*
X134981Y-64781D01*
X135000Y-64873D01*
Y-77750D01*
X139002D01*
X139290Y-79201D01*
X140395Y-80855D01*
X147560Y-88020D01*
X148402Y-88926D01*
X148997Y-89670D01*
X149449Y-90320D01*
X149500Y-90409D01*
Y-92259D01*
X149481Y-92352D01*
X149500Y-92444D01*
Y-97250D01*
X160500D01*
X162500Y-97250D01*
X164500Y-97250D01*
X175500D01*
Y-94667D01*
X175838Y-94611D01*
X176096Y-94588D01*
X182099D01*
X183834Y-96322D01*
X185322Y-97317D01*
X187078Y-97666D01*
X203847D01*
X204994Y-99304D01*
X204977Y-99353D01*
X224710Y-106536D01*
X231892Y-86802D01*
X212159Y-79620D01*
X209056Y-88143D01*
X209036Y-88158D01*
X208895Y-88227D01*
X208653Y-88312D01*
X208307Y-88396D01*
X207859Y-88466D01*
X207576Y-88490D01*
X188978D01*
X187244Y-86756D01*
X185756Y-85761D01*
X184000Y-85412D01*
X177433D01*
X175518Y-85268D01*
X175500Y-85178D01*
Y-82750D01*
X175159D01*
X175138Y-82452D01*
Y-47722D01*
X174789Y-45966D01*
X173794Y-44478D01*
X171073Y-41756D01*
X169584Y-40761D01*
X167828Y-40412D01*
X159600D01*
X159452Y-40441D01*
X154150D01*
X152979Y-40674D01*
X151987Y-41337D01*
X151324Y-42330D01*
X151091Y-43500D01*
Y-46500D01*
X151324Y-47670D01*
X151987Y-48663D01*
X152979Y-49326D01*
X154150Y-49559D01*
X159452D01*
X159600Y-49588D01*
X165928D01*
X165962Y-49622D01*
Y-80783D01*
X164210Y-82750D01*
X162500Y-82750D01*
X159194Y-82750D01*
X159102Y-82732D01*
X159009Y-82750D01*
X157159D01*
X157070Y-82699D01*
X156449Y-82267D01*
X155003Y-81044D01*
X149098Y-75138D01*
Y-72000D01*
X149000Y-71507D01*
Y-64873D01*
X149018Y-64781D01*
X149000Y-64688D01*
Y-62250D01*
X147266D01*
X147200Y-61940D01*
X147098Y-60903D01*
Y-57259D01*
X147107Y-57119D01*
X147174Y-56573D01*
X147257Y-56135D01*
X147347Y-55812D01*
X147427Y-55610D01*
X147436Y-55594D01*
X147439Y-55592D01*
X147703Y-55370D01*
X148013Y-55163D01*
X148025Y-55146D01*
X148035Y-55138D01*
X148104Y-55033D01*
X148200Y-54951D01*
X148358Y-54646D01*
X148676Y-54171D01*
X148909Y-53000D01*
Y-50000D01*
X148676Y-48829D01*
X148013Y-47837D01*
X147021Y-47174D01*
X145850Y-46941D01*
X143677D01*
X143451Y-46790D01*
X141500Y-46402D01*
X129996D01*
X129460Y-44402D01*
X130241Y-43951D01*
X130773Y-43420D01*
X130941Y-43314D01*
X130943Y-43312D01*
X131014Y-43290D01*
X131149Y-43257D01*
X131305Y-43231D01*
X131506Y-43213D01*
X140275D01*
X141051Y-43059D01*
X145850D01*
X147021Y-42826D01*
X148013Y-42163D01*
X148676Y-41171D01*
X148909Y-40000D01*
Y-37000D01*
X148676Y-35830D01*
X148013Y-34837D01*
X147021Y-34174D01*
X145850Y-33941D01*
X140548D01*
X140400Y-33912D01*
X140252Y-33941D01*
X134950D01*
X134469Y-34037D01*
X131307D01*
X131128Y-34023D01*
X130953Y-33996D01*
X130799Y-33962D01*
X130696Y-33932D01*
X130673Y-33923D01*
X130652Y-33906D01*
X130534Y-33842D01*
X130241Y-33549D01*
X128759Y-32693D01*
X127106Y-32250D01*
X125394D01*
X123741Y-32693D01*
X122259Y-33549D01*
X121049Y-34759D01*
X120193Y-36241D01*
X120105Y-36567D01*
X117875Y-37165D01*
X92098Y-11388D01*
Y3564D01*
X92116Y3826D01*
X92191Y4399D01*
X92266Y4750D01*
X94000D01*
Y7188D01*
X94018Y7280D01*
X94000Y7373D01*
Y17627D01*
X94018Y17720D01*
X94000Y17812D01*
Y20250D01*
X92266D01*
X92200Y20560D01*
X92098Y21597D01*
Y28750D01*
X91710Y30701D01*
X90605Y32355D01*
X78710Y44250D01*
X79221Y46250D01*
X86500D01*
Y59653D01*
X86563Y59679D01*
X86943Y59781D01*
X87479Y59869D01*
X87851Y59902D01*
X117314D01*
X117576Y59884D01*
X118149Y59809D01*
X118500Y59734D01*
Y58000D01*
X120938D01*
X121031Y57982D01*
X121124Y58000D01*
X145000D01*
Y72000D01*
X121124D01*
X121031Y72018D01*
X120938Y72000D01*
X118500D01*
Y70266D01*
X118190Y70200D01*
X117153Y70098D01*
X87851D01*
X87479Y70131D01*
X86943Y70219D01*
X86563Y70321D01*
X86500Y70347D01*
Y83750D01*
D02*
G37*
G36*
X142470Y95019D02*
X142377Y95000D01*
X118500D01*
Y81000D01*
X142377D01*
X142470Y80982D01*
X142563Y81000D01*
X145000D01*
Y82734D01*
X145310Y82800D01*
X146347Y82902D01*
X155416D01*
X157250Y82500D01*
Y80063D01*
X157232Y79970D01*
X157250Y79876D01*
Y68500D01*
X170127D01*
X170219Y68481D01*
X170312Y68500D01*
X172750D01*
Y70234D01*
X173060Y70300D01*
X174097Y70402D01*
X183138D01*
X224902Y28638D01*
Y27734D01*
X224824Y27254D01*
X224664Y26655D01*
X224430Y26028D01*
X224117Y25369D01*
X223719Y24680D01*
X223253Y23994D01*
X221956Y22424D01*
X221173Y21618D01*
X221047Y21425D01*
X219998Y20375D01*
X218352Y17525D01*
X217500Y14346D01*
Y11054D01*
X218352Y7875D01*
X219998Y5025D01*
X222325Y2697D01*
X225175Y1052D01*
X228354Y200D01*
X231646D01*
X234825Y1052D01*
X237675Y2697D01*
X240002Y5025D01*
X241648Y7875D01*
X242500Y11054D01*
Y14346D01*
X241648Y17525D01*
X240002Y20375D01*
X238953Y21425D01*
X238827Y21618D01*
X238019Y22450D01*
X237347Y23218D01*
X236768Y23962D01*
X236281Y24680D01*
X235883Y25369D01*
X235570Y26028D01*
X235336Y26656D01*
X235176Y27254D01*
X235098Y27734D01*
Y30750D01*
X234710Y32701D01*
X233605Y34355D01*
X188855Y79105D01*
X187201Y80210D01*
X185250Y80598D01*
X173936D01*
X173674Y80616D01*
X173100Y80691D01*
X172750Y80766D01*
Y82500D01*
X170312D01*
X170219Y82519D01*
X169377Y84221D01*
Y84571D01*
X168989Y86522D01*
X167884Y88176D01*
X164455Y91605D01*
X162801Y92710D01*
X160850Y93098D01*
X146186D01*
X145924Y93116D01*
X145351Y93191D01*
X145000Y93266D01*
Y95000D01*
X142563D01*
X142470Y95019D01*
D02*
G37*
%LPD*%
G36*
X121031Y60531D02*
X120981Y60905D01*
X120830Y61240D01*
X120581Y61535D01*
X120231Y61791D01*
X119781Y62008D01*
X119230Y62185D01*
X118581Y62323D01*
X117830Y62421D01*
X116980Y62480D01*
X116031Y62500D01*
Y67500D01*
X116980Y67520D01*
X118581Y67677D01*
X119230Y67815D01*
X119781Y67992D01*
X120231Y68209D01*
X120581Y68465D01*
X120830Y68760D01*
X120981Y69095D01*
X121031Y69469D01*
Y60531D01*
D02*
G37*
G36*
X83989Y69525D02*
X84140Y69100D01*
X84392Y68725D01*
X84744Y68400D01*
X85197Y68125D01*
X85750Y67900D01*
X86404Y67725D01*
X87158Y67600D01*
X88014Y67525D01*
X88969Y67500D01*
Y62500D01*
X88014Y62475D01*
X87158Y62400D01*
X86404Y62275D01*
X85750Y62100D01*
X85197Y61875D01*
X84744Y61600D01*
X84392Y61275D01*
X84140Y60900D01*
X83989Y60475D01*
X83939Y60000D01*
Y70000D01*
X83989Y69525D01*
D02*
G37*
G36*
X77775Y48761D02*
X77350Y48610D01*
X76975Y48358D01*
X76650Y48006D01*
X76375Y47553D01*
X76150Y47000D01*
X75975Y46346D01*
X75850Y45592D01*
X75775Y44736D01*
X75750Y43780D01*
X70750D01*
X70725Y44736D01*
X70650Y45592D01*
X70525Y46346D01*
X70350Y47000D01*
X70125Y47553D01*
X69850Y48006D01*
X69525Y48358D01*
X69150Y48610D01*
X68725Y48761D01*
X68250Y48811D01*
X78250D01*
X77775Y48761D01*
D02*
G37*
G36*
X89520Y21769D02*
X89677Y20169D01*
X89815Y19519D01*
X89992Y18970D01*
X90209Y18520D01*
X90465Y18169D01*
X90760Y17919D01*
X91095Y17770D01*
X91469Y17720D01*
X82530D01*
X82905Y17770D01*
X83239Y17919D01*
X83535Y18169D01*
X83791Y18520D01*
X84008Y18970D01*
X84185Y19519D01*
X84323Y20169D01*
X84421Y20919D01*
X84480Y21769D01*
X84500Y22720D01*
X89500D01*
X89520Y21769D01*
D02*
G37*
G36*
X91095Y7230D02*
X90760Y7081D01*
X90465Y6830D01*
X90209Y6481D01*
X89992Y6030D01*
X89815Y5480D01*
X89677Y4830D01*
X89579Y4081D01*
X89520Y3230D01*
X89500Y2280D01*
X84500D01*
X84480Y3230D01*
X84323Y4830D01*
X84185Y5480D01*
X84008Y6030D01*
X83791Y6481D01*
X83535Y6830D01*
X83239Y7081D01*
X82905Y7230D01*
X82530Y7280D01*
X91469D01*
X91095Y7230D01*
D02*
G37*
G36*
X129191Y-36007D02*
X129393Y-36137D01*
X129624Y-36251D01*
X129883Y-36350D01*
X130171Y-36434D01*
X130487Y-36503D01*
X130832Y-36556D01*
X131608Y-36617D01*
X132039Y-36625D01*
X132183Y-40625D01*
X131753Y-40633D01*
X130981Y-40700D01*
X130638Y-40759D01*
X130324Y-40834D01*
X130040Y-40925D01*
X129784Y-41034D01*
X129558Y-41159D01*
X129361Y-41301D01*
X129193Y-41459D01*
X129018Y-35862D01*
X129191Y-36007D01*
D02*
G37*
G36*
X109635Y-50917D02*
X110459Y-50943D01*
X110301Y-51111D01*
X110159Y-51308D01*
X110034Y-51535D01*
X109925Y-51790D01*
X109834Y-52074D01*
X109767Y-52354D01*
X109805Y-52586D01*
X109945Y-53110D01*
X110125Y-53553D01*
X110345Y-53916D01*
X110605Y-54198D01*
X110905Y-54400D01*
X111245Y-54521D01*
X111625Y-54561D01*
X103625D01*
X104005Y-54521D01*
X104345Y-54400D01*
X104645Y-54198D01*
X104905Y-53916D01*
X105125Y-53553D01*
X105305Y-53110D01*
X105445Y-52586D01*
X105503Y-52237D01*
X105434Y-51921D01*
X105350Y-51633D01*
X105251Y-51374D01*
X105137Y-51143D01*
X105007Y-50941D01*
X104862Y-50768D01*
X105618Y-50791D01*
X105625Y-50531D01*
X109625D01*
X109635Y-50917D01*
D02*
G37*
G36*
X145885Y-53538D02*
X145594Y-53792D01*
X145338Y-54120D01*
X145115Y-54523D01*
X144927Y-55001D01*
X144774Y-55553D01*
X144654Y-56180D01*
X144568Y-56881D01*
X144517Y-57657D01*
X144500Y-58508D01*
X139500D01*
X139475Y-57547D01*
X139400Y-56687D01*
X139275Y-55929D01*
X139100Y-55273D01*
X138875Y-54719D01*
X138600Y-54267D01*
X138275Y-53917D01*
X137900Y-53669D01*
X137475Y-53522D01*
X137000Y-53478D01*
X146209Y-53359D01*
X145885Y-53538D01*
D02*
G37*
G36*
X144520Y-60731D02*
X144677Y-62330D01*
X144815Y-62980D01*
X144992Y-63531D01*
X145209Y-63980D01*
X145465Y-64331D01*
X145760Y-64580D01*
X146095Y-64731D01*
X146469Y-64781D01*
X137530D01*
X137905Y-64731D01*
X138239Y-64580D01*
X138535Y-64331D01*
X138791Y-63980D01*
X139008Y-63531D01*
X139185Y-62980D01*
X139323Y-62330D01*
X139421Y-61581D01*
X139480Y-60731D01*
X139500Y-59781D01*
X144500D01*
X144520Y-60731D01*
D02*
G37*
G36*
X109187Y-75469D02*
X108828Y-75291D01*
X108392Y-75247D01*
X107878Y-75336D01*
X107287Y-75560D01*
X106619Y-75917D01*
X105873Y-76408D01*
X105050Y-77033D01*
X103171Y-78685D01*
X102116Y-79712D01*
X99952Y-76220D01*
X100778Y-75366D01*
X102067Y-73850D01*
X102531Y-73188D01*
X102874Y-72590D01*
X103097Y-72056D01*
X103199Y-71587D01*
X103180Y-71182D01*
X103041Y-70840D01*
X102781Y-70563D01*
X109187Y-75469D01*
D02*
G37*
G36*
X172554Y-82041D02*
X172756Y-84921D01*
X172819Y-85120D01*
X172890Y-85240D01*
X172969Y-85281D01*
X166550Y-85311D01*
X166930Y-85269D01*
X167270Y-85147D01*
X167570Y-84944D01*
X167830Y-84662D01*
X168050Y-84299D01*
X168230Y-83855D01*
X168370Y-83332D01*
X168470Y-82728D01*
X168530Y-82045D01*
X168550Y-81280D01*
X172550D01*
X172554Y-82041D01*
D02*
G37*
G36*
X80935Y-81930D02*
X81049Y-82269D01*
X81247Y-82568D01*
X81530Y-82827D01*
X81896Y-83046D01*
X82347Y-83226D01*
X82881Y-83365D01*
X83500Y-83465D01*
X84204Y-83525D01*
X84991Y-83545D01*
Y-87545D01*
X84388Y-87563D01*
X83822Y-87618D01*
X83295Y-87709D01*
X82805Y-87836D01*
X82354Y-88000D01*
X81940Y-88200D01*
X81564Y-88436D01*
X81226Y-88709D01*
X80926Y-89018D01*
X80664Y-89364D01*
X80905Y-81551D01*
X80935Y-81930D01*
D02*
G37*
G36*
X153056Y-82735D02*
X154894Y-84291D01*
X155708Y-84856D01*
X156450Y-85281D01*
X157122Y-85563D01*
X157723Y-85705D01*
X158253D01*
X158713Y-85563D01*
X159102Y-85281D01*
X152030Y-92352D01*
X152313Y-91963D01*
X152455Y-91503D01*
Y-90973D01*
X152313Y-90372D01*
X152030Y-89700D01*
X151606Y-88957D01*
X151041Y-88144D01*
X150333Y-87260D01*
X148495Y-85281D01*
X152030Y-81745D01*
X153056Y-82735D01*
D02*
G37*
G36*
X172979Y-86380D02*
X173100Y-86720D01*
X173302Y-87020D01*
X173584Y-87280D01*
X173947Y-87500D01*
X174390Y-87680D01*
X174914Y-87820D01*
X175518Y-87920D01*
X176204Y-87980D01*
X176970Y-88000D01*
Y-92000D01*
X176204Y-92020D01*
X175518Y-92080D01*
X174914Y-92180D01*
X174390Y-92320D01*
X173947Y-92500D01*
X173584Y-92720D01*
X173302Y-92980D01*
X173100Y-93280D01*
X172979Y-93620D01*
X172939Y-94000D01*
Y-86000D01*
X172979Y-86380D01*
D02*
G37*
G36*
X208526Y-97088D02*
X208625Y-96706D01*
X208628Y-96364D01*
X208536Y-96063D01*
X208349Y-95802D01*
X208067Y-95580D01*
X207689Y-95400D01*
X207216Y-95259D01*
X206648Y-95158D01*
X205984Y-95098D01*
X205226Y-95078D01*
X206681Y-91078D01*
X207455Y-91058D01*
X208162Y-90998D01*
X208803Y-90899D01*
X209378Y-90759D01*
X209887Y-90580D01*
X210329Y-90362D01*
X210706Y-90103D01*
X211016Y-89804D01*
X211260Y-89466D01*
X211438Y-89088D01*
X208526Y-97088D01*
D02*
G37*
G36*
X142520Y92095D02*
X142669Y91761D01*
X142920Y91465D01*
X143270Y91209D01*
X143720Y90992D01*
X144270Y90815D01*
X144920Y90677D01*
X145669Y90579D01*
X146519Y90520D01*
X147470Y90500D01*
Y85500D01*
X146519Y85480D01*
X144920Y85323D01*
X144270Y85185D01*
X143720Y85008D01*
X143270Y84791D01*
X142920Y84535D01*
X142669Y84240D01*
X142520Y83905D01*
X142470Y83531D01*
Y92470D01*
X142520Y92095D01*
D02*
G37*
G36*
X166800Y83697D02*
X166863Y82914D01*
X166968Y82224D01*
X167115Y81626D01*
X167304Y81120D01*
X167535Y80706D01*
X167809Y80384D01*
X168124Y80154D01*
X168481Y80015D01*
X168881Y79970D01*
X159781D01*
X160160Y80015D01*
X160500Y80154D01*
X160800Y80384D01*
X161059Y80706D01*
X161279Y81120D01*
X161459Y81626D01*
X161599Y82224D01*
X161699Y82914D01*
X161759Y83697D01*
X161779Y84571D01*
X166779D01*
X166800Y83697D01*
D02*
G37*
G36*
X170270Y79595D02*
X170420Y79261D01*
X170669Y78965D01*
X171019Y78709D01*
X171469Y78492D01*
X172020Y78315D01*
X172670Y78177D01*
X173419Y78079D01*
X174270Y78020D01*
X175219Y78000D01*
Y73000D01*
X174270Y72980D01*
X172670Y72823D01*
X172020Y72685D01*
X171469Y72508D01*
X171019Y72291D01*
X170669Y72035D01*
X170420Y71740D01*
X170270Y71405D01*
X170219Y71031D01*
Y79970D01*
X170270Y79595D01*
D02*
G37*
G36*
X232545Y27554D02*
X232680Y26719D01*
X232905Y25879D01*
X233220Y25033D01*
X233625Y24182D01*
X234120Y23325D01*
X234705Y22463D01*
X235380Y21595D01*
X236145Y20721D01*
X237000Y19841D01*
X223000D01*
X223855Y20721D01*
X225295Y22463D01*
X225880Y23325D01*
X226375Y24182D01*
X226780Y25033D01*
X227095Y25879D01*
X227320Y26719D01*
X227455Y27554D01*
X227500Y28382D01*
X232500D01*
X232545Y27554D01*
D02*
G37*
D14*
X-142500Y-25150D02*
D03*
D15*
X-119600Y-91650D02*
D03*
X-165400D02*
D03*
D16*
X14500Y-85200D02*
D03*
Y-59800D02*
D03*
X75500D02*
D03*
Y-85200D02*
D03*
D17*
X165000Y59500D02*
D03*
Y75500D02*
D03*
X-12500Y-96250D02*
D03*
Y-80250D02*
D03*
D18*
X103000Y12500D02*
D03*
X87000D02*
D03*
X158000Y-70000D02*
D03*
X142000D02*
D03*
D19*
X-65500Y-27750D02*
D03*
X-18500D02*
D03*
D20*
X73250Y65000D02*
D03*
D21*
X131750Y88000D02*
D03*
Y42000D02*
D03*
Y65000D02*
D03*
D22*
X140400Y-51500D02*
D03*
Y-38500D02*
D03*
X159600Y-51500D02*
D03*
Y-38500D02*
D03*
Y-45000D02*
D03*
D23*
X156000Y-90000D02*
D03*
X169000D02*
D03*
X-12750Y-115500D02*
D03*
X250D02*
D03*
X-33250Y-139000D02*
D03*
X-20250D02*
D03*
D24*
X107500Y-71500D02*
D03*
Y-58500D02*
D03*
X12500Y-40000D02*
D03*
Y-27000D02*
D03*
X-62500Y-106500D02*
D03*
Y-93500D02*
D03*
D25*
X-33001Y-114049D02*
D03*
Y-79949D02*
D03*
D37*
X-56250Y-149928D02*
D03*
X56250D02*
D03*
X0Y60000D02*
D03*
X-50800Y215000D02*
D03*
D38*
X0Y-165000D02*
D03*
D40*
X218434Y-93078D02*
D03*
D41*
X226985Y-69585D02*
D03*
D46*
X-64553Y-15387D02*
G03*
X-64500Y-14042I-17947J1375D01*
G01*
X-65107Y-22625D02*
X-64553Y-15387D01*
X-65500Y-27750D02*
X-65107Y-22625D01*
X-64500Y-14042D02*
X-64500Y38000D01*
X-145500Y-22000D02*
Y38000D01*
D47*
X-62500Y-116127D02*
G03*
X-58682Y-141900I88893J-0D01*
G01*
X-70000Y-39250D02*
X-65500Y-27750D01*
X-85750Y-39250D02*
X-70000D01*
X-62500Y-116127D02*
X-62500Y-108500D01*
X-58682Y-141900D02*
X-56250Y-149928D01*
X-62500Y-108500D02*
Y-106500D01*
X169000Y-90000D02*
X170550D01*
X169000D02*
X170550Y-88450D01*
Y-90000D02*
X184000D01*
X170550Y-88450D02*
Y-47722D01*
X-63000Y-94000D02*
X-62500Y-93500D01*
X-85750Y-94500D02*
X-85250Y-94000D01*
X-63000D01*
X75845Y-85545D02*
X93455D01*
X104750Y-74250D02*
Y-73500D01*
X75500Y-85200D02*
X75845Y-85545D01*
X93455D02*
X104750Y-74250D01*
Y-73500D02*
X106750Y-71500D01*
X107500D01*
X126250Y-38750D02*
X126375Y-38625D01*
X140275D02*
X140400Y-38500D01*
X126375Y-38625D02*
X140275D01*
X107625Y-58375D02*
Y-48125D01*
X107500Y-58500D02*
X107625Y-58375D01*
Y-48125D02*
X107750Y-48000D01*
X159600Y-45000D02*
X167828D01*
X170550Y-47722D01*
X184000Y-90000D02*
X187078Y-93078D01*
X218434D01*
D48*
X-55871Y-149775D02*
X-34750Y-141250D01*
X-56250Y-149928D02*
X-55871Y-149775D01*
X-117250Y-82000D02*
X-100250D01*
X-78050Y-59800D01*
X-119600Y-91500D02*
Y-84350D01*
X-117250Y-82000D01*
X-78050Y-59800D02*
X14500D01*
X-34750Y-141250D02*
X-33250Y-139000D01*
X73250Y65000D02*
X131750D01*
X-87500Y160000D02*
X-50800Y215000D01*
X-18750Y-137500D02*
Y-131750D01*
X-20250Y-139000D02*
X-18750Y-137500D01*
Y-131750D02*
X-12750Y-125750D01*
X14500Y-59800D02*
Y-41500D01*
X13000Y-40000D02*
X14500Y-41500D01*
X12500Y-40000D02*
X13000D01*
X13051Y-93699D02*
Y-86649D01*
X1750Y-105000D02*
X13051Y-93699D01*
Y-86649D02*
X14500Y-85200D01*
X250Y-115500D02*
X1750Y-114000D01*
Y-105000D01*
X-33001Y-114049D02*
X-32275Y-114775D01*
X-13475D02*
X-12750Y-115500D01*
X-32275Y-114775D02*
X-13475D01*
X-12625Y-96375D02*
X-12500Y-96250D01*
X-12750Y-115500D02*
X-12625Y-115375D01*
Y-96375D01*
X-12750Y-125750D02*
Y-115500D01*
X87000Y-13500D02*
X125000Y-51500D01*
X140400D01*
X87000Y-13500D02*
Y12500D01*
X140400Y-51500D02*
X141500D01*
X142000Y-70000D02*
Y-52000D01*
X141500Y-51500D02*
X142000Y-52000D01*
Y-70000D02*
X144000Y-72000D01*
Y-77250D02*
Y-72000D01*
Y-77250D02*
X156000Y-89250D01*
Y-90000D02*
Y-89250D01*
X87000Y12500D02*
Y28750D01*
X73250Y42500D02*
X87000Y28750D01*
X73250Y42500D02*
Y65000D01*
X164279Y76221D02*
X165000Y75500D01*
X164279Y76221D02*
Y84571D01*
X160850Y88000D02*
X164279Y84571D01*
X131750Y88000D02*
X160850D01*
X165000Y75500D02*
X185250D01*
X230000Y30750D01*
Y12700D02*
Y30750D01*
D49*
X-145500Y-22000D02*
X-142500Y-25000D01*
D50*
X-157500Y160000D02*
D03*
X-64500Y38000D02*
D03*
X-145500D02*
D03*
X-87500Y160000D02*
D03*
D51*
X230000Y-12700D02*
D03*
Y12700D02*
D03*
X-230000D02*
D03*
Y-38100D02*
D03*
Y-12700D02*
D03*
Y38100D02*
D03*
D52*
X-100000Y-200000D02*
D03*
D53*
X50800Y215000D02*
D03*
X0D02*
D03*
D54*
X66750Y152250D02*
D03*
X70250Y-208750D02*
D03*
X68000Y-33500D02*
D03*
X69000Y10250D02*
D03*
X160866Y-57724D02*
D03*
X151478Y-57466D02*
D03*
X-85750Y-39250D02*
D03*
Y-94500D02*
D03*
X240000Y60000D02*
D03*
X255000Y30000D02*
D03*
Y-30000D02*
D03*
X240000Y-60000D02*
D03*
X210000Y120000D02*
D03*
X225000Y90000D02*
D03*
X210000Y-0D02*
D03*
X225000Y-30000D02*
D03*
X210000Y-60000D02*
D03*
Y-120000D02*
D03*
X180000Y180000D02*
D03*
X195000Y150000D02*
D03*
X180000Y120000D02*
D03*
X195000Y90000D02*
D03*
X180000Y60000D02*
D03*
X195000Y30000D02*
D03*
X180000Y-0D02*
D03*
X195000Y-30000D02*
D03*
X180000Y-120000D02*
D03*
X195000Y-150000D02*
D03*
X180000Y-180000D02*
D03*
X150000Y180000D02*
D03*
X165000Y150000D02*
D03*
X150000Y120000D02*
D03*
X165000Y30000D02*
D03*
X150000Y-0D02*
D03*
X165000Y-30000D02*
D03*
X150000Y-120000D02*
D03*
X165000Y-150000D02*
D03*
X150000Y-180000D02*
D03*
X135000Y150000D02*
D03*
X120000Y120000D02*
D03*
X135000Y30000D02*
D03*
X120000Y-0D02*
D03*
X135000Y-90000D02*
D03*
X120000Y-120000D02*
D03*
X135000Y-150000D02*
D03*
X120000Y-180000D02*
D03*
X135000Y-210000D02*
D03*
X105000Y150000D02*
D03*
X90000Y120000D02*
D03*
X105000Y90000D02*
D03*
Y30000D02*
D03*
X90000Y-60000D02*
D03*
X105000Y-90000D02*
D03*
X90000Y-120000D02*
D03*
X105000Y-150000D02*
D03*
X90000Y-180000D02*
D03*
X105000Y-210000D02*
D03*
X90000Y-240000D02*
D03*
Y240000D02*
D03*
X105000Y210000D02*
D03*
X90000Y180000D02*
D03*
X60000Y240000D02*
D03*
X75000Y210000D02*
D03*
X60000Y180000D02*
D03*
X30000Y240000D02*
D03*
Y-240000D02*
D03*
X15000Y-210000D02*
D03*
X-0Y-240000D02*
D03*
X-15000Y-210000D02*
D03*
X-30000Y-240000D02*
D03*
X-60000Y-180000D02*
D03*
X-45000Y-210000D02*
D03*
X-60000Y-240000D02*
D03*
X-90000Y240000D02*
D03*
Y-120000D02*
D03*
Y-240000D02*
D03*
X-105000Y210000D02*
D03*
X-120000Y180000D02*
D03*
Y120000D02*
D03*
Y-120000D02*
D03*
X-105000Y-150000D02*
D03*
X-135000Y210000D02*
D03*
X-150000Y180000D02*
D03*
X-135000Y150000D02*
D03*
X-150000Y120000D02*
D03*
X-135000Y90000D02*
D03*
X-150000Y60000D02*
D03*
X-135000Y-90000D02*
D03*
X-150000Y-120000D02*
D03*
X-135000Y-150000D02*
D03*
X-150000Y-180000D02*
D03*
X-135000Y-210000D02*
D03*
X-180000Y180000D02*
D03*
Y120000D02*
D03*
X-165000Y90000D02*
D03*
X-180000Y60000D02*
D03*
Y-60000D02*
D03*
Y-120000D02*
D03*
X-165000Y-150000D02*
D03*
X-180000Y-180000D02*
D03*
X-195000Y150000D02*
D03*
X-210000Y120000D02*
D03*
X-195000Y90000D02*
D03*
X-210000Y60000D02*
D03*
Y-60000D02*
D03*
X-195000Y-90000D02*
D03*
X-210000Y-120000D02*
D03*
X-195000Y-150000D02*
D03*
X-225000Y90000D02*
D03*
X-240000Y60000D02*
D03*
Y-60000D02*
D03*
X-225000Y-90000D02*
D03*
X126250Y-38750D02*
D03*
X107750Y-48000D02*
D03*
M02*
