G04*
G04 #@! TF.GenerationSoftware,Altium Limited,Altium Designer,24.6.1 (21)*
G04*
G04 Layer_Physical_Order=1*
G04 Layer_Color=255*
%FSLAX44Y44*%
%MOMM*%
G71*
G04*
G04 #@! TF.SameCoordinates,BA978B15-CB27-4B2F-8DC8-F8FDB2F27EFD*
G04*
G04*
G04 #@! TF.FilePolarity,Positive*
G04*
G01*
G75*
%ADD11C,0.2500*%
%ADD14R,1.7300X1.1100*%
%ADD15R,0.8000X0.9500*%
%ADD16R,1.0500X0.9000*%
%ADD17R,0.9500X0.8000*%
%ADD18R,0.9000X1.0500*%
%ADD19R,2.1500X0.9000*%
%ADD20R,2.1500X3.2500*%
G04:AMPARAMS|DCode=21|XSize=1.1mm|YSize=0.9mm|CornerRadius=0.1125mm|HoleSize=0mm|Usage=FLASHONLY|Rotation=180.000|XOffset=0mm|YOffset=0mm|HoleType=Round|Shape=RoundedRectangle|*
%AMROUNDEDRECTD21*
21,1,1.1000,0.6750,0,0,180.0*
21,1,0.8750,0.9000,0,0,180.0*
1,1,0.2250,-0.4375,0.3375*
1,1,0.2250,0.4375,0.3375*
1,1,0.2250,0.4375,-0.3375*
1,1,0.2250,-0.4375,-0.3375*
%
%ADD21ROUNDEDRECTD21*%
%ADD22R,1.3000X2.8000*%
%ADD23R,0.9700X2.8300*%
%ADD24R,5.6300X6.0900*%
G04:AMPARAMS|DCode=25|XSize=1.19mm|YSize=0.4mm|CornerRadius=0.05mm|HoleSize=0mm|Usage=FLASHONLY|Rotation=180.000|XOffset=0mm|YOffset=0mm|HoleType=Round|Shape=RoundedRectangle|*
%AMROUNDEDRECTD25*
21,1,1.1900,0.3000,0,0,180.0*
21,1,1.0900,0.4000,0,0,180.0*
1,1,0.1000,-0.5450,0.1500*
1,1,0.1000,0.5450,0.1500*
1,1,0.1000,0.5450,-0.1500*
1,1,0.1000,-0.5450,-0.1500*
%
%ADD25ROUNDEDRECTD25*%
%ADD38C,3.0000*%
%ADD39R,3.0000X3.0000*%
%ADD40C,1.6000*%
%ADD41P,2.2627X4X295.0*%
%ADD47C,0.4000*%
%ADD48C,0.5000*%
%ADD49C,1.5000*%
%ADD50C,6.0000*%
%ADD51C,2.0000*%
%ADD52C,1.8000*%
%ADD53C,3.5000*%
%ADD54C,0.8000*%
G36*
X9002Y264952D02*
X24440Y263975D01*
X39794Y262100D01*
X55012Y259333D01*
X70044Y255682D01*
X84837Y251161D01*
X99341Y245786D01*
X113507Y239573D01*
X127286Y232545D01*
X133959Y228635D01*
Y228635D01*
X135390Y227461D01*
X136023Y226553D01*
X136478Y225455D01*
X136689Y224286D01*
X136645Y223099D01*
X136373Y222040D01*
X135441Y220429D01*
X135439Y220427D01*
X135439D01*
X135439Y220426D01*
X53898Y120067D01*
X52828Y118638D01*
X50874Y115650D01*
X49182Y112507D01*
X47764Y109230D01*
X46630Y105845D01*
X45789Y102376D01*
X45246Y98847D01*
X45010Y95352D01*
X45006Y95285D01*
X45000Y93500D01*
X45000Y93500D01*
Y-84000D01*
X44875Y-133474D01*
X43501Y-134393D01*
X40715Y-137179D01*
X38526Y-140454D01*
X37019Y-144094D01*
X36250Y-147958D01*
Y-151898D01*
X37019Y-155762D01*
X38526Y-159401D01*
X40715Y-162677D01*
X43501Y-165463D01*
X44792Y-166326D01*
X44574Y-252811D01*
X44572Y-253698D01*
X44254Y-255442D01*
X43631Y-257102D01*
X42723Y-258626D01*
X41560Y-259964D01*
X40178Y-261075D01*
X38621Y-261924D01*
X36939Y-262482D01*
X28045Y-263758D01*
X11904Y-265069D01*
X-4288Y-265387D01*
X-20470Y-264711D01*
X-36578Y-263043D01*
X-52555Y-260390D01*
X-68338Y-256761D01*
X-83869Y-252170D01*
X-99088Y-246635D01*
X-113940Y-240176D01*
X-128367Y-232818D01*
X-142315Y-224588D01*
X-155732Y-215518D01*
X-168566Y-205641D01*
X-180771Y-194995D01*
X-192299Y-183621D01*
X-203107Y-171560D01*
X-213155Y-158859D01*
X-222405Y-145565D01*
X-230821Y-131728D01*
X-238372Y-117401D01*
X-245029Y-102638D01*
X-250768Y-87493D01*
X-255566Y-72026D01*
X-259406Y-56293D01*
X-262274Y-40353D01*
X-264158Y-24268D01*
X-265051Y-8098D01*
X-265000Y-0D01*
Y7734D01*
X-264098Y23176D01*
X-262297Y38539D01*
X-259602Y53771D01*
X-256024Y68819D01*
X-251575Y83634D01*
X-246269Y98164D01*
X-240124Y112359D01*
X-233163Y126172D01*
X-225407Y139556D01*
X-216884Y152464D01*
X-207623Y164853D01*
X-197654Y176681D01*
X-187013Y187908D01*
X-175736Y198495D01*
X-163860Y208406D01*
X-151426Y217607D01*
X-138477Y226068D01*
X-125056Y233759D01*
X-111210Y240655D01*
X-96985Y246731D01*
X-82430Y251967D01*
X-67594Y256345D01*
X-52528Y259850D01*
X-37283Y262471D01*
X-21912Y264198D01*
X-6466Y265026D01*
X9002Y264952D01*
D02*
G37*
G36*
X155036Y214902D02*
X155936Y214264D01*
X155936Y214264D01*
X162243Y209674D01*
X174295Y199767D01*
X185744Y189170D01*
X196549Y177916D01*
X206674Y166047D01*
X216083Y153603D01*
X224744Y140627D01*
X232627Y127164D01*
X239704Y113260D01*
X245951Y98965D01*
X251346Y84326D01*
X255870Y69396D01*
X259509Y54225D01*
X262249Y38867D01*
X264081Y23373D01*
X264998Y7800D01*
X264998Y-1D01*
X264998D01*
X264998Y-7298D01*
X264195Y-21869D01*
X262592Y-36374D01*
X260193Y-50769D01*
X257005Y-65010D01*
X253039Y-79054D01*
X248305Y-92859D01*
X242819Y-106382D01*
X236598Y-119583D01*
X229659Y-132421D01*
X222024Y-144858D01*
X213717Y-156856D01*
X204761Y-168379D01*
X195186Y-179392D01*
X185018Y-189861D01*
X174290Y-199754D01*
X163034Y-209042D01*
X151284Y-217697D01*
X139075Y-225692D01*
X126445Y-233003D01*
X113432Y-239608D01*
X100075Y-245486D01*
X86414Y-250621D01*
X72492Y-254996D01*
X65421Y-256798D01*
X64607Y-257005D01*
X62926Y-257042D01*
X61281Y-256699D01*
X59755Y-255993D01*
X58428Y-254962D01*
X57368Y-253657D01*
X56629Y-252148D01*
X56250Y-250510D01*
X56250Y-249670D01*
Y-207571D01*
Y-205608D01*
X56635Y-201701D01*
X57401Y-197850D01*
X58540Y-194093D01*
X60043Y-190466D01*
X61894Y-187004D01*
X64075Y-183739D01*
X66565Y-180705D01*
X67953Y-179317D01*
X67954Y-179316D01*
X77804Y-169466D01*
X79198Y-167928D01*
X81502Y-164480D01*
X83089Y-160648D01*
X83898Y-156581D01*
X84000Y-154508D01*
X84000Y-154507D01*
X84000Y-145371D01*
X83897Y-143272D01*
X83078Y-139154D01*
X81471Y-135275D01*
X79138Y-131785D01*
X77727Y-130228D01*
X77727Y-130227D01*
Y-130227D01*
X64423Y-116923D01*
X62450Y-114519D01*
X60722Y-111932D01*
X59255Y-109189D01*
X58065Y-106315D01*
X57162Y-103338D01*
X56555Y-100287D01*
X56250Y-97192D01*
Y-95636D01*
Y87750D01*
X56255Y89595D01*
X56586Y93269D01*
X57234Y96901D01*
X58194Y100464D01*
X59459Y103929D01*
X61021Y107272D01*
X62866Y110467D01*
X64981Y113490D01*
X66166Y114904D01*
X66166Y114904D01*
X148068Y213237D01*
X148774Y214084D01*
X150707Y215148D01*
X152895Y215434D01*
X155036Y214902D01*
D02*
G37*
%LPC*%
G36*
X-48203Y248000D02*
X-53397D01*
X-58527Y247187D01*
X-63468Y245582D01*
X-68096Y243224D01*
X-72298Y240171D01*
X-75971Y236498D01*
X-79024Y232296D01*
X-110592Y174151D01*
X-112522Y170364D01*
X-113835Y166322D01*
X-114500Y162125D01*
Y157875D01*
X-113835Y153678D01*
X-112522Y149636D01*
X-110592Y145849D01*
X-108094Y142411D01*
X-105089Y139406D01*
X-101651Y136908D01*
X-97864Y134978D01*
X-93822Y133665D01*
X-89625Y133000D01*
X-85375D01*
X-81178Y133665D01*
X-77136Y134978D01*
X-73349Y136908D01*
X-69911Y139406D01*
X-66906Y142411D01*
X-33158Y184182D01*
X-31247Y186389D01*
X-26994Y190383D01*
X-22234Y193758D01*
X-17057Y196450D01*
X-14343Y197523D01*
X-10658Y195061D01*
X-6563Y193365D01*
X-2216Y192500D01*
X2216D01*
X6563Y193365D01*
X10658Y195061D01*
X14343Y197523D01*
X17477Y200657D01*
X19939Y204342D01*
X21635Y208437D01*
X22500Y212784D01*
Y217216D01*
X21635Y221563D01*
X19939Y225658D01*
X17477Y229343D01*
X14343Y232477D01*
X10658Y234939D01*
X6563Y236635D01*
X2216Y237500D01*
X-2216D01*
X-6563Y236635D01*
X-10658Y234939D01*
X-12363Y233800D01*
X-33408Y243154D01*
X-33504Y243224D01*
X-38132Y245582D01*
X-43073Y247187D01*
X-48203Y248000D01*
D02*
G37*
G36*
X-228523Y53100D02*
X-231477D01*
X-234375Y52523D01*
X-237105Y51393D01*
X-239562Y49751D01*
X-241651Y47662D01*
X-243293Y45205D01*
X-244424Y42475D01*
X-245000Y39577D01*
Y36623D01*
X-244424Y33725D01*
X-243293Y30995D01*
X-241651Y28538D01*
X-239746Y26633D01*
X-239489Y25716D01*
Y25084D01*
X-239746Y24167D01*
X-241651Y22262D01*
X-243293Y19805D01*
X-244424Y17075D01*
X-245000Y14177D01*
Y11223D01*
X-244424Y8325D01*
X-243293Y5595D01*
X-241651Y3138D01*
X-239562Y1049D01*
X-237105Y-593D01*
X-234375Y-1724D01*
X-231477Y-2300D01*
X-228523D01*
X-225625Y-1724D01*
X-222895Y-593D01*
X-220438Y1049D01*
X-218349Y3138D01*
X-216707Y5595D01*
X-215576Y8325D01*
X-215000Y11223D01*
Y14177D01*
X-215576Y17075D01*
X-216707Y19805D01*
X-218349Y22262D01*
X-220254Y24167D01*
X-220511Y25084D01*
Y25716D01*
X-220254Y26633D01*
X-218349Y28538D01*
X-216707Y30995D01*
X-215576Y33725D01*
X-215000Y36623D01*
Y39577D01*
X-215576Y42475D01*
X-216707Y45205D01*
X-218349Y47662D01*
X-220438Y49751D01*
X-222895Y51393D01*
X-225625Y52523D01*
X-228523Y53100D01*
D02*
G37*
G36*
X-62657Y52000D02*
X-66343D01*
X-69904Y51046D01*
X-73096Y49203D01*
X-75703Y46596D01*
X-77546Y43404D01*
X-78500Y39843D01*
Y36507D01*
X-78608Y35688D01*
Y-27500D01*
X-78254Y-30190D01*
X-78647Y-30827D01*
X-80224Y-32048D01*
X-82276Y-30863D01*
X-84565Y-30250D01*
X-86935D01*
X-89224Y-30863D01*
X-91276Y-32048D01*
X-92952Y-33724D01*
X-94137Y-35776D01*
X-94750Y-38065D01*
Y-40435D01*
X-94137Y-42724D01*
X-92952Y-44776D01*
X-91276Y-46452D01*
X-89224Y-47637D01*
X-86935Y-48250D01*
X-84565D01*
X-82276Y-47637D01*
X-80224Y-46452D01*
X-80083Y-46310D01*
X-77500D01*
Y-46500D01*
X-54500D01*
Y-32401D01*
X-53822Y-30763D01*
X-53392Y-27500D01*
Y29309D01*
X-53297Y29404D01*
X-51454Y32596D01*
X-50500Y36157D01*
Y39843D01*
X-51454Y43404D01*
X-53297Y46596D01*
X-55904Y49203D01*
X-59096Y51046D01*
X-62657Y52000D01*
D02*
G37*
G36*
X22250Y-31000D02*
X2750D01*
Y-49000D01*
X6935D01*
Y-51190D01*
X5709Y-52009D01*
X5558Y-52235D01*
X-78050D01*
X-78050Y-52235D01*
X-79029Y-52364D01*
X-80008Y-52493D01*
X-81832Y-53249D01*
X-83399Y-54451D01*
X-103383Y-74435D01*
X-109750D01*
Y-72350D01*
X-129450D01*
Y-110650D01*
X-109750D01*
Y-89565D01*
X-100250D01*
X-98292Y-89307D01*
X-96468Y-88551D01*
X-94901Y-87349D01*
X-74917Y-67365D01*
X5558D01*
X5709Y-67591D01*
X7735Y-68945D01*
X10125Y-69420D01*
X18875D01*
X21265Y-68945D01*
X23291Y-67591D01*
X24645Y-65565D01*
X25120Y-63175D01*
Y-56425D01*
X24645Y-54035D01*
X23291Y-52009D01*
X22065Y-51190D01*
Y-49000D01*
X22250D01*
Y-31000D01*
D02*
G37*
G36*
X-143657Y52000D02*
X-147343D01*
X-150904Y51046D01*
X-154096Y49203D01*
X-156703Y46596D01*
X-158546Y43404D01*
X-159500Y39843D01*
Y36157D01*
X-158546Y32596D01*
X-158108Y31837D01*
Y10450D01*
X-175650D01*
Y-60450D01*
X-109350D01*
Y10450D01*
X-132892D01*
Y31837D01*
X-132454Y32596D01*
X-131500Y36157D01*
Y39843D01*
X-132454Y43404D01*
X-134297Y46596D01*
X-136904Y49203D01*
X-140096Y51046D01*
X-143657Y52000D01*
D02*
G37*
G36*
X18875Y-75580D02*
X10125D01*
X7735Y-76055D01*
X5709Y-77409D01*
X4355Y-79435D01*
X3880Y-81825D01*
Y-88575D01*
X4355Y-90965D01*
X4649Y-91403D01*
X-402Y-96454D01*
X-2250Y-95689D01*
Y-86750D01*
X-22750D01*
Y-103499D01*
X-46651D01*
Y-124599D01*
X-24845D01*
X-24495Y-125444D01*
X-24251Y-126599D01*
X-25301Y-127968D01*
X-25832Y-129250D01*
X-42250D01*
Y-132939D01*
X-44250Y-133892D01*
X-46776Y-132204D01*
X-50416Y-130696D01*
X-54280Y-129928D01*
X-55440D01*
Y-115500D01*
X-52750D01*
Y-102500D01*
Y-84500D01*
X-72250D01*
Y-86940D01*
X-80845D01*
X-82276Y-86113D01*
X-84565Y-85500D01*
X-86935D01*
X-89224Y-86113D01*
X-91276Y-87298D01*
X-92952Y-88974D01*
X-94137Y-91026D01*
X-94750Y-93315D01*
Y-95685D01*
X-94137Y-97974D01*
X-92952Y-100026D01*
X-91276Y-101702D01*
X-89224Y-102887D01*
X-86935Y-103500D01*
X-84565D01*
X-82276Y-102887D01*
X-80224Y-101702D01*
X-79583Y-101060D01*
X-72250D01*
Y-115500D01*
X-69560D01*
Y-134954D01*
X-71785Y-137179D01*
X-73974Y-140454D01*
X-75481Y-144094D01*
X-76250Y-147958D01*
Y-151898D01*
X-75481Y-155762D01*
X-73974Y-159401D01*
X-71785Y-162677D01*
X-68999Y-165463D01*
X-65724Y-167652D01*
X-62084Y-169159D01*
X-58220Y-169928D01*
X-54280D01*
X-50416Y-169159D01*
X-46776Y-167652D01*
X-43501Y-165463D01*
X-40715Y-162677D01*
X-38526Y-159401D01*
X-37019Y-155762D01*
X-36250Y-151898D01*
Y-150013D01*
X-33121Y-148750D01*
X-20000D01*
Y-185000D01*
X20000D01*
Y-145000D01*
X-11250D01*
Y-137992D01*
X-11185Y-137500D01*
X-11185Y-137500D01*
Y-134883D01*
X-7401Y-131099D01*
X-7401Y-131099D01*
X-6199Y-129532D01*
X-5443Y-127708D01*
X-5185Y-125750D01*
X-3340Y-125250D01*
X9250D01*
Y-114492D01*
X9315Y-114000D01*
X9315Y-114000D01*
Y-108133D01*
X18400Y-99048D01*
X18400Y-99048D01*
X19602Y-97481D01*
X20358Y-95657D01*
X20511Y-94494D01*
X21265Y-94345D01*
X23291Y-92991D01*
X24645Y-90965D01*
X25120Y-88575D01*
Y-81825D01*
X24645Y-79435D01*
X23291Y-77409D01*
X21265Y-76055D01*
X18875Y-75580D01*
D02*
G37*
G36*
X86500Y83750D02*
X60000D01*
Y46250D01*
X68152D01*
Y42500D01*
X68540Y40549D01*
X69645Y38895D01*
X81902Y26638D01*
Y20250D01*
X80000D01*
Y4750D01*
X81902D01*
Y-13500D01*
X82290Y-15451D01*
X83395Y-17105D01*
X105968Y-39678D01*
X105370Y-41908D01*
X105241Y-41943D01*
X103759Y-42799D01*
X102549Y-44009D01*
X101693Y-45491D01*
X101250Y-47144D01*
Y-48856D01*
X101557Y-50000D01*
X101323Y-50445D01*
X100250Y-52000D01*
X100250Y-52000D01*
X100250Y-52000D01*
Y-63000D01*
X100250Y-65000D01*
X100250Y-67000D01*
Y-72261D01*
X91555Y-80957D01*
X83398D01*
X83290Y-80411D01*
X82488Y-79212D01*
X81289Y-78410D01*
X79875Y-78129D01*
X71125D01*
X69711Y-78410D01*
X68512Y-79212D01*
X67710Y-80411D01*
X67429Y-81825D01*
Y-88575D01*
X67710Y-89989D01*
X68512Y-91188D01*
X69711Y-91990D01*
X71125Y-92271D01*
X79875D01*
X81289Y-91990D01*
X82488Y-91188D01*
X83194Y-90133D01*
X93455D01*
X95211Y-89784D01*
X96699Y-88789D01*
X107489Y-78000D01*
X114750D01*
Y-67000D01*
X114750Y-65000D01*
X114750Y-63000D01*
Y-52000D01*
X114750Y-52000D01*
X114636Y-51717D01*
X114817Y-51355D01*
X117249Y-50959D01*
X121395Y-55105D01*
X123049Y-56210D01*
X125000Y-56598D01*
X136902D01*
Y-62250D01*
X135000D01*
Y-77750D01*
X139002D01*
X139290Y-79201D01*
X140395Y-80855D01*
X149500Y-89960D01*
Y-97250D01*
X160500D01*
X162500Y-97250D01*
X164500Y-97250D01*
X175500D01*
Y-94588D01*
X182099D01*
X183834Y-96322D01*
X185322Y-97317D01*
X187078Y-97666D01*
X203847D01*
X204994Y-99304D01*
X204977Y-99353D01*
X224710Y-106536D01*
X231892Y-86802D01*
X212159Y-79620D01*
X208930Y-88490D01*
X188978D01*
X187244Y-86756D01*
X185756Y-85761D01*
X184000Y-85412D01*
X175500D01*
Y-82750D01*
X175138D01*
Y-47722D01*
X174789Y-45966D01*
X173794Y-44478D01*
X171073Y-41756D01*
X169584Y-40761D01*
X167828Y-40412D01*
X159600D01*
X159452Y-40441D01*
X154150D01*
X152979Y-40674D01*
X151987Y-41337D01*
X151324Y-42330D01*
X151091Y-43500D01*
Y-46500D01*
X151324Y-47670D01*
X151987Y-48663D01*
X152979Y-49326D01*
X154150Y-49559D01*
X159452D01*
X159600Y-49588D01*
X165928D01*
X165962Y-49622D01*
Y-81336D01*
X164548Y-82750D01*
X162500Y-82750D01*
X160500Y-82750D01*
X156710D01*
X149098Y-75138D01*
Y-72000D01*
X149000Y-71507D01*
Y-62250D01*
X147098D01*
Y-55774D01*
X148013Y-55163D01*
X148676Y-54171D01*
X148909Y-53000D01*
Y-50000D01*
X148676Y-48829D01*
X148013Y-47837D01*
X147021Y-47174D01*
X145850Y-46941D01*
X143677D01*
X143451Y-46790D01*
X141500Y-46402D01*
X129996D01*
X129460Y-44402D01*
X130241Y-43951D01*
X130979Y-43213D01*
X140275D01*
X141051Y-43059D01*
X145850D01*
X147021Y-42826D01*
X148013Y-42163D01*
X148676Y-41171D01*
X148909Y-40000D01*
Y-37000D01*
X148676Y-35830D01*
X148013Y-34837D01*
X147021Y-34174D01*
X145850Y-33941D01*
X140548D01*
X140400Y-33912D01*
X140252Y-33941D01*
X134950D01*
X134469Y-34037D01*
X130729D01*
X130241Y-33549D01*
X128759Y-32693D01*
X127106Y-32250D01*
X125394D01*
X123741Y-32693D01*
X122259Y-33549D01*
X121049Y-34759D01*
X120193Y-36241D01*
X120105Y-36567D01*
X117875Y-37165D01*
X92098Y-11388D01*
Y4750D01*
X94000D01*
Y20250D01*
X92098D01*
Y28750D01*
X91710Y30701D01*
X90605Y32355D01*
X78710Y44250D01*
X79221Y46250D01*
X86500D01*
Y59902D01*
X118500D01*
Y58000D01*
X145000D01*
Y72000D01*
X118500D01*
Y70098D01*
X86500D01*
Y83750D01*
D02*
G37*
G36*
X145000Y95000D02*
X118500D01*
Y81000D01*
X145000D01*
Y82902D01*
X155416D01*
X157250Y82500D01*
Y68500D01*
X172750D01*
Y70402D01*
X183138D01*
X224902Y28638D01*
Y24190D01*
X222325Y22703D01*
X219998Y20375D01*
X218352Y17525D01*
X217500Y14346D01*
Y11054D01*
X218352Y7875D01*
X219998Y5025D01*
X222325Y2697D01*
X225175Y1052D01*
X228354Y200D01*
X231646D01*
X234825Y1052D01*
X237675Y2697D01*
X240002Y5025D01*
X241648Y7875D01*
X242500Y11054D01*
Y14346D01*
X241648Y17525D01*
X240002Y20375D01*
X237675Y22703D01*
X235098Y24190D01*
Y30750D01*
X234710Y32701D01*
X233605Y34355D01*
X188855Y79105D01*
X187201Y80210D01*
X185250Y80598D01*
X172750D01*
Y82500D01*
X169377D01*
Y84571D01*
X168989Y86522D01*
X167884Y88176D01*
X164455Y91605D01*
X162801Y92710D01*
X160850Y93098D01*
X145000D01*
Y95000D01*
D02*
G37*
%LPD*%
D11*
X-66000Y-32250D02*
Y-27500D01*
D14*
X-33001Y-114049D02*
D03*
Y-79949D02*
D03*
D15*
X-33250Y-139000D02*
D03*
X-20250D02*
D03*
X-12750Y-115500D02*
D03*
X250D02*
D03*
X169000Y-90000D02*
D03*
X156000D02*
D03*
D16*
X-12500Y-96250D02*
D03*
Y-80250D02*
D03*
X165000Y75500D02*
D03*
Y59500D02*
D03*
D17*
X12500Y-40000D02*
D03*
Y-27000D02*
D03*
X-62500Y-93500D02*
D03*
Y-106500D02*
D03*
X107500Y-71500D02*
D03*
Y-58500D02*
D03*
D18*
X87000Y12500D02*
D03*
X103000D02*
D03*
X142000Y-70000D02*
D03*
X158000D02*
D03*
D19*
X131750Y42000D02*
D03*
Y65000D02*
D03*
Y88000D02*
D03*
D20*
X73250Y65000D02*
D03*
D21*
X14500Y-85200D02*
D03*
Y-59800D02*
D03*
X75500D02*
D03*
Y-85200D02*
D03*
D22*
X-19000Y-27500D02*
D03*
X-66000D02*
D03*
D23*
X-165400Y-91500D02*
D03*
X-119600D02*
D03*
D24*
X-142500Y-25000D02*
D03*
D25*
X159600Y-51500D02*
D03*
Y-45000D02*
D03*
Y-38500D02*
D03*
X140400D02*
D03*
Y-51500D02*
D03*
D38*
X0Y60000D02*
D03*
X-56250Y-149928D02*
D03*
X56250D02*
D03*
X-50800Y215000D02*
D03*
D39*
X0Y-165000D02*
D03*
D40*
X226985Y-69585D02*
D03*
D41*
X218434Y-93078D02*
D03*
D47*
X169000Y-90000D02*
X170550D01*
X169000D02*
X170550Y-88450D01*
Y-90000D02*
X184000D01*
X170550Y-88450D02*
Y-47722D01*
X-70500Y-39250D02*
X-66000Y-34750D01*
Y-32250D01*
X-85750Y-39250D02*
X-70500D01*
X-63000Y-94000D02*
X-62500Y-93500D01*
X-85750Y-94500D02*
X-85250Y-94000D01*
X-63000D01*
X-62500Y-136236D02*
X-56250Y-142486D01*
X-62500Y-136236D02*
Y-106500D01*
X-56250Y-149928D02*
Y-142486D01*
X75845Y-85545D02*
X93455D01*
X104750Y-74250D02*
Y-73500D01*
X75500Y-85200D02*
X75845Y-85545D01*
X93455D02*
X104750Y-74250D01*
Y-73500D02*
X106750Y-71500D01*
X107500D01*
X126250Y-38750D02*
X126375Y-38625D01*
X140275D02*
X140400Y-38500D01*
X126375Y-38625D02*
X140275D01*
X107625Y-58375D02*
Y-48125D01*
X107500Y-58500D02*
X107625Y-58375D01*
Y-48125D02*
X107750Y-48000D01*
X159600Y-45000D02*
X167828D01*
X170550Y-47722D01*
X184000Y-90000D02*
X187078Y-93078D01*
X218434D01*
D48*
X-117250Y-82000D02*
X-100250D01*
X-78050Y-59800D01*
X-119600Y-91500D02*
Y-84350D01*
X-117250Y-82000D01*
X-78050Y-59800D02*
X14500D01*
X-56250Y-149928D02*
X-34750Y-141250D01*
X-33250Y-139000D01*
X73250Y65000D02*
X131750D01*
X-87500Y160000D02*
X-50800Y215000D01*
X-18750Y-137500D02*
Y-131750D01*
X-20250Y-139000D02*
X-18750Y-137500D01*
Y-131750D02*
X-12750Y-125750D01*
X14500Y-59800D02*
Y-41500D01*
X13000Y-40000D02*
X14500Y-41500D01*
X12500Y-40000D02*
X13000D01*
X13051Y-93699D02*
Y-86649D01*
X1750Y-105000D02*
X13051Y-93699D01*
Y-86649D02*
X14500Y-85200D01*
X250Y-115500D02*
X1750Y-114000D01*
Y-105000D01*
X-33001Y-114049D02*
X-32275Y-114775D01*
X-13475D02*
X-12750Y-115500D01*
X-32275Y-114775D02*
X-13475D01*
X-12625Y-96375D02*
X-12500Y-96250D01*
X-12750Y-115500D02*
X-12625Y-115375D01*
Y-96375D01*
X-12750Y-125750D02*
Y-115500D01*
X87000Y-13500D02*
X125000Y-51500D01*
X140400D01*
X87000Y-13500D02*
Y12500D01*
X140400Y-51500D02*
X141500D01*
X142000Y-70000D02*
Y-52000D01*
X141500Y-51500D02*
X142000Y-52000D01*
Y-70000D02*
X144000Y-72000D01*
Y-77250D02*
Y-72000D01*
Y-77250D02*
X156000Y-89250D01*
Y-90000D02*
Y-89250D01*
X87000Y12500D02*
Y28750D01*
X73250Y42500D02*
X87000Y28750D01*
X73250Y42500D02*
Y65000D01*
X164279Y76221D02*
X165000Y75500D01*
X164279Y76221D02*
Y84571D01*
X160850Y88000D02*
X164279Y84571D01*
X131750Y88000D02*
X160850D01*
X165000Y75500D02*
X185250D01*
X230000Y30750D01*
Y12700D02*
Y30750D01*
D49*
X-64500Y37188D02*
Y38000D01*
X-66000Y-27500D02*
Y35688D01*
X-64500Y37188D01*
X-145500Y-22000D02*
X-142500Y-25000D01*
X-145500Y-22000D02*
Y38000D01*
D50*
X-100000Y-200000D02*
D03*
D51*
X-230000Y-12700D02*
D03*
Y-38100D02*
D03*
Y12700D02*
D03*
Y38100D02*
D03*
X230000Y-12700D02*
D03*
Y12700D02*
D03*
D52*
X-64500Y38000D02*
D03*
X-145500D02*
D03*
X-87500Y160000D02*
D03*
X-157500D02*
D03*
D53*
X50800Y215000D02*
D03*
X0D02*
D03*
D54*
X66750Y152250D02*
D03*
X70250Y-208750D02*
D03*
X68000Y-33500D02*
D03*
X69000Y10250D02*
D03*
X160866Y-57724D02*
D03*
X151478Y-57466D02*
D03*
X-85750Y-39250D02*
D03*
Y-94500D02*
D03*
X240000Y60000D02*
D03*
X255000Y30000D02*
D03*
Y-30000D02*
D03*
X240000Y-60000D02*
D03*
X210000Y120000D02*
D03*
X225000Y90000D02*
D03*
X210000Y-0D02*
D03*
X225000Y-30000D02*
D03*
X210000Y-60000D02*
D03*
Y-120000D02*
D03*
X180000Y180000D02*
D03*
X195000Y150000D02*
D03*
X180000Y120000D02*
D03*
X195000Y90000D02*
D03*
X180000Y60000D02*
D03*
X195000Y30000D02*
D03*
X180000Y-0D02*
D03*
X195000Y-30000D02*
D03*
X180000Y-120000D02*
D03*
X195000Y-150000D02*
D03*
X180000Y-180000D02*
D03*
X150000Y180000D02*
D03*
X165000Y150000D02*
D03*
X150000Y120000D02*
D03*
X165000Y30000D02*
D03*
X150000Y-0D02*
D03*
X165000Y-30000D02*
D03*
X150000Y-120000D02*
D03*
X165000Y-150000D02*
D03*
X150000Y-180000D02*
D03*
X135000Y150000D02*
D03*
X120000Y120000D02*
D03*
X135000Y30000D02*
D03*
X120000Y-0D02*
D03*
X135000Y-90000D02*
D03*
X120000Y-120000D02*
D03*
X135000Y-150000D02*
D03*
X120000Y-180000D02*
D03*
X135000Y-210000D02*
D03*
X105000Y150000D02*
D03*
X90000Y120000D02*
D03*
X105000Y90000D02*
D03*
Y30000D02*
D03*
X90000Y-60000D02*
D03*
X105000Y-90000D02*
D03*
X90000Y-120000D02*
D03*
X105000Y-150000D02*
D03*
X90000Y-180000D02*
D03*
X105000Y-210000D02*
D03*
X90000Y-240000D02*
D03*
Y240000D02*
D03*
X105000Y210000D02*
D03*
X90000Y180000D02*
D03*
X60000Y240000D02*
D03*
X75000Y210000D02*
D03*
X60000Y180000D02*
D03*
X30000Y240000D02*
D03*
Y-240000D02*
D03*
X15000Y-210000D02*
D03*
X-0Y-240000D02*
D03*
X-15000Y-210000D02*
D03*
X-30000Y-240000D02*
D03*
X-60000Y-180000D02*
D03*
X-45000Y-210000D02*
D03*
X-60000Y-240000D02*
D03*
X-90000Y240000D02*
D03*
Y-120000D02*
D03*
Y-240000D02*
D03*
X-105000Y210000D02*
D03*
X-120000Y180000D02*
D03*
Y120000D02*
D03*
Y-120000D02*
D03*
X-105000Y-150000D02*
D03*
X-135000Y210000D02*
D03*
X-150000Y180000D02*
D03*
X-135000Y150000D02*
D03*
X-150000Y120000D02*
D03*
X-135000Y90000D02*
D03*
X-150000Y60000D02*
D03*
X-135000Y-90000D02*
D03*
X-150000Y-120000D02*
D03*
X-135000Y-150000D02*
D03*
X-150000Y-180000D02*
D03*
X-135000Y-210000D02*
D03*
X-180000Y180000D02*
D03*
Y120000D02*
D03*
X-165000Y90000D02*
D03*
X-180000Y60000D02*
D03*
Y-60000D02*
D03*
Y-120000D02*
D03*
X-165000Y-150000D02*
D03*
X-180000Y-180000D02*
D03*
X-195000Y150000D02*
D03*
X-210000Y120000D02*
D03*
X-195000Y90000D02*
D03*
X-210000Y60000D02*
D03*
Y-60000D02*
D03*
X-195000Y-90000D02*
D03*
X-210000Y-120000D02*
D03*
X-195000Y-150000D02*
D03*
X-225000Y90000D02*
D03*
X-240000Y60000D02*
D03*
Y-60000D02*
D03*
X-225000Y-90000D02*
D03*
X126250Y-38750D02*
D03*
X107750Y-48000D02*
D03*
M02*
